<svg xmlns="http://www.w3.org/2000/svg" viewBox="0 0 562 100" role="img" aria-label="faststream-concurrent-aiokafka"><g><path d="M9 62 L9 9 L62 9" fill="none" stroke="#f4f1e8" stroke-width="11" stroke-linejoin="miter"/><rect x="55.0" y="2.0" width="14" height="14" rx="2" fill="#f4f1e8"/><polygon points="3.5,60.0 14.5,60.0 14.5,62.0 3.5,73.0" fill="#f4f1e8"/><path d="M91 38 L91 91 L38 91" fill="none" stroke="#f0b528" stroke-width="11" stroke-linejoin="miter"/><rect x="31.0" y="84.0" width="14" height="14" rx="2" fill="#f0b528"/><polygon points="96.5,40.0 85.5,40.0 85.5,38.0 96.5,27.0" fill="#f0b528"/><line x1="30.4" y1="37.4" x2="54.5" y2="37.4" stroke="#f0b528" stroke-width="3.4" stroke-linecap="round"/><polygon points="58.6,37.4 52.6,40.8 52.6,33.9" fill="#f0b528"/><line x1="30.4" y1="50.0" x2="65.4" y2="50.0" stroke="#f0b528" stroke-width="3.4" stroke-linecap="round"/><polygon points="69.5,50.0 63.6,53.5 63.6,46.5" fill="#f0b528"/><line x1="30.4" y1="62.6" x2="54.5" y2="62.6" stroke="#f0b528" stroke-width="3.4" stroke-linecap="round"/><polygon points="58.6,62.6 52.6,66.1 52.6,59.2" fill="#f0b528"/></g><g fill="#f4f1e8" transform="translate(118.000,61.560) scale(0.034000,-0.034000)"><path d="M40 460V385H270V460ZM262 684 306 750Q299 760 286.5 769.0Q274 778 257.0 784.0Q240 790 218 790Q176 790 146.5 772.5Q117 755 101.0 720.0Q85 685 85 630V0H165V620Q165 653 171.0 673.0Q177 693 187.5 701.5Q198 710 213 710Q225 710 238.5 705.5Q252 701 262 684Z" transform="translate(0.00,0)"/><path d="M111 142Q111 167 123.0 185.0Q135 203 159.5 213.0Q184 223 223 223Q265 223 302.0 212.5Q339 202 374 178V225Q367 234 347.0 248.5Q327 263 293.5 274.5Q260 286 210 286Q125 286 77.5 245.5Q30 205 30 138Q30 91 52.0 58.0Q74 25 110.5 7.5Q147 -10 189 -10Q227 -10 265.5 4.0Q304 18 330.5 47.0Q357 76 357 120L341 180Q341 144 323.5 116.5Q306 89 276.5 74.0Q247 59 210 59Q181 59 158.5 68.5Q136 78 123.5 97.0Q111 116 111 142ZM99 354Q110 362 129.0 373.0Q148 384 175.5 392.0Q203 400 237 400Q258 400 277.0 396.0Q296 392 310.5 383.0Q325 374 333.0 358.5Q341 343 341 319V0H421V330Q421 375 398.5 406.0Q376 437 335.5 453.5Q295 470 241 470Q177 470 131.5 451.0Q86 432 60 413Z" transform="translate(286.00,0)"/><path d="M94 141 31 102Q44 75 69.5 49.0Q95 23 132.0 6.5Q169 -10 215 -10Q286 -10 329.5 30.0Q373 70 373 130Q373 171 353.5 197.0Q334 223 301.0 241.5Q268 260 228 276Q204 286 182.0 297.0Q160 308 146.0 322.0Q132 336 132 354Q132 377 150.0 388.0Q168 399 193 399Q229 399 257.5 382.0Q286 365 305 339L369 380Q355 406 330.0 426.0Q305 446 272.5 458.0Q240 470 203 470Q166 470 131.5 457.0Q97 444 75.5 417.0Q54 390 54 349Q54 309 74.5 282.5Q95 256 125.5 239.5Q156 223 186 211Q213 201 237.0 189.5Q261 178 276.5 161.5Q292 145 292 121Q292 94 272.5 78.5Q253 63 219 63Q191 63 167.5 73.5Q144 84 126.0 102.0Q108 120 94 141Z" transform="translate(767.00,0)"/><path d="M5 460V385H235V460ZM80 620V0H160V620Z" transform="translate(1170.00,0)"/><path d="M94 141 31 102Q44 75 69.5 49.0Q95 23 132.0 6.5Q169 -10 215 -10Q286 -10 329.5 30.0Q373 70 373 130Q373 171 353.5 197.0Q334 223 301.0 241.5Q268 260 228 276Q204 286 182.0 297.0Q160 308 146.0 322.0Q132 336 132 354Q132 377 150.0 388.0Q168 399 193 399Q229 399 257.5 382.0Q286 365 305 339L369 380Q355 406 330.0 426.0Q305 446 272.5 458.0Q240 470 203 470Q166 470 131.5 457.0Q97 444 75.5 417.0Q54 390 54 349Q54 309 74.5 282.5Q95 256 125.5 239.5Q156 223 186 211Q213 201 237.0 189.5Q261 178 276.5 161.5Q292 145 292 121Q292 94 272.5 78.5Q253 63 219 63Q191 63 167.5 73.5Q144 84 126.0 102.0Q108 120 94 141Z" transform="translate(1410.00,0)"/><path d="M5 460V385H235V460ZM80 620V0H160V620Z" transform="translate(1813.00,0)"/><path d="M155 460H75V0H155ZM294 372 338 438Q320 457 298.5 463.5Q277 470 252 470Q220 470 189.0 445.0Q158 420 138.5 377.5Q119 335 119 280H155Q155 313 161.5 339.0Q168 365 185.0 380.0Q202 395 232 395Q252 395 265.0 389.5Q278 384 294 372Z" transform="translate(2053.00,0)"/><path d="M253 -10Q327 -10 381.5 19.5Q436 49 472 107L407 148Q382 106 346.0 85.5Q310 65 263 65Q216 65 183.0 85.0Q150 105 133.0 143.0Q116 181 116 235Q117 288 134.5 324.5Q152 361 184.5 380.5Q217 400 263 400Q302 400 331.0 383.0Q360 366 376.5 336.0Q393 306 393 265Q393 258 390.0 247.5Q387 237 384 232L416 278H86V210H479Q479 212 479.5 219.5Q480 227 480 234Q480 307 454.0 360.0Q428 413 379.5 441.5Q331 470 263 470Q195 470 143.5 440.0Q92 410 63.5 356.0Q35 302 35 230Q35 159 62.5 105.0Q90 51 139.5 20.5Q189 -10 253 -10Z" transform="translate(2396.00,0)"/><path d="M111 142Q111 167 123.0 185.0Q135 203 159.5 213.0Q184 223 223 223Q265 223 302.0 212.5Q339 202 374 178V225Q367 234 347.0 248.5Q327 263 293.5 274.5Q260 286 210 286Q125 286 77.5 245.5Q30 205 30 138Q30 91 52.0 58.0Q74 25 110.5 7.5Q147 -10 189 -10Q227 -10 265.5 4.0Q304 18 330.5 47.0Q357 76 357 120L341 180Q341 144 323.5 116.5Q306 89 276.5 74.0Q247 59 210 59Q181 59 158.5 68.5Q136 78 123.5 97.0Q111 116 111 142ZM99 354Q110 362 129.0 373.0Q148 384 175.5 392.0Q203 400 237 400Q258 400 277.0 396.0Q296 392 310.5 383.0Q325 374 333.0 358.5Q341 343 341 319V0H421V330Q421 375 398.5 406.0Q376 437 335.5 453.5Q295 470 241 470Q177 470 131.5 451.0Q86 432 60 413Z" transform="translate(2911.00,0)"/><path d="M705 290Q705 347 687.5 387.5Q670 428 637.0 449.0Q604 470 557 470Q511 470 475.0 448.5Q439 427 415 384Q399 425 364.5 447.5Q330 470 282 470Q239 470 207.5 451.0Q176 432 155 393V460H75V0H155V280Q155 316 168.0 342.0Q181 368 205.0 381.5Q229 395 262 395Q307 395 328.5 367.0Q350 339 350 280V0H430V280Q430 316 443.0 342.0Q456 368 480.0 381.5Q504 395 537 395Q582 395 603.5 367.0Q625 339 625 280V0H705Z" transform="translate(3392.00,0)"/><path d="M5 200H205V275H5Z" transform="translate(4172.00,0)"/><path d="M111 230Q111 278 131.5 315.5Q152 353 187.5 374.0Q223 395 268 395Q305 395 337.5 383.5Q370 372 394.0 353.0Q418 334 428 311V411Q404 439 359.5 454.5Q315 470 268 470Q201 470 147.0 439.0Q93 408 61.5 354.0Q30 300 30 230Q30 161 61.5 106.5Q93 52 147.0 21.0Q201 -10 268 -10Q315 -10 359.5 5.5Q404 21 428 49V149Q418 127 394.0 107.5Q370 88 337.5 76.5Q305 65 268 65Q223 65 187.5 86.5Q152 108 131.5 145.0Q111 182 111 230Z" transform="translate(4382.00,0)"/><path d="M35 230Q35 161 66.5 106.5Q98 52 152.0 21.0Q206 -10 273 -10Q341 -10 394.5 21.0Q448 52 479.5 106.5Q511 161 511 230Q511 300 479.5 354.0Q448 408 394.5 439.0Q341 470 273 470Q206 470 152.0 439.0Q98 408 66.5 354.0Q35 300 35 230ZM116 230Q116 278 136.5 315.5Q157 353 192.5 374.0Q228 395 273 395Q318 395 353.5 374.0Q389 353 409.5 315.5Q430 278 430 230Q430 182 409.5 145.0Q389 108 353.5 86.5Q318 65 273 65Q228 65 192.5 86.5Q157 108 136.5 145.0Q116 182 116 230Z" transform="translate(4860.00,0)"/><path d="M370 280V0H450V290Q450 373 407.5 421.5Q365 470 292 470Q247 470 212.5 450.0Q178 430 155 388V460H75V0H155V280Q155 314 169.5 340.0Q184 366 210.5 380.5Q237 395 272 395Q320 395 345.0 366.0Q370 337 370 280Z" transform="translate(5406.00,0)"/><path d="M111 230Q111 278 131.5 315.5Q152 353 187.5 374.0Q223 395 268 395Q305 395 337.5 383.5Q370 372 394.0 353.0Q418 334 428 311V411Q404 439 359.5 454.5Q315 470 268 470Q201 470 147.0 439.0Q93 408 61.5 354.0Q30 300 30 230Q30 161 61.5 106.5Q93 52 147.0 21.0Q201 -10 268 -10Q315 -10 359.5 5.5Q404 21 428 49V149Q418 127 394.0 107.5Q370 88 337.5 76.5Q305 65 268 65Q223 65 187.5 86.5Q152 108 131.5 145.0Q111 182 111 230Z" transform="translate(5931.00,0)"/><path d="M155 180V460H75V170Q75 88 118.0 39.0Q161 -10 233 -10Q279 -10 313.0 10.5Q347 31 370 72V0H450V460H370V180Q370 146 355.5 120.0Q341 94 314.5 79.5Q288 65 253 65Q205 65 180.0 95.0Q155 125 155 180Z" transform="translate(6409.00,0)"/><path d="M155 460H75V0H155ZM294 372 338 438Q320 457 298.5 463.5Q277 470 252 470Q220 470 189.0 445.0Q158 420 138.5 377.5Q119 335 119 280H155Q155 313 161.5 339.0Q168 365 185.0 380.0Q202 395 232 395Q252 395 265.0 389.5Q278 384 294 372Z" transform="translate(6934.00,0)"/><path d="M155 460H75V0H155ZM294 372 338 438Q320 457 298.5 463.5Q277 470 252 470Q220 470 189.0 445.0Q158 420 138.5 377.5Q119 335 119 280H155Q155 313 161.5 339.0Q168 365 185.0 380.0Q202 395 232 395Q252 395 265.0 389.5Q278 384 294 372Z" transform="translate(7277.00,0)"/><path d="M253 -10Q327 -10 381.5 19.5Q436 49 472 107L407 148Q382 106 346.0 85.5Q310 65 263 65Q216 65 183.0 85.0Q150 105 133.0 143.0Q116 181 116 235Q117 288 134.5 324.5Q152 361 184.5 380.5Q217 400 263 400Q302 400 331.0 383.0Q360 366 376.5 336.0Q393 306 393 265Q393 258 390.0 247.5Q387 237 384 232L416 278H86V210H479Q479 212 479.5 219.5Q480 227 480 234Q480 307 454.0 360.0Q428 413 379.5 441.5Q331 470 263 470Q195 470 143.5 440.0Q92 410 63.5 356.0Q35 302 35 230Q35 159 62.5 105.0Q90 51 139.5 20.5Q189 -10 253 -10Z" transform="translate(7620.00,0)"/><path d="M370 280V0H450V290Q450 373 407.5 421.5Q365 470 292 470Q247 470 212.5 450.0Q178 430 155 388V460H75V0H155V280Q155 314 169.5 340.0Q184 366 210.5 380.5Q237 395 272 395Q320 395 345.0 366.0Q370 337 370 280Z" transform="translate(8135.00,0)"/><path d="M5 460V385H235V460ZM80 620V0H160V620Z" transform="translate(8660.00,0)"/><path d="M5 200H205V275H5Z" transform="translate(8900.00,0)"/><path d="M111 142Q111 167 123.0 185.0Q135 203 159.5 213.0Q184 223 223 223Q265 223 302.0 212.5Q339 202 374 178V225Q367 234 347.0 248.5Q327 263 293.5 274.5Q260 286 210 286Q125 286 77.5 245.5Q30 205 30 138Q30 91 52.0 58.0Q74 25 110.5 7.5Q147 -10 189 -10Q227 -10 265.5 4.0Q304 18 330.5 47.0Q357 76 357 120L341 180Q341 144 323.5 116.5Q306 89 276.5 74.0Q247 59 210 59Q181 59 158.5 68.5Q136 78 123.5 97.0Q111 116 111 142ZM99 354Q110 362 129.0 373.0Q148 384 175.5 392.0Q203 400 237 400Q258 400 277.0 396.0Q296 392 310.5 383.0Q325 374 333.0 358.5Q341 343 341 319V0H421V330Q421 375 398.5 406.0Q376 437 335.5 453.5Q295 470 241 470Q177 470 131.5 451.0Q86 432 60 413Z" transform="translate(9110.00,0)"/><path d="M75 650Q75 628 91.5 611.5Q108 595 130 595Q153 595 169.0 611.5Q185 628 185 650Q185 673 169.0 689.0Q153 705 130 705Q108 705 91.5 689.0Q75 673 75 650ZM90 460V0H170V460Z" transform="translate(9591.00,0)"/><path d="M35 230Q35 161 66.5 106.5Q98 52 152.0 21.0Q206 -10 273 -10Q341 -10 394.5 21.0Q448 52 479.5 106.5Q511 161 511 230Q511 300 479.5 354.0Q448 408 394.5 439.0Q341 470 273 470Q206 470 152.0 439.0Q98 408 66.5 354.0Q35 300 35 230ZM116 230Q116 278 136.5 315.5Q157 353 192.5 374.0Q228 395 273 395Q318 395 353.5 374.0Q389 353 409.5 315.5Q430 278 430 230Q430 182 409.5 145.0Q389 108 353.5 86.5Q318 65 273 65Q228 65 192.5 86.5Q157 108 136.5 145.0Q116 182 116 230Z" transform="translate(9851.00,0)"/><path d="M70 780V0H150V780ZM320 460 120 270 340 0H440L220 270L420 460Z" transform="translate(10397.00,0)"/><path d="M111 142Q111 167 123.0 185.0Q135 203 159.5 213.0Q184 223 223 223Q265 223 302.0 212.5Q339 202 374 178V225Q367 234 347.0 248.5Q327 263 293.5 274.5Q260 286 210 286Q125 286 77.5 245.5Q30 205 30 138Q30 91 52.0 58.0Q74 25 110.5 7.5Q147 -10 189 -10Q227 -10 265.5 4.0Q304 18 330.5 47.0Q357 76 357 120L341 180Q341 144 323.5 116.5Q306 89 276.5 74.0Q247 59 210 59Q181 59 158.5 68.5Q136 78 123.5 97.0Q111 116 111 142ZM99 354Q110 362 129.0 373.0Q148 384 175.5 392.0Q203 400 237 400Q258 400 277.0 396.0Q296 392 310.5 383.0Q325 374 333.0 358.5Q341 343 341 319V0H421V330Q421 375 398.5 406.0Q376 437 335.5 453.5Q295 470 241 470Q177 470 131.5 451.0Q86 432 60 413Z" transform="translate(10837.00,0)"/><path d="M40 460V385H270V460ZM262 684 306 750Q299 760 286.5 769.0Q274 778 257.0 784.0Q240 790 218 790Q176 790 146.5 772.5Q117 755 101.0 720.0Q85 685 85 630V0H165V620Q165 653 171.0 673.0Q177 693 187.5 701.5Q198 710 213 710Q225 710 238.5 705.5Q252 701 262 684Z" transform="translate(11318.00,0)"/><path d="M70 780V0H150V780ZM320 460 120 270 340 0H440L220 270L420 460Z" transform="translate(11604.00,0)"/><path d="M111 142Q111 167 123.0 185.0Q135 203 159.5 213.0Q184 223 223 223Q265 223 302.0 212.5Q339 202 374 178V225Q367 234 347.0 248.5Q327 263 293.5 274.5Q260 286 210 286Q125 286 77.5 245.5Q30 205 30 138Q30 91 52.0 58.0Q74 25 110.5 7.5Q147 -10 189 -10Q227 -10 265.5 4.0Q304 18 330.5 47.0Q357 76 357 120L341 180Q341 144 323.5 116.5Q306 89 276.5 74.0Q247 59 210 59Q181 59 158.5 68.5Q136 78 123.5 97.0Q111 116 111 142ZM99 354Q110 362 129.0 373.0Q148 384 175.5 392.0Q203 400 237 400Q258 400 277.0 396.0Q296 392 310.5 383.0Q325 374 333.0 358.5Q341 343 341 319V0H421V330Q421 375 398.5 406.0Q376 437 335.5 453.5Q295 470 241 470Q177 470 131.5 451.0Q86 432 60 413Z" transform="translate(12044.00,0)"/></g></svg>
