<svg xmlns="http://www.w3.org/2000/svg" viewBox="0 0 100 100" role="img" aria-label="faststream-concurrent-aiokafka"><path d="M9 62 L9 9 L62 9" fill="none" stroke="#356852" stroke-width="11" stroke-linejoin="miter"/><rect x="55.0" y="2.0" width="14" height="14" rx="2" fill="#356852"/><polygon points="3.5,60.0 14.5,60.0 14.5,62.0 3.5,73.0" fill="#356852"/><path d="M91 38 L91 91 L38 91" fill="none" stroke="#c98a00" stroke-width="11" stroke-linejoin="miter"/><rect x="31.0" y="84.0" width="14" height="14" rx="2" fill="#c98a00"/><polygon points="96.5,40.0 85.5,40.0 85.5,38.0 96.5,27.0" fill="#c98a00"/><line x1="30.4" y1="37.4" x2="54.5" y2="37.4" stroke="#c98a00" stroke-width="3.4" stroke-linecap="round"/><polygon points="58.6,37.4 52.6,40.8 52.6,33.9" fill="#c98a00"/><line x1="30.4" y1="50.0" x2="65.4" y2="50.0" stroke="#c98a00" stroke-width="3.4" stroke-linecap="round"/><polygon points="69.5,50.0 63.6,53.5 63.6,46.5" fill="#c98a00"/><line x1="30.4" y1="62.6" x2="54.5" y2="62.6" stroke="#c98a00" stroke-width="3.4" stroke-linecap="round"/><polygon points="58.6,62.6 52.6,66.1 52.6,59.2" fill="#c98a00"/></svg>
