<svg xmlns="http://www.w3.org/2000/svg" viewBox="0 0 100 100" role="img" aria-label="modern-di-typer"><path d="M9 62 L9 9 L62 9" fill="none" stroke="#356852" stroke-width="11" stroke-linejoin="miter"/><rect x="55.0" y="2.0" width="14" height="14" rx="2" fill="#356852"/><polygon points="3.5,60.0 14.5,60.0 14.5,62.0 3.5,73.0" fill="#356852"/><path d="M91 38 L91 91 L38 91" fill="none" stroke="#c98a00" stroke-width="11" stroke-linejoin="miter"/><rect x="31.0" y="84.0" width="14" height="14" rx="2" fill="#c98a00"/><polygon points="96.5,40.0 85.5,40.0 85.5,38.0 96.5,27.0" fill="#c98a00"/><rect x="27.0" y="33.4" width="46.0" height="33.1" rx="4.6" fill="#c98a00"/><polygon points="33.9,42.2 38.5,42.2 47.7,49.3 47.7,50.7 38.5,57.8 33.9,57.8 41.7,50.0" fill="#f4f1e8"/><rect x="52.3" y="42.2" width="14.7" height="3.7" rx="1.5" fill="#f4f1e8"/><rect x="57.8" y="42.2" width="3.7" height="14.3" rx="1.5" fill="#f4f1e8"/></svg>
