<svg xmlns="http://www.w3.org/2000/svg" viewBox="0 0 100 100" role="img" aria-label="modern-di-faststream"><path d="M9 62 L9 9 L62 9" fill="none" stroke="#356852" stroke-width="11" stroke-linejoin="miter"/><rect x="55.0" y="2.0" width="14" height="14" rx="2" fill="#356852"/><polygon points="3.5,60.0 14.5,60.0 14.5,62.0 3.5,73.0" fill="#356852"/><path d="M91 38 L91 91 L38 91" fill="none" stroke="#c98a00" stroke-width="11" stroke-linejoin="miter"/><rect x="31.0" y="84.0" width="14" height="14" rx="2" fill="#c98a00"/><polygon points="96.5,40.0 85.5,40.0 85.5,38.0 96.5,27.0" fill="#c98a00"/><g transform="translate(23.2,25.8) scale(0.1045)"><path d="m499.61,356.87l-92.61-160.41-36.48-63.19-10.46,251.02c.07,2.86-.78,6.05-2.51,8.6-2.98,4.41-7.42,5.31-9.92,2.02l.02-.03-68.85-90.48-107.13,38.09v.04c-3.89,1.38-7.11-1.8-7.2-7.12-.05-3.08.97-6.22,2.6-8.57L327.1,58.07l-12.71-22.02c-25.95-44.94-90.82-44.94-116.77,0l-92.61,160.41L12.39,356.87c-25.95,44.94,6.49,101.12,58.38,101.12h370.45c51.9,0,84.33-56.18,58.38-101.12Z" fill="#c98a00"/></g></svg>
