<svg xmlns="http://www.w3.org/2000/svg" viewBox="0 0 100 100" role="img" aria-label="modern-di-flask"><path d="M9 62 L9 9 L62 9" fill="none" stroke="#356852" stroke-width="11" stroke-linejoin="miter"/><rect x="55.0" y="2.0" width="14" height="14" rx="2" fill="#356852"/><polygon points="3.5,60.0 14.5,60.0 14.5,62.0 3.5,73.0" fill="#356852"/><path d="M91 38 L91 91 L38 91" fill="none" stroke="#c98a00" stroke-width="11" stroke-linejoin="miter"/><rect x="31.0" y="84.0" width="14" height="14" rx="2" fill="#c98a00"/><polygon points="96.5,40.0 85.5,40.0 85.5,38.0 96.5,27.0" fill="#c98a00"/><g transform="translate(26.54,26.73) scale(0.0938)"><path d="M224.446,59.975c-0.056,-4.151 -0.483,-5.543 -2.7,-6.823c-2.104,-1.393 -5.288,-1.421 -8.329,-0.085l-204.674,87.64c-3.042,1.336 -5.913,4.008 -7.448,6.908c-1.535,2.899 -1.705,5.97 -0.511,8.158l17.084,31.384l0.228,0.369c1.847,2.928 6.026,3.696 10.29,1.82l1.251,-0.54c5.344,22.4 14.1,50.429 25.783,70.413l178.294,-79.794c-2.559,-23.14 -9.552,-89.602 -9.268,-119.479l0,0.029Z" fill="#c98a00"/><path d="M238.603,205.776l-171.698,76.838c10.091,19.132 22.542,39.428 37.722,58.986c50.429,-25.698 100.887,-51.396 151.316,-77.094c-3.269,-8.471 -6.452,-17.653 -17.34,-58.73Z" fill="#c98a00"/><path d="M497.601,388.846l-12.139,-18.535c-1.819,-2.018 -4.633,-2.786 -7.106,-1.791l-15.578,5.999c-1.848,-2.047 -4.52,-2.815 -7.135,-1.791c-5.089,1.99 -10.206,4.008 -15.294,5.998c-1.649,0.625 -2.104,1.847 -1.791,3.439l0.995,4.861c-28.711,3.099 -77.236,1.564 -120.701,-32.577c-19.216,-15.066 -37.239,-36.386 -52.277,-66.206l-144.75,73.768c26.466,29.08 59.697,54.864 100.973,70.385c57.422,21.633 130.593,23.679 222.838,-13.475l0.512,2.616c0.455,2.928 3.98,6.026 8.755,4.15l15.323,-5.97c5.258,-1.99 5.287,-6.026 4.519,-8.641l19.729,-7.704c2.217,-0.853 9.096,-6.169 3.183,-14.526l-0.056,-0Z" fill="#c98a00"/></g></svg>
