<svg xmlns="http://www.w3.org/2000/svg" viewBox="0 0 100 100" role="img" aria-label="faststream-outbox"><path d="M9 62 L9 9 L62 9" fill="none" stroke="#356852" stroke-width="11" stroke-linejoin="miter"/><rect x="55.0" y="2.0" width="14" height="14" rx="2" fill="#356852"/><polygon points="3.5,60.0 14.5,60.0 14.5,62.0 3.5,73.0" fill="#356852"/><path d="M91 38 L91 91 L38 91" fill="none" stroke="#c98a00" stroke-width="11" stroke-linejoin="miter"/><rect x="31.0" y="84.0" width="14" height="14" rx="2" fill="#c98a00"/><polygon points="96.5,40.0 85.5,40.0 85.5,38.0 96.5,27.0" fill="#c98a00"/><ellipse cx="43.56" cy="50.5" rx="8.3" ry="2.6" fill="#c98a00"/><rect x="35.3" y="50.5" width="16.6" height="11.9" fill="#c98a00"/><ellipse cx="43.56" cy="62.4" rx="8.3" ry="2.6" fill="#c98a00"/><ellipse cx="43.56" cy="50.5" rx="8.3" ry="2.6" fill="none" stroke="#f4f1e8" stroke-width="0.8"/><circle cx="50.0" cy="49.5" r="3.0" fill="#c98a00"/><path d="M58.3 49.5 A 8.3 8.3 0 0 0 50.0 41.3" fill="none" stroke="#c98a00" stroke-width="2.3"/><path d="M63.6 49.5 A 13.6 13.6 0 0 0 50.0 36.0" fill="none" stroke="#c98a00" stroke-width="2.3"/><path d="M68.9 49.5 A 18.9 18.9 0 0 0 50.0 30.7" fill="none" stroke="#c98a00" stroke-width="2.3"/></svg>
