<svg xmlns="http://www.w3.org/2000/svg" viewBox="0 0 251 100" role="img" aria-label="eof-fixer"><g><path d="M9 62 L9 9 L62 9" fill="none" stroke="#356852" stroke-width="11" stroke-linejoin="miter"/><rect x="55.0" y="2.0" width="14" height="14" rx="2" fill="#356852"/><polygon points="3.5,60.0 14.5,60.0 14.5,62.0 3.5,73.0" fill="#356852"/><path d="M91 38 L91 91 L38 91" fill="none" stroke="#c98a00" stroke-width="11" stroke-linejoin="miter"/><rect x="31.0" y="84.0" width="14" height="14" rx="2" fill="#c98a00"/><polygon points="96.5,40.0 85.5,40.0 85.5,38.0 96.5,27.0" fill="#c98a00"/><rect x="36.2" y="31.6" width="27.6" height="36.8" rx="3" fill="none" stroke="#c98a00" stroke-width="2.8"/><line x1="40.8" y1="38.5" x2="59.2" y2="38.5" stroke="#c98a00" stroke-width="2.3"/><line x1="40.8" y1="45.9" x2="59.2" y2="45.9" stroke="#c98a00" stroke-width="2.3"/><line x1="40.8" y1="53.2" x2="59.2" y2="53.2" stroke="#c98a00" stroke-width="2.3"/><line x1="45.4" y1="62.6" x2="60.4" y2="62.6" stroke="#c98a00" stroke-width="2.3"/><polygon points="45.4,62.6 50.2,59.9 50.2,65.4" fill="#c98a00"/></g><g fill="#356852" transform="translate(118.000,61.560) scale(0.034000,-0.034000)"><path d="M253 -10Q327 -10 381.5 19.5Q436 49 472 107L407 148Q382 106 346.0 85.5Q310 65 263 65Q216 65 183.0 85.0Q150 105 133.0 143.0Q116 181 116 235Q117 288 134.5 324.5Q152 361 184.5 380.5Q217 400 263 400Q302 400 331.0 383.0Q360 366 376.5 336.0Q393 306 393 265Q393 258 390.0 247.5Q387 237 384 232L416 278H86V210H479Q479 212 479.5 219.5Q480 227 480 234Q480 307 454.0 360.0Q428 413 379.5 441.5Q331 470 263 470Q195 470 143.5 440.0Q92 410 63.5 356.0Q35 302 35 230Q35 159 62.5 105.0Q90 51 139.5 20.5Q189 -10 253 -10Z" transform="translate(0.00,0)"/><path d="M35 230Q35 161 66.5 106.5Q98 52 152.0 21.0Q206 -10 273 -10Q341 -10 394.5 21.0Q448 52 479.5 106.5Q511 161 511 230Q511 300 479.5 354.0Q448 408 394.5 439.0Q341 470 273 470Q206 470 152.0 439.0Q98 408 66.5 354.0Q35 300 35 230ZM116 230Q116 278 136.5 315.5Q157 353 192.5 374.0Q228 395 273 395Q318 395 353.5 374.0Q389 353 409.5 315.5Q430 278 430 230Q430 182 409.5 145.0Q389 108 353.5 86.5Q318 65 273 65Q228 65 192.5 86.5Q157 108 136.5 145.0Q116 182 116 230Z" transform="translate(515.00,0)"/><path d="M40 460V385H270V460ZM262 684 306 750Q299 760 286.5 769.0Q274 778 257.0 784.0Q240 790 218 790Q176 790 146.5 772.5Q117 755 101.0 720.0Q85 685 85 630V0H165V620Q165 653 171.0 673.0Q177 693 187.5 701.5Q198 710 213 710Q225 710 238.5 705.5Q252 701 262 684Z" transform="translate(1061.00,0)"/><path d="M5 200H205V275H5Z" transform="translate(1347.00,0)"/><path d="M40 460V385H270V460ZM262 684 306 750Q299 760 286.5 769.0Q274 778 257.0 784.0Q240 790 218 790Q176 790 146.5 772.5Q117 755 101.0 720.0Q85 685 85 630V0H165V620Q165 653 171.0 673.0Q177 693 187.5 701.5Q198 710 213 710Q225 710 238.5 705.5Q252 701 262 684Z" transform="translate(1557.00,0)"/><path d="M75 650Q75 628 91.5 611.5Q108 595 130 595Q153 595 169.0 611.5Q185 628 185 650Q185 673 169.0 689.0Q153 705 130 705Q108 705 91.5 689.0Q75 673 75 650ZM90 460V0H170V460Z" transform="translate(1843.00,0)"/><path d="M320 460 210 300 100 460H10L167 237L0 0H90L210 174L330 0H420L253 237L410 460Z" transform="translate(2103.00,0)"/><path d="M253 -10Q327 -10 381.5 19.5Q436 49 472 107L407 148Q382 106 346.0 85.5Q310 65 263 65Q216 65 183.0 85.0Q150 105 133.0 143.0Q116 181 116 235Q117 288 134.5 324.5Q152 361 184.5 380.5Q217 400 263 400Q302 400 331.0 383.0Q360 366 376.5 336.0Q393 306 393 265Q393 258 390.0 247.5Q387 237 384 232L416 278H86V210H479Q479 212 479.5 219.5Q480 227 480 234Q480 307 454.0 360.0Q428 413 379.5 441.5Q331 470 263 470Q195 470 143.5 440.0Q92 410 63.5 356.0Q35 302 35 230Q35 159 62.5 105.0Q90 51 139.5 20.5Q189 -10 253 -10Z" transform="translate(2523.00,0)"/><path d="M155 460H75V0H155ZM294 372 338 438Q320 457 298.5 463.5Q277 470 252 470Q220 470 189.0 445.0Q158 420 138.5 377.5Q119 335 119 280H155Q155 313 161.5 339.0Q168 365 185.0 380.0Q202 395 232 395Q252 395 265.0 389.5Q278 384 294 372Z" transform="translate(3038.00,0)"/></g></svg>
