<svg xmlns="http://www.w3.org/2000/svg" viewBox="0 0 100 100" role="img" aria-label="eof-fixer"><path d="M9 62 L9 9 L62 9" fill="none" stroke="#356852" stroke-width="11" stroke-linejoin="miter"/><rect x="55.0" y="2.0" width="14" height="14" rx="2" fill="#356852"/><polygon points="3.5,60.0 14.5,60.0 14.5,62.0 3.5,73.0" fill="#356852"/><path d="M91 38 L91 91 L38 91" fill="none" stroke="#c98a00" stroke-width="11" stroke-linejoin="miter"/><rect x="31.0" y="84.0" width="14" height="14" rx="2" fill="#c98a00"/><polygon points="96.5,40.0 85.5,40.0 85.5,38.0 96.5,27.0" fill="#c98a00"/><rect x="36.2" y="31.6" width="27.6" height="36.8" rx="3" fill="none" stroke="#c98a00" stroke-width="2.8"/><line x1="40.8" y1="38.5" x2="59.2" y2="38.5" stroke="#c98a00" stroke-width="2.3"/><line x1="40.8" y1="45.9" x2="59.2" y2="45.9" stroke="#c98a00" stroke-width="2.3"/><line x1="40.8" y1="53.2" x2="59.2" y2="53.2" stroke="#c98a00" stroke-width="2.3"/><line x1="45.4" y1="62.6" x2="60.4" y2="62.6" stroke="#c98a00" stroke-width="2.3"/><polygon points="45.4,62.6 50.2,59.9 50.2,65.4" fill="#c98a00"/></svg>
