<svg xmlns="http://www.w3.org/2000/svg" viewBox="0 0 246 100" role="img" aria-label="db-retry"><g><path d="M9 62 L9 9 L62 9" fill="none" stroke="#f4f1e8" stroke-width="11" stroke-linejoin="miter"/><rect x="55.0" y="2.0" width="14" height="14" rx="2" fill="#f4f1e8"/><polygon points="3.5,60.0 14.5,60.0 14.5,62.0 3.5,73.0" fill="#f4f1e8"/><path d="M91 38 L91 91 L38 91" fill="none" stroke="#f0b528" stroke-width="11" stroke-linejoin="miter"/><rect x="31.0" y="84.0" width="14" height="14" rx="2" fill="#f0b528"/><polygon points="96.5,40.0 85.5,40.0 85.5,38.0 96.5,27.0" fill="#f0b528"/><ellipse cx="50" cy="44.6" rx="6.9" ry="2.2" fill="#f0b528"/><rect x="43.1" y="44.6" width="13.8" height="10.8" fill="#f0b528"/><ellipse cx="50" cy="55.4" rx="6.9" ry="2.2" fill="#f0b528"/><ellipse cx="50" cy="44.6" rx="6.4" ry="1.7" fill="none" stroke="#f4f1e8" stroke-width="0.8"/><path d="M55.5 29.6 A 21.2 21.2 0 0 1 61.2 67.9" fill="none" stroke="#f0b528" stroke-width="4.5" stroke-linecap="butt"/><polygon points="52.2,72.3 61.2,59.7 67.7,73.5" fill="#f0b528"/><path d="M44.5 70.4 A 21.2 21.2 0 0 1 38.8 32.1" fill="none" stroke="#f0b528" stroke-width="4.5" stroke-linecap="butt"/><polygon points="47.8,27.7 38.8,40.3 32.3,26.5" fill="#f0b528"/></g><g fill="#f4f1e8" transform="translate(118.000,61.560) scale(0.034000,-0.034000)"><path d="M420 780V0H500V780ZM35 230Q35 156 66.0 102.0Q97 48 149.0 19.0Q201 -10 263 -10Q321 -10 364.0 19.0Q407 48 431.5 102.0Q456 156 456 230Q456 305 431.5 358.5Q407 412 364.0 441.0Q321 470 263 470Q201 470 149.0 441.0Q97 412 66.0 358.5Q35 305 35 230ZM116 230Q116 283 137.5 320.0Q159 357 195.0 376.0Q231 395 273 395Q308 395 342.0 376.0Q376 357 398.0 320.0Q420 283 420 230Q420 177 398.0 140.0Q376 103 342.0 84.0Q308 65 273 65Q231 65 195.0 84.0Q159 103 137.5 140.0Q116 177 116 230Z" transform="translate(0.00,0)"/><path d="M150 780H70V0H150ZM535 230Q535 305 504.0 358.5Q473 412 421.5 441.0Q370 470 307 470Q250 470 206.5 441.0Q163 412 138.5 358.5Q114 305 114 230Q114 156 138.5 102.0Q163 48 206.5 19.0Q250 -10 307 -10Q370 -10 421.5 19.0Q473 48 504.0 102.0Q535 156 535 230ZM454 230Q454 177 432.5 140.0Q411 103 375.5 84.0Q340 65 297 65Q262 65 228.0 84.0Q194 103 172.0 140.0Q150 177 150 230Q150 283 172.0 320.0Q194 357 228.0 376.0Q262 395 297 395Q340 395 375.5 376.0Q411 357 432.5 320.0Q454 283 454 230Z" transform="translate(570.00,0)"/><path d="M5 200H205V275H5Z" transform="translate(1140.00,0)"/><path d="M155 460H75V0H155ZM294 372 338 438Q320 457 298.5 463.5Q277 470 252 470Q220 470 189.0 445.0Q158 420 138.5 377.5Q119 335 119 280H155Q155 313 161.5 339.0Q168 365 185.0 380.0Q202 395 232 395Q252 395 265.0 389.5Q278 384 294 372Z" transform="translate(1350.00,0)"/><path d="M253 -10Q327 -10 381.5 19.5Q436 49 472 107L407 148Q382 106 346.0 85.5Q310 65 263 65Q216 65 183.0 85.0Q150 105 133.0 143.0Q116 181 116 235Q117 288 134.5 324.5Q152 361 184.5 380.5Q217 400 263 400Q302 400 331.0 383.0Q360 366 376.5 336.0Q393 306 393 265Q393 258 390.0 247.5Q387 237 384 232L416 278H86V210H479Q479 212 479.5 219.5Q480 227 480 234Q480 307 454.0 360.0Q428 413 379.5 441.5Q331 470 263 470Q195 470 143.5 440.0Q92 410 63.5 356.0Q35 302 35 230Q35 159 62.5 105.0Q90 51 139.5 20.5Q189 -10 253 -10Z" transform="translate(1693.00,0)"/><path d="M5 460V385H235V460ZM80 620V0H160V620Z" transform="translate(2208.00,0)"/><path d="M155 460H75V0H155ZM294 372 338 438Q320 457 298.5 463.5Q277 470 252 470Q220 470 189.0 445.0Q158 420 138.5 377.5Q119 335 119 280H155Q155 313 161.5 339.0Q168 365 185.0 380.0Q202 395 232 395Q252 395 265.0 389.5Q278 384 294 372Z" transform="translate(2448.00,0)"/><path d="M440 460H350L208 104L241 100L95 460H0L176 65L50 -220H140Z" transform="translate(2791.00,0)"/></g></svg>
