<svg xmlns="http://www.w3.org/2000/svg" viewBox="0 0 100 100" role="img" aria-label="db-retry"><path d="M9 62 L9 9 L62 9" fill="none" stroke="#356852" stroke-width="11" stroke-linejoin="miter"/><rect x="55.0" y="2.0" width="14" height="14" rx="2" fill="#356852"/><polygon points="3.5,60.0 14.5,60.0 14.5,62.0 3.5,73.0" fill="#356852"/><path d="M91 38 L91 91 L38 91" fill="none" stroke="#c98a00" stroke-width="11" stroke-linejoin="miter"/><rect x="31.0" y="84.0" width="14" height="14" rx="2" fill="#c98a00"/><polygon points="96.5,40.0 85.5,40.0 85.5,38.0 96.5,27.0" fill="#c98a00"/><ellipse cx="50" cy="44.6" rx="6.9" ry="2.2" fill="#c98a00"/><rect x="43.1" y="44.6" width="13.8" height="10.8" fill="#c98a00"/><ellipse cx="50" cy="55.4" rx="6.9" ry="2.2" fill="#c98a00"/><ellipse cx="50" cy="44.6" rx="6.4" ry="1.7" fill="none" stroke="#f4f1e8" stroke-width="0.8"/><path d="M55.5 29.6 A 21.2 21.2 0 0 1 61.2 67.9" fill="none" stroke="#c98a00" stroke-width="4.5" stroke-linecap="butt"/><polygon points="52.2,72.3 61.2,59.7 67.7,73.5" fill="#c98a00"/><path d="M44.5 70.4 A 21.2 21.2 0 0 1 38.8 32.1" fill="none" stroke="#c98a00" stroke-width="4.5" stroke-linecap="butt"/><polygon points="47.8,27.7 38.8,40.3 32.3,26.5" fill="#c98a00"/></svg>
