<svg xmlns="http://www.w3.org/2000/svg" viewBox="0 0 319 100" role="img" aria-label="lite-bootstrap"><g><path d="M9 62 L9 9 L62 9" fill="none" stroke="#f4f1e8" stroke-width="11" stroke-linejoin="miter"/><rect x="55.0" y="2.0" width="14" height="14" rx="2" fill="#f4f1e8"/><polygon points="3.5,60.0 14.5,60.0 14.5,62.0 3.5,73.0" fill="#f4f1e8"/><path d="M91 38 L91 91 L38 91" fill="none" stroke="#f0b528" stroke-width="11" stroke-linejoin="miter"/><rect x="31.0" y="84.0" width="14" height="14" rx="2" fill="#f0b528"/><polygon points="96.5,40.0 85.5,40.0 85.5,38.0 96.5,27.0" fill="#f0b528"/><path d="M50 27 Q59.66 39.65 59.2 51.15 L58.28 59.66 L41.72 59.66 L40.8 51.15 Q40.34 39.65 50 27 Z" fill="#f0b528"/><polygon points="41.7,52.8 33.4,61.5 41.7,59.7" fill="#f0b528"/><polygon points="58.3,52.8 66.6,61.5 58.3,59.7" fill="#f0b528"/><circle cx="50" cy="43.6" r="3.7" fill="#f4f1e8"/><polygon points="45.9,59.7 54.1,59.7 50.0,68.4" fill="#f0b528"/></g><g fill="#f4f1e8" transform="translate(118.000,61.560) scale(0.034000,-0.034000)"><path d="M75 780V0H155V780Z" transform="translate(0.00,0)"/><path d="M75 650Q75 628 91.5 611.5Q108 595 130 595Q153 595 169.0 611.5Q185 628 185 650Q185 673 169.0 689.0Q153 705 130 705Q108 705 91.5 689.0Q75 673 75 650ZM90 460V0H170V460Z" transform="translate(230.00,0)"/><path d="M5 460V385H235V460ZM80 620V0H160V620Z" transform="translate(490.00,0)"/><path d="M253 -10Q327 -10 381.5 19.5Q436 49 472 107L407 148Q382 106 346.0 85.5Q310 65 263 65Q216 65 183.0 85.0Q150 105 133.0 143.0Q116 181 116 235Q117 288 134.5 324.5Q152 361 184.5 380.5Q217 400 263 400Q302 400 331.0 383.0Q360 366 376.5 336.0Q393 306 393 265Q393 258 390.0 247.5Q387 237 384 232L416 278H86V210H479Q479 212 479.5 219.5Q480 227 480 234Q480 307 454.0 360.0Q428 413 379.5 441.5Q331 470 263 470Q195 470 143.5 440.0Q92 410 63.5 356.0Q35 302 35 230Q35 159 62.5 105.0Q90 51 139.5 20.5Q189 -10 253 -10Z" transform="translate(730.00,0)"/><path d="M5 200H205V275H5Z" transform="translate(1245.00,0)"/><path d="M150 780H70V0H150ZM535 230Q535 305 504.0 358.5Q473 412 421.5 441.0Q370 470 307 470Q250 470 206.5 441.0Q163 412 138.5 358.5Q114 305 114 230Q114 156 138.5 102.0Q163 48 206.5 19.0Q250 -10 307 -10Q370 -10 421.5 19.0Q473 48 504.0 102.0Q535 156 535 230ZM454 230Q454 177 432.5 140.0Q411 103 375.5 84.0Q340 65 297 65Q262 65 228.0 84.0Q194 103 172.0 140.0Q150 177 150 230Q150 283 172.0 320.0Q194 357 228.0 376.0Q262 395 297 395Q340 395 375.5 376.0Q411 357 432.5 320.0Q454 283 454 230Z" transform="translate(1455.00,0)"/><path d="M35 230Q35 161 66.5 106.5Q98 52 152.0 21.0Q206 -10 273 -10Q341 -10 394.5 21.0Q448 52 479.5 106.5Q511 161 511 230Q511 300 479.5 354.0Q448 408 394.5 439.0Q341 470 273 470Q206 470 152.0 439.0Q98 408 66.5 354.0Q35 300 35 230ZM116 230Q116 278 136.5 315.5Q157 353 192.5 374.0Q228 395 273 395Q318 395 353.5 374.0Q389 353 409.5 315.5Q430 278 430 230Q430 182 409.5 145.0Q389 108 353.5 86.5Q318 65 273 65Q228 65 192.5 86.5Q157 108 136.5 145.0Q116 182 116 230Z" transform="translate(2025.00,0)"/><path d="M35 230Q35 161 66.5 106.5Q98 52 152.0 21.0Q206 -10 273 -10Q341 -10 394.5 21.0Q448 52 479.5 106.5Q511 161 511 230Q511 300 479.5 354.0Q448 408 394.5 439.0Q341 470 273 470Q206 470 152.0 439.0Q98 408 66.5 354.0Q35 300 35 230ZM116 230Q116 278 136.5 315.5Q157 353 192.5 374.0Q228 395 273 395Q318 395 353.5 374.0Q389 353 409.5 315.5Q430 278 430 230Q430 182 409.5 145.0Q389 108 353.5 86.5Q318 65 273 65Q228 65 192.5 86.5Q157 108 136.5 145.0Q116 182 116 230Z" transform="translate(2571.00,0)"/><path d="M5 460V385H235V460ZM80 620V0H160V620Z" transform="translate(3117.00,0)"/><path d="M94 141 31 102Q44 75 69.5 49.0Q95 23 132.0 6.5Q169 -10 215 -10Q286 -10 329.5 30.0Q373 70 373 130Q373 171 353.5 197.0Q334 223 301.0 241.5Q268 260 228 276Q204 286 182.0 297.0Q160 308 146.0 322.0Q132 336 132 354Q132 377 150.0 388.0Q168 399 193 399Q229 399 257.5 382.0Q286 365 305 339L369 380Q355 406 330.0 426.0Q305 446 272.5 458.0Q240 470 203 470Q166 470 131.5 457.0Q97 444 75.5 417.0Q54 390 54 349Q54 309 74.5 282.5Q95 256 125.5 239.5Q156 223 186 211Q213 201 237.0 189.5Q261 178 276.5 161.5Q292 145 292 121Q292 94 272.5 78.5Q253 63 219 63Q191 63 167.5 73.5Q144 84 126.0 102.0Q108 120 94 141Z" transform="translate(3357.00,0)"/><path d="M5 460V385H235V460ZM80 620V0H160V620Z" transform="translate(3760.00,0)"/><path d="M155 460H75V0H155ZM294 372 338 438Q320 457 298.5 463.5Q277 470 252 470Q220 470 189.0 445.0Q158 420 138.5 377.5Q119 335 119 280H155Q155 313 161.5 339.0Q168 365 185.0 380.0Q202 395 232 395Q252 395 265.0 389.5Q278 384 294 372Z" transform="translate(4000.00,0)"/><path d="M111 142Q111 167 123.0 185.0Q135 203 159.5 213.0Q184 223 223 223Q265 223 302.0 212.5Q339 202 374 178V225Q367 234 347.0 248.5Q327 263 293.5 274.5Q260 286 210 286Q125 286 77.5 245.5Q30 205 30 138Q30 91 52.0 58.0Q74 25 110.5 7.5Q147 -10 189 -10Q227 -10 265.5 4.0Q304 18 330.5 47.0Q357 76 357 120L341 180Q341 144 323.5 116.5Q306 89 276.5 74.0Q247 59 210 59Q181 59 158.5 68.5Q136 78 123.5 97.0Q111 116 111 142ZM99 354Q110 362 129.0 373.0Q148 384 175.5 392.0Q203 400 237 400Q258 400 277.0 396.0Q296 392 310.5 383.0Q325 374 333.0 358.5Q341 343 341 319V0H421V330Q421 375 398.5 406.0Q376 437 335.5 453.5Q295 470 241 470Q177 470 131.5 451.0Q86 432 60 413Z" transform="translate(4343.00,0)"/><path d="M150 -220V460H70V-220ZM535 230Q535 305 504.0 358.5Q473 412 421.5 441.0Q370 470 307 470Q250 470 206.5 441.0Q163 412 138.5 358.5Q114 305 114 230Q114 156 138.5 102.0Q163 48 206.5 19.0Q250 -10 307 -10Q370 -10 421.5 19.0Q473 48 504.0 102.0Q535 156 535 230ZM454 230Q454 177 432.5 140.0Q411 103 375.5 84.0Q340 65 297 65Q262 65 228.0 84.0Q194 103 172.0 140.0Q150 177 150 230Q150 283 172.0 320.0Q194 357 228.0 376.0Q262 395 297 395Q340 395 375.5 376.0Q411 357 432.5 320.0Q454 283 454 230Z" transform="translate(4824.00,0)"/></g></svg>
