<svg xmlns="http://www.w3.org/2000/svg" viewBox="0 0 100 100" role="img" aria-label="lite-bootstrap"><path d="M9 62 L9 9 L62 9" fill="none" stroke="#356852" stroke-width="11" stroke-linejoin="miter"/><rect x="55.0" y="2.0" width="14" height="14" rx="2" fill="#356852"/><polygon points="3.5,60.0 14.5,60.0 14.5,62.0 3.5,73.0" fill="#356852"/><path d="M91 38 L91 91 L38 91" fill="none" stroke="#c98a00" stroke-width="11" stroke-linejoin="miter"/><rect x="31.0" y="84.0" width="14" height="14" rx="2" fill="#c98a00"/><polygon points="96.5,40.0 85.5,40.0 85.5,38.0 96.5,27.0" fill="#c98a00"/><path d="M50 27 Q59.66 39.65 59.2 51.15 L58.28 59.66 L41.72 59.66 L40.8 51.15 Q40.34 39.65 50 27 Z" fill="#c98a00"/><polygon points="41.7,52.8 33.4,61.5 41.7,59.7" fill="#c98a00"/><polygon points="58.3,52.8 66.6,61.5 58.3,59.7" fill="#c98a00"/><circle cx="50" cy="43.6" r="3.7" fill="#f4f1e8"/><polygon points="45.9,59.7 54.1,59.7 50.0,68.4" fill="#c98a00"/></svg>
