<svg xmlns="http://www.w3.org/2000/svg" viewBox="0 0 100 100" role="img" aria-label="modern-di"><g fill="none" stroke-linecap="round" stroke-linejoin="round"><g stroke="#3f8064" stroke-width="8"><path d="M20 35 L20 65 Q20 80 35 80 L65 80 Q80 80 80 65 L80 35 Q80 20 65 20 L35 20"/><circle cx="35" cy="20" r="5.5" fill="#3f8064" stroke="none"/></g></g><g fill="#e0a300" transform="translate(32.000,59.450) scale(0.03000,-0.03000)"><path d="M259 -10Q177 -10 128.0 46.0Q79 102 79 197V352Q79 448 128.0 504.0Q177 560 259 560Q318 560 358.5 530.0Q399 500 411 446L408 573V730H516V0H409V104Q398 50 358.5 20.0Q319 -10 259 -10ZM297 84Q349 84 378.5 115.5Q408 147 408 205V346Q408 403 378.5 434.5Q349 466 297 466Q245 466 216.0 438.5Q187 411 187 351V200Q187 139 216.0 111.5Q245 84 297 84Z" transform="translate(0,0)"/><path d="M81 0V98H272V452H101V550H380V98H557V0ZM317 645Q282 645 261.0 663.5Q240 682 240 713Q240 745 261.0 763.5Q282 782 317 782Q352 782 373.0 763.5Q394 745 394 713Q394 682 373.0 663.5Q352 645 317 645Z" transform="translate(600,0)"/></g></svg>
