<svg xmlns="http://www.w3.org/2000/svg" viewBox="0 0 142.8 140" role="img" aria-label="modern-di"><svg x="23.400000000000006" y="0" width="96" height="96" viewBox="0 0 100 100"><g fill="none" stroke-linecap="round" stroke-linejoin="round"><g stroke="#3f8064" stroke-width="8"><path d="M20 35 L20 65 Q20 80 35 80 L65 80 Q80 80 80 65 L80 35 Q80 20 65 20 L35 20"/><circle cx="35" cy="20" r="5.5" fill="#3f8064" stroke="none"/></g></g><g fill="#e0a300" transform="translate(32.000,59.450) scale(0.03000,-0.03000)"><path d="M259 -10Q177 -10 128.0 46.0Q79 102 79 197V352Q79 448 128.0 504.0Q177 560 259 560Q318 560 358.5 530.0Q399 500 411 446L408 573V730H516V0H409V104Q398 50 358.5 20.0Q319 -10 259 -10ZM297 84Q349 84 378.5 115.5Q408 147 408 205V346Q408 403 378.5 434.5Q349 466 297 466Q245 466 216.0 438.5Q187 411 187 351V200Q187 139 216.0 111.5Q245 84 297 84Z" transform="translate(0,0)"/><path d="M81 0V98H272V452H101V550H380V98H557V0ZM317 645Q282 645 261.0 663.5Q240 682 240 713Q240 745 261.0 763.5Q282 782 317 782Q352 782 373.0 763.5Q394 745 394 713Q394 682 373.0 663.5Q352 645 317 645Z" transform="translate(600,0)"/></g></svg><g fill="#3f8064" transform="translate(12.000,128.000) scale(0.02200,-0.02200)"><path d="M53 0V550H145V473H147Q151 512 176.0 536.0Q201 560 239 560Q275 560 300.5 537.5Q326 515 336 477Q342 515 367.0 537.5Q392 560 431 560Q482 560 514.5 520.5Q547 481 547 419V0H449V414Q449 444 435.0 461.5Q421 479 396 479Q371 479 357.5 462.0Q344 445 344 415V0H256V414Q256 444 242.5 461.5Q229 479 204 479Q179 479 165.0 462.0Q151 445 151 415V0Z" transform="translate(0,0)"/><path d="M300 -9Q198 -9 137.5 50.0Q77 109 77 211V339Q77 442 137.0 500.5Q197 559 300 559Q403 559 463.0 500.5Q523 442 523 339V211Q523 109 462.5 50.0Q402 -9 300 -9ZM300 86Q354 86 384.5 116.5Q415 147 415 204V346Q415 403 384.5 433.5Q354 464 300 464Q246 464 215.5 433.5Q185 403 185 346V204Q185 147 215.5 116.5Q246 86 300 86Z" transform="translate(600,0)"/><path d="M259 -10Q177 -10 128.0 46.0Q79 102 79 197V352Q79 448 128.0 504.0Q177 560 259 560Q318 560 358.5 530.0Q399 500 411 446L408 573V730H516V0H409V104Q398 50 358.5 20.0Q319 -10 259 -10ZM297 84Q349 84 378.5 115.5Q408 147 408 205V346Q408 403 378.5 434.5Q349 466 297 466Q245 466 216.0 438.5Q187 411 187 351V200Q187 139 216.0 111.5Q245 84 297 84Z" transform="translate(1200,0)"/><path d="M300 -10Q199 -10 138.0 49.0Q77 108 77 210V340Q77 442 138.0 501.0Q199 560 300 560Q368 560 418.0 533.5Q468 507 495.5 459.0Q523 411 523 347V248H181V203Q181 145 213.0 113.0Q245 81 300 81Q345 81 375.0 97.5Q405 114 411 143H518Q507 73 447.5 31.5Q388 -10 300 -10ZM181 347V324H419V348Q419 409 388.0 442.0Q357 475 300 475Q243 475 212.0 441.5Q181 408 181 347Z" transform="translate(1800,0)"/><path d="M104 0V550H211V442Q219 497 258.0 528.5Q297 560 361 560Q446 560 493.0 507.0Q540 454 540 358V309H432V355Q432 466 323 466Q269 466 240.5 434.5Q212 403 212 343V0Z" transform="translate(2400,0)"/><path d="M84 0V550H191V445Q199 499 237.5 529.5Q276 560 338 560Q420 560 469.0 507.5Q518 455 518 366V0H410V350Q410 407 381.0 437.5Q352 468 302 468Q251 468 221.5 436.0Q192 404 192 347V0Z" transform="translate(3000,0)"/><path d="M140 281V379H460V281Z" transform="translate(3600,0)"/><path d="M259 -10Q177 -10 128.0 46.0Q79 102 79 197V352Q79 448 128.0 504.0Q177 560 259 560Q318 560 358.5 530.0Q399 500 411 446L408 573V730H516V0H409V104Q398 50 358.5 20.0Q319 -10 259 -10ZM297 84Q349 84 378.5 115.5Q408 147 408 205V346Q408 403 378.5 434.5Q349 466 297 466Q245 466 216.0 438.5Q187 411 187 351V200Q187 139 216.0 111.5Q245 84 297 84Z" transform="translate(4200,0)"/><path d="M81 0V98H272V452H101V550H380V98H557V0ZM317 645Q282 645 261.0 663.5Q240 682 240 713Q240 745 261.0 763.5Q282 782 317 782Q352 782 373.0 763.5Q394 745 394 713Q394 682 373.0 663.5Q352 645 317 645Z" transform="translate(4800,0)"/></g></svg>
