<svg xmlns="http://www.w3.org/2000/svg" viewBox="0 0 100 100" role="img" aria-label="modern-di-starlette"><path d="M9 62 L9 9 L62 9" fill="none" stroke="#356852" stroke-width="11" stroke-linejoin="miter"/><rect x="55.0" y="2.0" width="14" height="14" rx="2" fill="#356852"/><polygon points="3.5,60.0 14.5,60.0 14.5,62.0 3.5,73.0" fill="#356852"/><path d="M91 38 L91 91 L38 91" fill="none" stroke="#c98a00" stroke-width="11" stroke-linejoin="miter"/><rect x="31.0" y="84.0" width="14" height="14" rx="2" fill="#c98a00"/><polygon points="96.5,40.0 85.5,40.0 85.5,38.0 96.5,27.0" fill="#c98a00"/><polygon points="46.0,34.1 50.5,48.5 64.9,53.0 50.5,57.5 46.0,71.8 41.5,57.5 27.1,53.0 41.5,48.5" fill="#c98a00"/><polygon points="63.0,29.7 65.0,36.0 71.3,38.0 65.0,40.0 63.0,46.3 61.0,40.0 54.7,38.0 61.0,36.0" fill="#c98a00"/></svg>
