<svg xmlns="http://www.w3.org/2000/svg" viewBox="0 0 100 100" role="img" aria-label="modern-di-arq"><path d="M9 62 L9 9 L62 9" fill="none" stroke="#356852" stroke-width="11" stroke-linejoin="miter"/><rect x="55.0" y="2.0" width="14" height="14" rx="2" fill="#356852"/><polygon points="3.5,60.0 14.5,60.0 14.5,62.0 3.5,73.0" fill="#356852"/><path d="M91 38 L91 91 L38 91" fill="none" stroke="#c98a00" stroke-width="11" stroke-linejoin="miter"/><rect x="31.0" y="84.0" width="14" height="14" rx="2" fill="#c98a00"/><polygon points="96.5,40.0 85.5,40.0 85.5,38.0 96.5,27.0" fill="#c98a00"/><rect x="34.1" y="29.5" width="7.8" height="7.8" rx="1.4" fill="#c98a00"/><rect x="46.1" y="29.5" width="7.8" height="7.8" rx="1.4" fill="#c98a00"/><rect x="58.0" y="29.5" width="7.8" height="7.8" rx="1.4" fill="#c98a00"/><polygon points="30.2,43.1 69.8,43.1 54.6,57.8 45.4,57.8" fill="#c98a00"/><rect x="46.1" y="63.6" width="7.8" height="7.8" rx="1.4" fill="#c98a00"/></svg>
