<svg xmlns="http://www.w3.org/2000/svg" viewBox="0 0 100 100" role="img" aria-label="modern-di-fastapi"><g fill="none" stroke-linecap="round" stroke-linejoin="round"><g stroke="#356852" stroke-width="8"><path d="M20 35 L20 65 Q20 80 35 80 L65 80 Q80 80 80 65 L80 35 Q80 20 65 20 L35 20"/><circle cx="35" cy="20" r="5.5" fill="#356852" stroke="none"/></g></g><g fill="#009688" transform="translate(32.000,59.450) scale(0.03000,-0.03000)"><path d="M208 0V377H52V475H208V581Q208 650 252.0 690.0Q296 730 372 730H533V634H374Q316 634 316 580V475H533V377H316V0Z" transform="translate(0,0)"/><path d="M245 -10Q161 -10 111.5 37.5Q62 85 62 162Q62 240 115.0 287.5Q168 335 256 335H408V375Q408 470 301 470Q253 470 224.0 452.0Q195 434 193 402H87Q92 471 149.0 515.5Q206 560 302 560Q404 560 460.0 511.5Q516 463 516 376V0H410V103H409Q402 50 359.0 20.0Q316 -10 245 -10ZM276 79Q337 79 372.5 108.5Q408 138 408 188V259H264Q221 259 195.5 234.0Q170 209 170 170Q170 128 198.0 103.5Q226 79 276 79Z" transform="translate(600,0)"/></g></svg>
