<svg xmlns="http://www.w3.org/2000/svg" viewBox="0 0 258 100" role="img" aria-label="httpware"><g><path d="M9 62 L9 9 L62 9" fill="none" stroke="#356852" stroke-width="11" stroke-linejoin="miter"/><rect x="55.0" y="2.0" width="14" height="14" rx="2" fill="#356852"/><polygon points="3.5,60.0 14.5,60.0 14.5,62.0 3.5,73.0" fill="#356852"/><path d="M91 38 L91 91 L38 91" fill="none" stroke="#c98a00" stroke-width="11" stroke-linejoin="miter"/><rect x="31.0" y="84.0" width="14" height="14" rx="2" fill="#c98a00"/><polygon points="96.5,40.0 85.5,40.0 85.5,38.0 96.5,27.0" fill="#c98a00"/><rect x="30.4" y="43.1" width="20.7" height="13.8" rx="6.9" fill="none" stroke="#c98a00" stroke-width="4.6"/><rect x="48.9" y="43.1" width="20.7" height="13.8" rx="6.9" fill="none" stroke="#c98a00" stroke-width="4.6"/></g><g fill="#356852" transform="translate(118.000,61.560) scale(0.034000,-0.034000)"><path d="M155 780H75V0H155ZM370 280V0H450V290Q450 350 430.5 390.0Q411 430 375.5 450.0Q340 470 292 470Q244 470 207.5 445.0Q171 420 150.0 377.5Q129 335 129 280H155Q155 313 169.5 339.0Q184 365 210.5 380.0Q237 395 272 395Q321 395 345.5 366.0Q370 337 370 280Z" transform="translate(0.00,0)"/><path d="M5 460V385H235V460ZM80 620V0H160V620Z" transform="translate(525.00,0)"/><path d="M5 460V385H235V460ZM80 620V0H160V620Z" transform="translate(765.00,0)"/><path d="M150 -220V460H70V-220ZM535 230Q535 305 504.0 358.5Q473 412 421.5 441.0Q370 470 307 470Q250 470 206.5 441.0Q163 412 138.5 358.5Q114 305 114 230Q114 156 138.5 102.0Q163 48 206.5 19.0Q250 -10 307 -10Q370 -10 421.5 19.0Q473 48 504.0 102.0Q535 156 535 230ZM454 230Q454 177 432.5 140.0Q411 103 375.5 84.0Q340 65 297 65Q262 65 228.0 84.0Q194 103 172.0 140.0Q150 177 150 230Q150 283 172.0 320.0Q194 357 228.0 376.0Q262 395 297 395Q340 395 375.5 376.0Q411 357 432.5 320.0Q454 283 454 230Z" transform="translate(1005.00,0)"/><path d="M5 460 205 -35 336 300 475 -35 675 460H585L469 159L335 495L210 161L95 460Z" transform="translate(1575.00,0)"/><path d="M111 142Q111 167 123.0 185.0Q135 203 159.5 213.0Q184 223 223 223Q265 223 302.0 212.5Q339 202 374 178V225Q367 234 347.0 248.5Q327 263 293.5 274.5Q260 286 210 286Q125 286 77.5 245.5Q30 205 30 138Q30 91 52.0 58.0Q74 25 110.5 7.5Q147 -10 189 -10Q227 -10 265.5 4.0Q304 18 330.5 47.0Q357 76 357 120L341 180Q341 144 323.5 116.5Q306 89 276.5 74.0Q247 59 210 59Q181 59 158.5 68.5Q136 78 123.5 97.0Q111 116 111 142ZM99 354Q110 362 129.0 373.0Q148 384 175.5 392.0Q203 400 237 400Q258 400 277.0 396.0Q296 392 310.5 383.0Q325 374 333.0 358.5Q341 343 341 319V0H421V330Q421 375 398.5 406.0Q376 437 335.5 453.5Q295 470 241 470Q177 470 131.5 451.0Q86 432 60 413Z" transform="translate(2255.00,0)"/><path d="M155 460H75V0H155ZM294 372 338 438Q320 457 298.5 463.5Q277 470 252 470Q220 470 189.0 445.0Q158 420 138.5 377.5Q119 335 119 280H155Q155 313 161.5 339.0Q168 365 185.0 380.0Q202 395 232 395Q252 395 265.0 389.5Q278 384 294 372Z" transform="translate(2736.00,0)"/><path d="M253 -10Q327 -10 381.5 19.5Q436 49 472 107L407 148Q382 106 346.0 85.5Q310 65 263 65Q216 65 183.0 85.0Q150 105 133.0 143.0Q116 181 116 235Q117 288 134.5 324.5Q152 361 184.5 380.5Q217 400 263 400Q302 400 331.0 383.0Q360 366 376.5 336.0Q393 306 393 265Q393 258 390.0 247.5Q387 237 384 232L416 278H86V210H479Q479 212 479.5 219.5Q480 227 480 234Q480 307 454.0 360.0Q428 413 379.5 441.5Q331 470 263 470Q195 470 143.5 440.0Q92 410 63.5 356.0Q35 302 35 230Q35 159 62.5 105.0Q90 51 139.5 20.5Q189 -10 253 -10Z" transform="translate(3079.00,0)"/></g></svg>
