<svg xmlns="http://www.w3.org/2000/svg" viewBox="0 0 1280 640" role="img" aria-label="httpware — HTTP client framework with sync/async clients, middleware chain, and built-in resilience (retry, bulkhead)"><rect width="460" height="640" fill="#2f5e4a"/><rect x="460" width="820" height="640" fill="#f4f1e8"/><g transform="translate(80,170) scale(3.0)"><path d="M9 62 L9 9 L62 9" fill="none" stroke="#f4f1e8" stroke-width="11" stroke-linejoin="miter"/><rect x="55.0" y="2.0" width="14" height="14" rx="2" fill="#f4f1e8"/><polygon points="3.5,60.0 14.5,60.0 14.5,62.0 3.5,73.0" fill="#f4f1e8"/><path d="M91 38 L91 91 L38 91" fill="none" stroke="#f0b528" stroke-width="11" stroke-linejoin="miter"/><rect x="31.0" y="84.0" width="14" height="14" rx="2" fill="#f0b528"/><polygon points="96.5,40.0 85.5,40.0 85.5,38.0 96.5,27.0" fill="#f0b528"/><rect x="30.4" y="43.1" width="20.7" height="13.8" rx="6.9" fill="none" stroke="#c98a00" stroke-width="4.6"/><rect x="48.9" y="43.1" width="20.7" height="13.8" rx="6.9" fill="none" stroke="#c98a00" stroke-width="4.6"/></g><g fill="#356852" transform="translate(520.000,250.000) scale(0.074000,-0.074000)"><path d="M155 780H75V0H155ZM370 280V0H450V290Q450 350 430.5 390.0Q411 430 375.5 450.0Q340 470 292 470Q244 470 207.5 445.0Q171 420 150.0 377.5Q129 335 129 280H155Q155 313 169.5 339.0Q184 365 210.5 380.0Q237 395 272 395Q321 395 345.5 366.0Q370 337 370 280Z" transform="translate(0.00,0)"/><path d="M5 460V385H235V460ZM80 620V0H160V620Z" transform="translate(525.00,0)"/><path d="M5 460V385H235V460ZM80 620V0H160V620Z" transform="translate(765.00,0)"/><path d="M150 -220V460H70V-220ZM535 230Q535 305 504.0 358.5Q473 412 421.5 441.0Q370 470 307 470Q250 470 206.5 441.0Q163 412 138.5 358.5Q114 305 114 230Q114 156 138.5 102.0Q163 48 206.5 19.0Q250 -10 307 -10Q370 -10 421.5 19.0Q473 48 504.0 102.0Q535 156 535 230ZM454 230Q454 177 432.5 140.0Q411 103 375.5 84.0Q340 65 297 65Q262 65 228.0 84.0Q194 103 172.0 140.0Q150 177 150 230Q150 283 172.0 320.0Q194 357 228.0 376.0Q262 395 297 395Q340 395 375.5 376.0Q411 357 432.5 320.0Q454 283 454 230Z" transform="translate(1005.00,0)"/><path d="M5 460 205 -35 336 300 475 -35 675 460H585L469 159L335 495L210 161L95 460Z" transform="translate(1575.00,0)"/><path d="M111 142Q111 167 123.0 185.0Q135 203 159.5 213.0Q184 223 223 223Q265 223 302.0 212.5Q339 202 374 178V225Q367 234 347.0 248.5Q327 263 293.5 274.5Q260 286 210 286Q125 286 77.5 245.5Q30 205 30 138Q30 91 52.0 58.0Q74 25 110.5 7.5Q147 -10 189 -10Q227 -10 265.5 4.0Q304 18 330.5 47.0Q357 76 357 120L341 180Q341 144 323.5 116.5Q306 89 276.5 74.0Q247 59 210 59Q181 59 158.5 68.5Q136 78 123.5 97.0Q111 116 111 142ZM99 354Q110 362 129.0 373.0Q148 384 175.5 392.0Q203 400 237 400Q258 400 277.0 396.0Q296 392 310.5 383.0Q325 374 333.0 358.5Q341 343 341 319V0H421V330Q421 375 398.5 406.0Q376 437 335.5 453.5Q295 470 241 470Q177 470 131.5 451.0Q86 432 60 413Z" transform="translate(2255.00,0)"/><path d="M155 460H75V0H155ZM294 372 338 438Q320 457 298.5 463.5Q277 470 252 470Q220 470 189.0 445.0Q158 420 138.5 377.5Q119 335 119 280H155Q155 313 161.5 339.0Q168 365 185.0 380.0Q202 395 232 395Q252 395 265.0 389.5Q278 384 294 372Z" transform="translate(2736.00,0)"/><path d="M253 -10Q327 -10 381.5 19.5Q436 49 472 107L407 148Q382 106 346.0 85.5Q310 65 263 65Q216 65 183.0 85.0Q150 105 133.0 143.0Q116 181 116 235Q117 288 134.5 324.5Q152 361 184.5 380.5Q217 400 263 400Q302 400 331.0 383.0Q360 366 376.5 336.0Q393 306 393 265Q393 258 390.0 247.5Q387 237 384 232L416 278H86V210H479Q479 212 479.5 219.5Q480 227 480 234Q480 307 454.0 360.0Q428 413 379.5 441.5Q331 470 263 470Q195 470 143.5 440.0Q92 410 63.5 356.0Q35 302 35 230Q35 159 62.5 105.0Q90 51 139.5 20.5Q189 -10 253 -10Z" transform="translate(3079.00,0)"/></g><g fill="#5b6f63" transform="translate(520.000,314.000) scale(0.030000,-0.030000)"><path d="M127 340H607V420H127ZM550 700V0H635V700ZM80 700V0H165V700Z" transform="translate(0.00,0)"/><path d="M10 620H190V0H275V620H455V700H10Z" transform="translate(715.00,0)"/><path d="M10 620H190V0H275V620H455V700H10Z" transform="translate(1180.00,0)"/><path d="M80 700V0H165V700ZM127 620H270Q338 620 380.5 587.5Q423 555 423 490Q423 426 380.5 393.0Q338 360 270 360H127V280H270Q338 280 391.5 305.5Q445 331 476.5 378.5Q508 426 508 490Q508 555 476.5 602.0Q445 649 391.5 674.5Q338 700 270 700H127Z" transform="translate(1645.00,0)"/><path d="M111 230Q111 278 131.5 315.5Q152 353 187.5 374.0Q223 395 268 395Q305 395 337.5 383.5Q370 372 394.0 353.0Q418 334 428 311V411Q404 439 359.5 454.5Q315 470 268 470Q201 470 147.0 439.0Q93 408 61.5 354.0Q30 300 30 230Q30 161 61.5 106.5Q93 52 147.0 21.0Q201 -10 268 -10Q315 -10 359.5 5.5Q404 21 428 49V149Q418 127 394.0 107.5Q370 88 337.5 76.5Q305 65 268 65Q223 65 187.5 86.5Q152 108 131.5 145.0Q111 182 111 230Z" transform="translate(2493.00,0)"/><path d="M75 780V0H155V780Z" transform="translate(2971.00,0)"/><path d="M75 650Q75 628 91.5 611.5Q108 595 130 595Q153 595 169.0 611.5Q185 628 185 650Q185 673 169.0 689.0Q153 705 130 705Q108 705 91.5 689.0Q75 673 75 650ZM90 460V0H170V460Z" transform="translate(3201.00,0)"/><path d="M253 -10Q327 -10 381.5 19.5Q436 49 472 107L407 148Q382 106 346.0 85.5Q310 65 263 65Q216 65 183.0 85.0Q150 105 133.0 143.0Q116 181 116 235Q117 288 134.5 324.5Q152 361 184.5 380.5Q217 400 263 400Q302 400 331.0 383.0Q360 366 376.5 336.0Q393 306 393 265Q393 258 390.0 247.5Q387 237 384 232L416 278H86V210H479Q479 212 479.5 219.5Q480 227 480 234Q480 307 454.0 360.0Q428 413 379.5 441.5Q331 470 263 470Q195 470 143.5 440.0Q92 410 63.5 356.0Q35 302 35 230Q35 159 62.5 105.0Q90 51 139.5 20.5Q189 -10 253 -10Z" transform="translate(3461.00,0)"/><path d="M370 280V0H450V290Q450 373 407.5 421.5Q365 470 292 470Q247 470 212.5 450.0Q178 430 155 388V460H75V0H155V280Q155 314 169.5 340.0Q184 366 210.5 380.5Q237 395 272 395Q320 395 345.0 366.0Q370 337 370 280Z" transform="translate(3976.00,0)"/><path d="M5 460V385H235V460ZM80 620V0H160V620Z" transform="translate(4501.00,0)"/><path d="M40 460V385H270V460ZM262 684 306 750Q299 760 286.5 769.0Q274 778 257.0 784.0Q240 790 218 790Q176 790 146.5 772.5Q117 755 101.0 720.0Q85 685 85 630V0H165V620Q165 653 171.0 673.0Q177 693 187.5 701.5Q198 710 213 710Q225 710 238.5 705.5Q252 701 262 684Z" transform="translate(5041.00,0)"/><path d="M155 460H75V0H155ZM294 372 338 438Q320 457 298.5 463.5Q277 470 252 470Q220 470 189.0 445.0Q158 420 138.5 377.5Q119 335 119 280H155Q155 313 161.5 339.0Q168 365 185.0 380.0Q202 395 232 395Q252 395 265.0 389.5Q278 384 294 372Z" transform="translate(5327.00,0)"/><path d="M111 142Q111 167 123.0 185.0Q135 203 159.5 213.0Q184 223 223 223Q265 223 302.0 212.5Q339 202 374 178V225Q367 234 347.0 248.5Q327 263 293.5 274.5Q260 286 210 286Q125 286 77.5 245.5Q30 205 30 138Q30 91 52.0 58.0Q74 25 110.5 7.5Q147 -10 189 -10Q227 -10 265.5 4.0Q304 18 330.5 47.0Q357 76 357 120L341 180Q341 144 323.5 116.5Q306 89 276.5 74.0Q247 59 210 59Q181 59 158.5 68.5Q136 78 123.5 97.0Q111 116 111 142ZM99 354Q110 362 129.0 373.0Q148 384 175.5 392.0Q203 400 237 400Q258 400 277.0 396.0Q296 392 310.5 383.0Q325 374 333.0 358.5Q341 343 341 319V0H421V330Q421 375 398.5 406.0Q376 437 335.5 453.5Q295 470 241 470Q177 470 131.5 451.0Q86 432 60 413Z" transform="translate(5670.00,0)"/><path d="M705 290Q705 347 687.5 387.5Q670 428 637.0 449.0Q604 470 557 470Q511 470 475.0 448.5Q439 427 415 384Q399 425 364.5 447.5Q330 470 282 470Q239 470 207.5 451.0Q176 432 155 393V460H75V0H155V280Q155 316 168.0 342.0Q181 368 205.0 381.5Q229 395 262 395Q307 395 328.5 367.0Q350 339 350 280V0H430V280Q430 316 443.0 342.0Q456 368 480.0 381.5Q504 395 537 395Q582 395 603.5 367.0Q625 339 625 280V0H705Z" transform="translate(6151.00,0)"/><path d="M253 -10Q327 -10 381.5 19.5Q436 49 472 107L407 148Q382 106 346.0 85.5Q310 65 263 65Q216 65 183.0 85.0Q150 105 133.0 143.0Q116 181 116 235Q117 288 134.5 324.5Q152 361 184.5 380.5Q217 400 263 400Q302 400 331.0 383.0Q360 366 376.5 336.0Q393 306 393 265Q393 258 390.0 247.5Q387 237 384 232L416 278H86V210H479Q479 212 479.5 219.5Q480 227 480 234Q480 307 454.0 360.0Q428 413 379.5 441.5Q331 470 263 470Q195 470 143.5 440.0Q92 410 63.5 356.0Q35 302 35 230Q35 159 62.5 105.0Q90 51 139.5 20.5Q189 -10 253 -10Z" transform="translate(6931.00,0)"/><path d="M5 460 205 -35 336 300 475 -35 675 460H585L469 159L335 495L210 161L95 460Z" transform="translate(7446.00,0)"/><path d="M35 230Q35 161 66.5 106.5Q98 52 152.0 21.0Q206 -10 273 -10Q341 -10 394.5 21.0Q448 52 479.5 106.5Q511 161 511 230Q511 300 479.5 354.0Q448 408 394.5 439.0Q341 470 273 470Q206 470 152.0 439.0Q98 408 66.5 354.0Q35 300 35 230ZM116 230Q116 278 136.5 315.5Q157 353 192.5 374.0Q228 395 273 395Q318 395 353.5 374.0Q389 353 409.5 315.5Q430 278 430 230Q430 182 409.5 145.0Q389 108 353.5 86.5Q318 65 273 65Q228 65 192.5 86.5Q157 108 136.5 145.0Q116 182 116 230Z" transform="translate(8126.00,0)"/><path d="M155 460H75V0H155ZM294 372 338 438Q320 457 298.5 463.5Q277 470 252 470Q220 470 189.0 445.0Q158 420 138.5 377.5Q119 335 119 280H155Q155 313 161.5 339.0Q168 365 185.0 380.0Q202 395 232 395Q252 395 265.0 389.5Q278 384 294 372Z" transform="translate(8672.00,0)"/><path d="M70 780V0H150V780ZM320 460 120 270 340 0H440L220 270L420 460Z" transform="translate(9015.00,0)"/><path d="M5 460 205 -35 336 300 475 -35 675 460H585L469 159L335 495L210 161L95 460Z" transform="translate(9755.00,0)"/><path d="M75 650Q75 628 91.5 611.5Q108 595 130 595Q153 595 169.0 611.5Q185 628 185 650Q185 673 169.0 689.0Q153 705 130 705Q108 705 91.5 689.0Q75 673 75 650ZM90 460V0H170V460Z" transform="translate(10435.00,0)"/><path d="M5 460V385H235V460ZM80 620V0H160V620Z" transform="translate(10695.00,0)"/><path d="M155 780H75V0H155ZM370 280V0H450V290Q450 350 430.5 390.0Q411 430 375.5 450.0Q340 470 292 470Q244 470 207.5 445.0Q171 420 150.0 377.5Q129 335 129 280H155Q155 313 169.5 339.0Q184 365 210.5 380.0Q237 395 272 395Q321 395 345.5 366.0Q370 337 370 280Z" transform="translate(10935.00,0)"/><path d="M94 141 31 102Q44 75 69.5 49.0Q95 23 132.0 6.5Q169 -10 215 -10Q286 -10 329.5 30.0Q373 70 373 130Q373 171 353.5 197.0Q334 223 301.0 241.5Q268 260 228 276Q204 286 182.0 297.0Q160 308 146.0 322.0Q132 336 132 354Q132 377 150.0 388.0Q168 399 193 399Q229 399 257.5 382.0Q286 365 305 339L369 380Q355 406 330.0 426.0Q305 446 272.5 458.0Q240 470 203 470Q166 470 131.5 457.0Q97 444 75.5 417.0Q54 390 54 349Q54 309 74.5 282.5Q95 256 125.5 239.5Q156 223 186 211Q213 201 237.0 189.5Q261 178 276.5 161.5Q292 145 292 121Q292 94 272.5 78.5Q253 63 219 63Q191 63 167.5 73.5Q144 84 126.0 102.0Q108 120 94 141Z" transform="translate(11760.00,0)"/><path d="M440 460H350L208 104L241 100L95 460H0L176 65L50 -220H140Z" transform="translate(12163.00,0)"/><path d="M370 280V0H450V290Q450 373 407.5 421.5Q365 470 292 470Q247 470 212.5 450.0Q178 430 155 388V460H75V0H155V280Q155 314 169.5 340.0Q184 366 210.5 380.5Q237 395 272 395Q320 395 345.0 366.0Q370 337 370 280Z" transform="translate(12603.00,0)"/><path d="M111 230Q111 278 131.5 315.5Q152 353 187.5 374.0Q223 395 268 395Q305 395 337.5 383.5Q370 372 394.0 353.0Q418 334 428 311V411Q404 439 359.5 454.5Q315 470 268 470Q201 470 147.0 439.0Q93 408 61.5 354.0Q30 300 30 230Q30 161 61.5 106.5Q93 52 147.0 21.0Q201 -10 268 -10Q315 -10 359.5 5.5Q404 21 428 49V149Q418 127 394.0 107.5Q370 88 337.5 76.5Q305 65 268 65Q223 65 187.5 86.5Q152 108 131.5 145.0Q111 182 111 230Z" transform="translate(13128.00,0)"/><path d="M420 700 15 -150H95L500 700Z" transform="translate(13606.00,0)"/><path d="M111 142Q111 167 123.0 185.0Q135 203 159.5 213.0Q184 223 223 223Q265 223 302.0 212.5Q339 202 374 178V225Q367 234 347.0 248.5Q327 263 293.5 274.5Q260 286 210 286Q125 286 77.5 245.5Q30 205 30 138Q30 91 52.0 58.0Q74 25 110.5 7.5Q147 -10 189 -10Q227 -10 265.5 4.0Q304 18 330.5 47.0Q357 76 357 120L341 180Q341 144 323.5 116.5Q306 89 276.5 74.0Q247 59 210 59Q181 59 158.5 68.5Q136 78 123.5 97.0Q111 116 111 142ZM99 354Q110 362 129.0 373.0Q148 384 175.5 392.0Q203 400 237 400Q258 400 277.0 396.0Q296 392 310.5 383.0Q325 374 333.0 358.5Q341 343 341 319V0H421V330Q421 375 398.5 406.0Q376 437 335.5 453.5Q295 470 241 470Q177 470 131.5 451.0Q86 432 60 413Z" transform="translate(14121.00,0)"/><path d="M94 141 31 102Q44 75 69.5 49.0Q95 23 132.0 6.5Q169 -10 215 -10Q286 -10 329.5 30.0Q373 70 373 130Q373 171 353.5 197.0Q334 223 301.0 241.5Q268 260 228 276Q204 286 182.0 297.0Q160 308 146.0 322.0Q132 336 132 354Q132 377 150.0 388.0Q168 399 193 399Q229 399 257.5 382.0Q286 365 305 339L369 380Q355 406 330.0 426.0Q305 446 272.5 458.0Q240 470 203 470Q166 470 131.5 457.0Q97 444 75.5 417.0Q54 390 54 349Q54 309 74.5 282.5Q95 256 125.5 239.5Q156 223 186 211Q213 201 237.0 189.5Q261 178 276.5 161.5Q292 145 292 121Q292 94 272.5 78.5Q253 63 219 63Q191 63 167.5 73.5Q144 84 126.0 102.0Q108 120 94 141Z" transform="translate(14602.00,0)"/><path d="M440 460H350L208 104L241 100L95 460H0L176 65L50 -220H140Z" transform="translate(15005.00,0)"/><path d="M370 280V0H450V290Q450 373 407.5 421.5Q365 470 292 470Q247 470 212.5 450.0Q178 430 155 388V460H75V0H155V280Q155 314 169.5 340.0Q184 366 210.5 380.5Q237 395 272 395Q320 395 345.0 366.0Q370 337 370 280Z" transform="translate(15445.00,0)"/><path d="M111 230Q111 278 131.5 315.5Q152 353 187.5 374.0Q223 395 268 395Q305 395 337.5 383.5Q370 372 394.0 353.0Q418 334 428 311V411Q404 439 359.5 454.5Q315 470 268 470Q201 470 147.0 439.0Q93 408 61.5 354.0Q30 300 30 230Q30 161 61.5 106.5Q93 52 147.0 21.0Q201 -10 268 -10Q315 -10 359.5 5.5Q404 21 428 49V149Q418 127 394.0 107.5Q370 88 337.5 76.5Q305 65 268 65Q223 65 187.5 86.5Q152 108 131.5 145.0Q111 182 111 230Z" transform="translate(15970.00,0)"/><path d="M111 230Q111 278 131.5 315.5Q152 353 187.5 374.0Q223 395 268 395Q305 395 337.5 383.5Q370 372 394.0 353.0Q418 334 428 311V411Q404 439 359.5 454.5Q315 470 268 470Q201 470 147.0 439.0Q93 408 61.5 354.0Q30 300 30 230Q30 161 61.5 106.5Q93 52 147.0 21.0Q201 -10 268 -10Q315 -10 359.5 5.5Q404 21 428 49V149Q418 127 394.0 107.5Q370 88 337.5 76.5Q305 65 268 65Q223 65 187.5 86.5Q152 108 131.5 145.0Q111 182 111 230Z" transform="translate(16748.00,0)"/><path d="M75 780V0H155V780Z" transform="translate(17226.00,0)"/><path d="M75 650Q75 628 91.5 611.5Q108 595 130 595Q153 595 169.0 611.5Q185 628 185 650Q185 673 169.0 689.0Q153 705 130 705Q108 705 91.5 689.0Q75 673 75 650ZM90 460V0H170V460Z" transform="translate(17456.00,0)"/><path d="M253 -10Q327 -10 381.5 19.5Q436 49 472 107L407 148Q382 106 346.0 85.5Q310 65 263 65Q216 65 183.0 85.0Q150 105 133.0 143.0Q116 181 116 235Q117 288 134.5 324.5Q152 361 184.5 380.5Q217 400 263 400Q302 400 331.0 383.0Q360 366 376.5 336.0Q393 306 393 265Q393 258 390.0 247.5Q387 237 384 232L416 278H86V210H479Q479 212 479.5 219.5Q480 227 480 234Q480 307 454.0 360.0Q428 413 379.5 441.5Q331 470 263 470Q195 470 143.5 440.0Q92 410 63.5 356.0Q35 302 35 230Q35 159 62.5 105.0Q90 51 139.5 20.5Q189 -10 253 -10Z" transform="translate(17716.00,0)"/><path d="M370 280V0H450V290Q450 373 407.5 421.5Q365 470 292 470Q247 470 212.5 450.0Q178 430 155 388V460H75V0H155V280Q155 314 169.5 340.0Q184 366 210.5 380.5Q237 395 272 395Q320 395 345.0 366.0Q370 337 370 280Z" transform="translate(18231.00,0)"/><path d="M5 460V385H235V460ZM80 620V0H160V620Z" transform="translate(18756.00,0)"/><path d="M94 141 31 102Q44 75 69.5 49.0Q95 23 132.0 6.5Q169 -10 215 -10Q286 -10 329.5 30.0Q373 70 373 130Q373 171 353.5 197.0Q334 223 301.0 241.5Q268 260 228 276Q204 286 182.0 297.0Q160 308 146.0 322.0Q132 336 132 354Q132 377 150.0 388.0Q168 399 193 399Q229 399 257.5 382.0Q286 365 305 339L369 380Q355 406 330.0 426.0Q305 446 272.5 458.0Q240 470 203 470Q166 470 131.5 457.0Q97 444 75.5 417.0Q54 390 54 349Q54 309 74.5 282.5Q95 256 125.5 239.5Q156 223 186 211Q213 201 237.0 189.5Q261 178 276.5 161.5Q292 145 292 121Q292 94 272.5 78.5Q253 63 219 63Q191 63 167.5 73.5Q144 84 126.0 102.0Q108 120 94 141Z" transform="translate(18996.00,0)"/><path d="M148 110 60 -149 118 -170 228 80Z" transform="translate(19399.00,0)"/></g><g fill="#5b6f63" transform="translate(520.000,352.000) scale(0.030000,-0.030000)"><path d="M705 290Q705 347 687.5 387.5Q670 428 637.0 449.0Q604 470 557 470Q511 470 475.0 448.5Q439 427 415 384Q399 425 364.5 447.5Q330 470 282 470Q239 470 207.5 451.0Q176 432 155 393V460H75V0H155V280Q155 316 168.0 342.0Q181 368 205.0 381.5Q229 395 262 395Q307 395 328.5 367.0Q350 339 350 280V0H430V280Q430 316 443.0 342.0Q456 368 480.0 381.5Q504 395 537 395Q582 395 603.5 367.0Q625 339 625 280V0H705Z" transform="translate(0.00,0)"/><path d="M75 650Q75 628 91.5 611.5Q108 595 130 595Q153 595 169.0 611.5Q185 628 185 650Q185 673 169.0 689.0Q153 705 130 705Q108 705 91.5 689.0Q75 673 75 650ZM90 460V0H170V460Z" transform="translate(780.00,0)"/><path d="M420 780V0H500V780ZM35 230Q35 156 66.0 102.0Q97 48 149.0 19.0Q201 -10 263 -10Q321 -10 364.0 19.0Q407 48 431.5 102.0Q456 156 456 230Q456 305 431.5 358.5Q407 412 364.0 441.0Q321 470 263 470Q201 470 149.0 441.0Q97 412 66.0 358.5Q35 305 35 230ZM116 230Q116 283 137.5 320.0Q159 357 195.0 376.0Q231 395 273 395Q308 395 342.0 376.0Q376 357 398.0 320.0Q420 283 420 230Q420 177 398.0 140.0Q376 103 342.0 84.0Q308 65 273 65Q231 65 195.0 84.0Q159 103 137.5 140.0Q116 177 116 230Z" transform="translate(1040.00,0)"/><path d="M420 780V0H500V780ZM35 230Q35 156 66.0 102.0Q97 48 149.0 19.0Q201 -10 263 -10Q321 -10 364.0 19.0Q407 48 431.5 102.0Q456 156 456 230Q456 305 431.5 358.5Q407 412 364.0 441.0Q321 470 263 470Q201 470 149.0 441.0Q97 412 66.0 358.5Q35 305 35 230ZM116 230Q116 283 137.5 320.0Q159 357 195.0 376.0Q231 395 273 395Q308 395 342.0 376.0Q376 357 398.0 320.0Q420 283 420 230Q420 177 398.0 140.0Q376 103 342.0 84.0Q308 65 273 65Q231 65 195.0 84.0Q159 103 137.5 140.0Q116 177 116 230Z" transform="translate(1610.00,0)"/><path d="M75 780V0H155V780Z" transform="translate(2180.00,0)"/><path d="M253 -10Q327 -10 381.5 19.5Q436 49 472 107L407 148Q382 106 346.0 85.5Q310 65 263 65Q216 65 183.0 85.0Q150 105 133.0 143.0Q116 181 116 235Q117 288 134.5 324.5Q152 361 184.5 380.5Q217 400 263 400Q302 400 331.0 383.0Q360 366 376.5 336.0Q393 306 393 265Q393 258 390.0 247.5Q387 237 384 232L416 278H86V210H479Q479 212 479.5 219.5Q480 227 480 234Q480 307 454.0 360.0Q428 413 379.5 441.5Q331 470 263 470Q195 470 143.5 440.0Q92 410 63.5 356.0Q35 302 35 230Q35 159 62.5 105.0Q90 51 139.5 20.5Q189 -10 253 -10Z" transform="translate(2410.00,0)"/><path d="M5 460 205 -35 336 300 475 -35 675 460H585L469 159L335 495L210 161L95 460Z" transform="translate(2925.00,0)"/><path d="M111 142Q111 167 123.0 185.0Q135 203 159.5 213.0Q184 223 223 223Q265 223 302.0 212.5Q339 202 374 178V225Q367 234 347.0 248.5Q327 263 293.5 274.5Q260 286 210 286Q125 286 77.5 245.5Q30 205 30 138Q30 91 52.0 58.0Q74 25 110.5 7.5Q147 -10 189 -10Q227 -10 265.5 4.0Q304 18 330.5 47.0Q357 76 357 120L341 180Q341 144 323.5 116.5Q306 89 276.5 74.0Q247 59 210 59Q181 59 158.5 68.5Q136 78 123.5 97.0Q111 116 111 142ZM99 354Q110 362 129.0 373.0Q148 384 175.5 392.0Q203 400 237 400Q258 400 277.0 396.0Q296 392 310.5 383.0Q325 374 333.0 358.5Q341 343 341 319V0H421V330Q421 375 398.5 406.0Q376 437 335.5 453.5Q295 470 241 470Q177 470 131.5 451.0Q86 432 60 413Z" transform="translate(3605.00,0)"/><path d="M155 460H75V0H155ZM294 372 338 438Q320 457 298.5 463.5Q277 470 252 470Q220 470 189.0 445.0Q158 420 138.5 377.5Q119 335 119 280H155Q155 313 161.5 339.0Q168 365 185.0 380.0Q202 395 232 395Q252 395 265.0 389.5Q278 384 294 372Z" transform="translate(4086.00,0)"/><path d="M253 -10Q327 -10 381.5 19.5Q436 49 472 107L407 148Q382 106 346.0 85.5Q310 65 263 65Q216 65 183.0 85.0Q150 105 133.0 143.0Q116 181 116 235Q117 288 134.5 324.5Q152 361 184.5 380.5Q217 400 263 400Q302 400 331.0 383.0Q360 366 376.5 336.0Q393 306 393 265Q393 258 390.0 247.5Q387 237 384 232L416 278H86V210H479Q479 212 479.5 219.5Q480 227 480 234Q480 307 454.0 360.0Q428 413 379.5 441.5Q331 470 263 470Q195 470 143.5 440.0Q92 410 63.5 356.0Q35 302 35 230Q35 159 62.5 105.0Q90 51 139.5 20.5Q189 -10 253 -10Z" transform="translate(4429.00,0)"/><path d="M111 230Q111 278 131.5 315.5Q152 353 187.5 374.0Q223 395 268 395Q305 395 337.5 383.5Q370 372 394.0 353.0Q418 334 428 311V411Q404 439 359.5 454.5Q315 470 268 470Q201 470 147.0 439.0Q93 408 61.5 354.0Q30 300 30 230Q30 161 61.5 106.5Q93 52 147.0 21.0Q201 -10 268 -10Q315 -10 359.5 5.5Q404 21 428 49V149Q418 127 394.0 107.5Q370 88 337.5 76.5Q305 65 268 65Q223 65 187.5 86.5Q152 108 131.5 145.0Q111 182 111 230Z" transform="translate(5244.00,0)"/><path d="M155 780H75V0H155ZM370 280V0H450V290Q450 350 430.5 390.0Q411 430 375.5 450.0Q340 470 292 470Q244 470 207.5 445.0Q171 420 150.0 377.5Q129 335 129 280H155Q155 313 169.5 339.0Q184 365 210.5 380.0Q237 395 272 395Q321 395 345.5 366.0Q370 337 370 280Z" transform="translate(5722.00,0)"/><path d="M111 142Q111 167 123.0 185.0Q135 203 159.5 213.0Q184 223 223 223Q265 223 302.0 212.5Q339 202 374 178V225Q367 234 347.0 248.5Q327 263 293.5 274.5Q260 286 210 286Q125 286 77.5 245.5Q30 205 30 138Q30 91 52.0 58.0Q74 25 110.5 7.5Q147 -10 189 -10Q227 -10 265.5 4.0Q304 18 330.5 47.0Q357 76 357 120L341 180Q341 144 323.5 116.5Q306 89 276.5 74.0Q247 59 210 59Q181 59 158.5 68.5Q136 78 123.5 97.0Q111 116 111 142ZM99 354Q110 362 129.0 373.0Q148 384 175.5 392.0Q203 400 237 400Q258 400 277.0 396.0Q296 392 310.5 383.0Q325 374 333.0 358.5Q341 343 341 319V0H421V330Q421 375 398.5 406.0Q376 437 335.5 453.5Q295 470 241 470Q177 470 131.5 451.0Q86 432 60 413Z" transform="translate(6247.00,0)"/><path d="M75 650Q75 628 91.5 611.5Q108 595 130 595Q153 595 169.0 611.5Q185 628 185 650Q185 673 169.0 689.0Q153 705 130 705Q108 705 91.5 689.0Q75 673 75 650ZM90 460V0H170V460Z" transform="translate(6728.00,0)"/><path d="M370 280V0H450V290Q450 373 407.5 421.5Q365 470 292 470Q247 470 212.5 450.0Q178 430 155 388V460H75V0H155V280Q155 314 169.5 340.0Q184 366 210.5 380.5Q237 395 272 395Q320 395 345.0 366.0Q370 337 370 280Z" transform="translate(6988.00,0)"/><path d="M148 110 60 -149 118 -170 228 80Z" transform="translate(7513.00,0)"/><path d="M111 142Q111 167 123.0 185.0Q135 203 159.5 213.0Q184 223 223 223Q265 223 302.0 212.5Q339 202 374 178V225Q367 234 347.0 248.5Q327 263 293.5 274.5Q260 286 210 286Q125 286 77.5 245.5Q30 205 30 138Q30 91 52.0 58.0Q74 25 110.5 7.5Q147 -10 189 -10Q227 -10 265.5 4.0Q304 18 330.5 47.0Q357 76 357 120L341 180Q341 144 323.5 116.5Q306 89 276.5 74.0Q247 59 210 59Q181 59 158.5 68.5Q136 78 123.5 97.0Q111 116 111 142ZM99 354Q110 362 129.0 373.0Q148 384 175.5 392.0Q203 400 237 400Q258 400 277.0 396.0Q296 392 310.5 383.0Q325 374 333.0 358.5Q341 343 341 319V0H421V330Q421 375 398.5 406.0Q376 437 335.5 453.5Q295 470 241 470Q177 470 131.5 451.0Q86 432 60 413Z" transform="translate(8121.00,0)"/><path d="M370 280V0H450V290Q450 373 407.5 421.5Q365 470 292 470Q247 470 212.5 450.0Q178 430 155 388V460H75V0H155V280Q155 314 169.5 340.0Q184 366 210.5 380.5Q237 395 272 395Q320 395 345.0 366.0Q370 337 370 280Z" transform="translate(8602.00,0)"/><path d="M420 780V0H500V780ZM35 230Q35 156 66.0 102.0Q97 48 149.0 19.0Q201 -10 263 -10Q321 -10 364.0 19.0Q407 48 431.5 102.0Q456 156 456 230Q456 305 431.5 358.5Q407 412 364.0 441.0Q321 470 263 470Q201 470 149.0 441.0Q97 412 66.0 358.5Q35 305 35 230ZM116 230Q116 283 137.5 320.0Q159 357 195.0 376.0Q231 395 273 395Q308 395 342.0 376.0Q376 357 398.0 320.0Q420 283 420 230Q420 177 398.0 140.0Q376 103 342.0 84.0Q308 65 273 65Q231 65 195.0 84.0Q159 103 137.5 140.0Q116 177 116 230Z" transform="translate(9127.00,0)"/><path d="M150 780H70V0H150ZM535 230Q535 305 504.0 358.5Q473 412 421.5 441.0Q370 470 307 470Q250 470 206.5 441.0Q163 412 138.5 358.5Q114 305 114 230Q114 156 138.5 102.0Q163 48 206.5 19.0Q250 -10 307 -10Q370 -10 421.5 19.0Q473 48 504.0 102.0Q535 156 535 230ZM454 230Q454 177 432.5 140.0Q411 103 375.5 84.0Q340 65 297 65Q262 65 228.0 84.0Q194 103 172.0 140.0Q150 177 150 230Q150 283 172.0 320.0Q194 357 228.0 376.0Q262 395 297 395Q340 395 375.5 376.0Q411 357 432.5 320.0Q454 283 454 230Z" transform="translate(9997.00,0)"/><path d="M155 180V460H75V170Q75 88 118.0 39.0Q161 -10 233 -10Q279 -10 313.0 10.5Q347 31 370 72V0H450V460H370V180Q370 146 355.5 120.0Q341 94 314.5 79.5Q288 65 253 65Q205 65 180.0 95.0Q155 125 155 180Z" transform="translate(10567.00,0)"/><path d="M75 650Q75 628 91.5 611.5Q108 595 130 595Q153 595 169.0 611.5Q185 628 185 650Q185 673 169.0 689.0Q153 705 130 705Q108 705 91.5 689.0Q75 673 75 650ZM90 460V0H170V460Z" transform="translate(11092.00,0)"/><path d="M75 780V0H155V780Z" transform="translate(11352.00,0)"/><path d="M5 460V385H235V460ZM80 620V0H160V620Z" transform="translate(11582.00,0)"/><path d="M5 200H205V275H5Z" transform="translate(11822.00,0)"/><path d="M75 650Q75 628 91.5 611.5Q108 595 130 595Q153 595 169.0 611.5Q185 628 185 650Q185 673 169.0 689.0Q153 705 130 705Q108 705 91.5 689.0Q75 673 75 650ZM90 460V0H170V460Z" transform="translate(12032.00,0)"/><path d="M370 280V0H450V290Q450 373 407.5 421.5Q365 470 292 470Q247 470 212.5 450.0Q178 430 155 388V460H75V0H155V280Q155 314 169.5 340.0Q184 366 210.5 380.5Q237 395 272 395Q320 395 345.0 366.0Q370 337 370 280Z" transform="translate(12292.00,0)"/><path d="M155 460H75V0H155ZM294 372 338 438Q320 457 298.5 463.5Q277 470 252 470Q220 470 189.0 445.0Q158 420 138.5 377.5Q119 335 119 280H155Q155 313 161.5 339.0Q168 365 185.0 380.0Q202 395 232 395Q252 395 265.0 389.5Q278 384 294 372Z" transform="translate(13117.00,0)"/><path d="M253 -10Q327 -10 381.5 19.5Q436 49 472 107L407 148Q382 106 346.0 85.5Q310 65 263 65Q216 65 183.0 85.0Q150 105 133.0 143.0Q116 181 116 235Q117 288 134.5 324.5Q152 361 184.5 380.5Q217 400 263 400Q302 400 331.0 383.0Q360 366 376.5 336.0Q393 306 393 265Q393 258 390.0 247.5Q387 237 384 232L416 278H86V210H479Q479 212 479.5 219.5Q480 227 480 234Q480 307 454.0 360.0Q428 413 379.5 441.5Q331 470 263 470Q195 470 143.5 440.0Q92 410 63.5 356.0Q35 302 35 230Q35 159 62.5 105.0Q90 51 139.5 20.5Q189 -10 253 -10Z" transform="translate(13460.00,0)"/><path d="M94 141 31 102Q44 75 69.5 49.0Q95 23 132.0 6.5Q169 -10 215 -10Q286 -10 329.5 30.0Q373 70 373 130Q373 171 353.5 197.0Q334 223 301.0 241.5Q268 260 228 276Q204 286 182.0 297.0Q160 308 146.0 322.0Q132 336 132 354Q132 377 150.0 388.0Q168 399 193 399Q229 399 257.5 382.0Q286 365 305 339L369 380Q355 406 330.0 426.0Q305 446 272.5 458.0Q240 470 203 470Q166 470 131.5 457.0Q97 444 75.5 417.0Q54 390 54 349Q54 309 74.5 282.5Q95 256 125.5 239.5Q156 223 186 211Q213 201 237.0 189.5Q261 178 276.5 161.5Q292 145 292 121Q292 94 272.5 78.5Q253 63 219 63Q191 63 167.5 73.5Q144 84 126.0 102.0Q108 120 94 141Z" transform="translate(13975.00,0)"/><path d="M75 650Q75 628 91.5 611.5Q108 595 130 595Q153 595 169.0 611.5Q185 628 185 650Q185 673 169.0 689.0Q153 705 130 705Q108 705 91.5 689.0Q75 673 75 650ZM90 460V0H170V460Z" transform="translate(14378.00,0)"/><path d="M75 780V0H155V780Z" transform="translate(14638.00,0)"/><path d="M75 650Q75 628 91.5 611.5Q108 595 130 595Q153 595 169.0 611.5Q185 628 185 650Q185 673 169.0 689.0Q153 705 130 705Q108 705 91.5 689.0Q75 673 75 650ZM90 460V0H170V460Z" transform="translate(14868.00,0)"/><path d="M253 -10Q327 -10 381.5 19.5Q436 49 472 107L407 148Q382 106 346.0 85.5Q310 65 263 65Q216 65 183.0 85.0Q150 105 133.0 143.0Q116 181 116 235Q117 288 134.5 324.5Q152 361 184.5 380.5Q217 400 263 400Q302 400 331.0 383.0Q360 366 376.5 336.0Q393 306 393 265Q393 258 390.0 247.5Q387 237 384 232L416 278H86V210H479Q479 212 479.5 219.5Q480 227 480 234Q480 307 454.0 360.0Q428 413 379.5 441.5Q331 470 263 470Q195 470 143.5 440.0Q92 410 63.5 356.0Q35 302 35 230Q35 159 62.5 105.0Q90 51 139.5 20.5Q189 -10 253 -10Z" transform="translate(15128.00,0)"/><path d="M370 280V0H450V290Q450 373 407.5 421.5Q365 470 292 470Q247 470 212.5 450.0Q178 430 155 388V460H75V0H155V280Q155 314 169.5 340.0Q184 366 210.5 380.5Q237 395 272 395Q320 395 345.0 366.0Q370 337 370 280Z" transform="translate(15643.00,0)"/><path d="M111 230Q111 278 131.5 315.5Q152 353 187.5 374.0Q223 395 268 395Q305 395 337.5 383.5Q370 372 394.0 353.0Q418 334 428 311V411Q404 439 359.5 454.5Q315 470 268 470Q201 470 147.0 439.0Q93 408 61.5 354.0Q30 300 30 230Q30 161 61.5 106.5Q93 52 147.0 21.0Q201 -10 268 -10Q315 -10 359.5 5.5Q404 21 428 49V149Q418 127 394.0 107.5Q370 88 337.5 76.5Q305 65 268 65Q223 65 187.5 86.5Q152 108 131.5 145.0Q111 182 111 230Z" transform="translate(16168.00,0)"/><path d="M253 -10Q327 -10 381.5 19.5Q436 49 472 107L407 148Q382 106 346.0 85.5Q310 65 263 65Q216 65 183.0 85.0Q150 105 133.0 143.0Q116 181 116 235Q117 288 134.5 324.5Q152 361 184.5 380.5Q217 400 263 400Q302 400 331.0 383.0Q360 366 376.5 336.0Q393 306 393 265Q393 258 390.0 247.5Q387 237 384 232L416 278H86V210H479Q479 212 479.5 219.5Q480 227 480 234Q480 307 454.0 360.0Q428 413 379.5 441.5Q331 470 263 470Q195 470 143.5 440.0Q92 410 63.5 356.0Q35 302 35 230Q35 159 62.5 105.0Q90 51 139.5 20.5Q189 -10 253 -10Z" transform="translate(16646.00,0)"/><path d="M205 780Q145 668 117.5 543.0Q90 418 90 290Q90 163 117.5 38.0Q145 -87 205 -200H280Q228 -87 204.0 38.0Q180 163 180 290Q180 418 204.0 543.0Q228 668 280 780Z" transform="translate(17461.00,0)"/><path d="M155 460H75V0H155ZM294 372 338 438Q320 457 298.5 463.5Q277 470 252 470Q220 470 189.0 445.0Q158 420 138.5 377.5Q119 335 119 280H155Q155 313 161.5 339.0Q168 365 185.0 380.0Q202 395 232 395Q252 395 265.0 389.5Q278 384 294 372Z" transform="translate(17771.00,0)"/><path d="M253 -10Q327 -10 381.5 19.5Q436 49 472 107L407 148Q382 106 346.0 85.5Q310 65 263 65Q216 65 183.0 85.0Q150 105 133.0 143.0Q116 181 116 235Q117 288 134.5 324.5Q152 361 184.5 380.5Q217 400 263 400Q302 400 331.0 383.0Q360 366 376.5 336.0Q393 306 393 265Q393 258 390.0 247.5Q387 237 384 232L416 278H86V210H479Q479 212 479.5 219.5Q480 227 480 234Q480 307 454.0 360.0Q428 413 379.5 441.5Q331 470 263 470Q195 470 143.5 440.0Q92 410 63.5 356.0Q35 302 35 230Q35 159 62.5 105.0Q90 51 139.5 20.5Q189 -10 253 -10Z" transform="translate(18114.00,0)"/><path d="M5 460V385H235V460ZM80 620V0H160V620Z" transform="translate(18629.00,0)"/><path d="M155 460H75V0H155ZM294 372 338 438Q320 457 298.5 463.5Q277 470 252 470Q220 470 189.0 445.0Q158 420 138.5 377.5Q119 335 119 280H155Q155 313 161.5 339.0Q168 365 185.0 380.0Q202 395 232 395Q252 395 265.0 389.5Q278 384 294 372Z" transform="translate(18869.00,0)"/><path d="M440 460H350L208 104L241 100L95 460H0L176 65L50 -220H140Z" transform="translate(19212.00,0)"/><path d="M148 110 60 -149 118 -170 228 80Z" transform="translate(19652.00,0)"/></g><g fill="#5b6f63" transform="translate(520.000,390.000) scale(0.030000,-0.030000)"><path d="M150 780H70V0H150ZM535 230Q535 305 504.0 358.5Q473 412 421.5 441.0Q370 470 307 470Q250 470 206.5 441.0Q163 412 138.5 358.5Q114 305 114 230Q114 156 138.5 102.0Q163 48 206.5 19.0Q250 -10 307 -10Q370 -10 421.5 19.0Q473 48 504.0 102.0Q535 156 535 230ZM454 230Q454 177 432.5 140.0Q411 103 375.5 84.0Q340 65 297 65Q262 65 228.0 84.0Q194 103 172.0 140.0Q150 177 150 230Q150 283 172.0 320.0Q194 357 228.0 376.0Q262 395 297 395Q340 395 375.5 376.0Q411 357 432.5 320.0Q454 283 454 230Z" transform="translate(0.00,0)"/><path d="M155 180V460H75V170Q75 88 118.0 39.0Q161 -10 233 -10Q279 -10 313.0 10.5Q347 31 370 72V0H450V460H370V180Q370 146 355.5 120.0Q341 94 314.5 79.5Q288 65 253 65Q205 65 180.0 95.0Q155 125 155 180Z" transform="translate(570.00,0)"/><path d="M75 780V0H155V780Z" transform="translate(1095.00,0)"/><path d="M70 780V0H150V780ZM320 460 120 270 340 0H440L220 270L420 460Z" transform="translate(1325.00,0)"/><path d="M155 780H75V0H155ZM370 280V0H450V290Q450 350 430.5 390.0Q411 430 375.5 450.0Q340 470 292 470Q244 470 207.5 445.0Q171 420 150.0 377.5Q129 335 129 280H155Q155 313 169.5 339.0Q184 365 210.5 380.0Q237 395 272 395Q321 395 345.5 366.0Q370 337 370 280Z" transform="translate(1765.00,0)"/><path d="M253 -10Q327 -10 381.5 19.5Q436 49 472 107L407 148Q382 106 346.0 85.5Q310 65 263 65Q216 65 183.0 85.0Q150 105 133.0 143.0Q116 181 116 235Q117 288 134.5 324.5Q152 361 184.5 380.5Q217 400 263 400Q302 400 331.0 383.0Q360 366 376.5 336.0Q393 306 393 265Q393 258 390.0 247.5Q387 237 384 232L416 278H86V210H479Q479 212 479.5 219.5Q480 227 480 234Q480 307 454.0 360.0Q428 413 379.5 441.5Q331 470 263 470Q195 470 143.5 440.0Q92 410 63.5 356.0Q35 302 35 230Q35 159 62.5 105.0Q90 51 139.5 20.5Q189 -10 253 -10Z" transform="translate(2290.00,0)"/><path d="M111 142Q111 167 123.0 185.0Q135 203 159.5 213.0Q184 223 223 223Q265 223 302.0 212.5Q339 202 374 178V225Q367 234 347.0 248.5Q327 263 293.5 274.5Q260 286 210 286Q125 286 77.5 245.5Q30 205 30 138Q30 91 52.0 58.0Q74 25 110.5 7.5Q147 -10 189 -10Q227 -10 265.5 4.0Q304 18 330.5 47.0Q357 76 357 120L341 180Q341 144 323.5 116.5Q306 89 276.5 74.0Q247 59 210 59Q181 59 158.5 68.5Q136 78 123.5 97.0Q111 116 111 142ZM99 354Q110 362 129.0 373.0Q148 384 175.5 392.0Q203 400 237 400Q258 400 277.0 396.0Q296 392 310.5 383.0Q325 374 333.0 358.5Q341 343 341 319V0H421V330Q421 375 398.5 406.0Q376 437 335.5 453.5Q295 470 241 470Q177 470 131.5 451.0Q86 432 60 413Z" transform="translate(2805.00,0)"/><path d="M420 780V0H500V780ZM35 230Q35 156 66.0 102.0Q97 48 149.0 19.0Q201 -10 263 -10Q321 -10 364.0 19.0Q407 48 431.5 102.0Q456 156 456 230Q456 305 431.5 358.5Q407 412 364.0 441.0Q321 470 263 470Q201 470 149.0 441.0Q97 412 66.0 358.5Q35 305 35 230ZM116 230Q116 283 137.5 320.0Q159 357 195.0 376.0Q231 395 273 395Q308 395 342.0 376.0Q376 357 398.0 320.0Q420 283 420 230Q420 177 398.0 140.0Q376 103 342.0 84.0Q308 65 273 65Q231 65 195.0 84.0Q159 103 137.5 140.0Q116 177 116 230Z" transform="translate(3286.00,0)"/><path d="M105 -200Q165 -87 192.5 38.0Q220 163 220 290Q220 418 192.5 543.0Q165 668 105 780H30Q83 668 106.5 543.0Q130 418 130 290Q130 163 106.5 38.0Q83 -87 30 -200Z" transform="translate(3856.00,0)"/></g><g fill="#c98a00" transform="translate(520.000,434.000) scale(0.026000,-0.026000)"><path d="M155 780H75V0H155ZM370 280V0H450V290Q450 350 430.5 390.0Q411 430 375.5 450.0Q340 470 292 470Q244 470 207.5 445.0Q171 420 150.0 377.5Q129 335 129 280H155Q155 313 169.5 339.0Q184 365 210.5 380.0Q237 395 272 395Q321 395 345.5 366.0Q370 337 370 280Z" transform="translate(0.00,0)"/><path d="M5 460V385H235V460ZM80 620V0H160V620Z" transform="translate(601.92,0)"/><path d="M5 460V385H235V460ZM80 620V0H160V620Z" transform="translate(918.85,0)"/><path d="M150 -220V460H70V-220ZM535 230Q535 305 504.0 358.5Q473 412 421.5 441.0Q370 470 307 470Q250 470 206.5 441.0Q163 412 138.5 358.5Q114 305 114 230Q114 156 138.5 102.0Q163 48 206.5 19.0Q250 -10 307 -10Q370 -10 421.5 19.0Q473 48 504.0 102.0Q535 156 535 230ZM454 230Q454 177 432.5 140.0Q411 103 375.5 84.0Q340 65 297 65Q262 65 228.0 84.0Q194 103 172.0 140.0Q150 177 150 230Q150 283 172.0 320.0Q194 357 228.0 376.0Q262 395 297 395Q340 395 375.5 376.0Q411 357 432.5 320.0Q454 283 454 230Z" transform="translate(1235.77,0)"/><path d="M5 460 205 -35 336 300 475 -35 675 460H585L469 159L335 495L210 161L95 460Z" transform="translate(1882.69,0)"/><path d="M111 142Q111 167 123.0 185.0Q135 203 159.5 213.0Q184 223 223 223Q265 223 302.0 212.5Q339 202 374 178V225Q367 234 347.0 248.5Q327 263 293.5 274.5Q260 286 210 286Q125 286 77.5 245.5Q30 205 30 138Q30 91 52.0 58.0Q74 25 110.5 7.5Q147 -10 189 -10Q227 -10 265.5 4.0Q304 18 330.5 47.0Q357 76 357 120L341 180Q341 144 323.5 116.5Q306 89 276.5 74.0Q247 59 210 59Q181 59 158.5 68.5Q136 78 123.5 97.0Q111 116 111 142ZM99 354Q110 362 129.0 373.0Q148 384 175.5 392.0Q203 400 237 400Q258 400 277.0 396.0Q296 392 310.5 383.0Q325 374 333.0 358.5Q341 343 341 319V0H421V330Q421 375 398.5 406.0Q376 437 335.5 453.5Q295 470 241 470Q177 470 131.5 451.0Q86 432 60 413Z" transform="translate(2639.62,0)"/><path d="M155 460H75V0H155ZM294 372 338 438Q320 457 298.5 463.5Q277 470 252 470Q220 470 189.0 445.0Q158 420 138.5 377.5Q119 335 119 280H155Q155 313 161.5 339.0Q168 365 185.0 380.0Q202 395 232 395Q252 395 265.0 389.5Q278 384 294 372Z" transform="translate(3197.54,0)"/><path d="M253 -10Q327 -10 381.5 19.5Q436 49 472 107L407 148Q382 106 346.0 85.5Q310 65 263 65Q216 65 183.0 85.0Q150 105 133.0 143.0Q116 181 116 235Q117 288 134.5 324.5Q152 361 184.5 380.5Q217 400 263 400Q302 400 331.0 383.0Q360 366 376.5 336.0Q393 306 393 265Q393 258 390.0 247.5Q387 237 384 232L416 278H86V210H479Q479 212 479.5 219.5Q480 227 480 234Q480 307 454.0 360.0Q428 413 379.5 441.5Q331 470 263 470Q195 470 143.5 440.0Q92 410 63.5 356.0Q35 302 35 230Q35 159 62.5 105.0Q90 51 139.5 20.5Q189 -10 253 -10Z" transform="translate(3617.46,0)"/><path d="M95 40Q95 18 111.5 1.5Q128 -15 150 -15Q173 -15 189.0 1.5Q205 18 205 40Q205 63 189.0 79.0Q173 95 150 95Q128 95 111.5 79.0Q95 63 95 40Z" transform="translate(4209.38,0)"/><path d="M705 290Q705 347 687.5 387.5Q670 428 637.0 449.0Q604 470 557 470Q511 470 475.0 448.5Q439 427 415 384Q399 425 364.5 447.5Q330 470 282 470Q239 470 207.5 451.0Q176 432 155 393V460H75V0H155V280Q155 316 168.0 342.0Q181 368 205.0 381.5Q229 395 262 395Q307 395 328.5 367.0Q350 339 350 280V0H430V280Q430 316 443.0 342.0Q456 368 480.0 381.5Q504 395 537 395Q582 395 603.5 367.0Q625 339 625 280V0H705Z" transform="translate(4586.31,0)"/><path d="M35 230Q35 161 66.5 106.5Q98 52 152.0 21.0Q206 -10 273 -10Q341 -10 394.5 21.0Q448 52 479.5 106.5Q511 161 511 230Q511 300 479.5 354.0Q448 408 394.5 439.0Q341 470 273 470Q206 470 152.0 439.0Q98 408 66.5 354.0Q35 300 35 230ZM116 230Q116 278 136.5 315.5Q157 353 192.5 374.0Q228 395 273 395Q318 395 353.5 374.0Q389 353 409.5 315.5Q430 278 430 230Q430 182 409.5 145.0Q389 108 353.5 86.5Q318 65 273 65Q228 65 192.5 86.5Q157 108 136.5 145.0Q116 182 116 230Z" transform="translate(5443.23,0)"/><path d="M420 780V0H500V780ZM35 230Q35 156 66.0 102.0Q97 48 149.0 19.0Q201 -10 263 -10Q321 -10 364.0 19.0Q407 48 431.5 102.0Q456 156 456 230Q456 305 431.5 358.5Q407 412 364.0 441.0Q321 470 263 470Q201 470 149.0 441.0Q97 412 66.0 358.5Q35 305 35 230ZM116 230Q116 283 137.5 320.0Q159 357 195.0 376.0Q231 395 273 395Q308 395 342.0 376.0Q376 357 398.0 320.0Q420 283 420 230Q420 177 398.0 140.0Q376 103 342.0 84.0Q308 65 273 65Q231 65 195.0 84.0Q159 103 137.5 140.0Q116 177 116 230Z" transform="translate(6066.15,0)"/><path d="M253 -10Q327 -10 381.5 19.5Q436 49 472 107L407 148Q382 106 346.0 85.5Q310 65 263 65Q216 65 183.0 85.0Q150 105 133.0 143.0Q116 181 116 235Q117 288 134.5 324.5Q152 361 184.5 380.5Q217 400 263 400Q302 400 331.0 383.0Q360 366 376.5 336.0Q393 306 393 265Q393 258 390.0 247.5Q387 237 384 232L416 278H86V210H479Q479 212 479.5 219.5Q480 227 480 234Q480 307 454.0 360.0Q428 413 379.5 441.5Q331 470 263 470Q195 470 143.5 440.0Q92 410 63.5 356.0Q35 302 35 230Q35 159 62.5 105.0Q90 51 139.5 20.5Q189 -10 253 -10Z" transform="translate(6713.08,0)"/><path d="M155 460H75V0H155ZM294 372 338 438Q320 457 298.5 463.5Q277 470 252 470Q220 470 189.0 445.0Q158 420 138.5 377.5Q119 335 119 280H155Q155 313 161.5 339.0Q168 365 185.0 380.0Q202 395 232 395Q252 395 265.0 389.5Q278 384 294 372Z" transform="translate(7305.00,0)"/><path d="M370 280V0H450V290Q450 373 407.5 421.5Q365 470 292 470Q247 470 212.5 450.0Q178 430 155 388V460H75V0H155V280Q155 314 169.5 340.0Q184 366 210.5 380.5Q237 395 272 395Q320 395 345.0 366.0Q370 337 370 280Z" transform="translate(7724.92,0)"/><path d="M5 200H205V275H5Z" transform="translate(8326.85,0)"/><path d="M150 -220V460H70V-220ZM535 230Q535 305 504.0 358.5Q473 412 421.5 441.0Q370 470 307 470Q250 470 206.5 441.0Q163 412 138.5 358.5Q114 305 114 230Q114 156 138.5 102.0Q163 48 206.5 19.0Q250 -10 307 -10Q370 -10 421.5 19.0Q473 48 504.0 102.0Q535 156 535 230ZM454 230Q454 177 432.5 140.0Q411 103 375.5 84.0Q340 65 297 65Q262 65 228.0 84.0Q194 103 172.0 140.0Q150 177 150 230Q150 283 172.0 320.0Q194 357 228.0 376.0Q262 395 297 395Q340 395 375.5 376.0Q411 357 432.5 320.0Q454 283 454 230Z" transform="translate(8613.77,0)"/><path d="M440 460H350L208 104L241 100L95 460H0L176 65L50 -220H140Z" transform="translate(9260.69,0)"/><path d="M5 460V385H235V460ZM80 620V0H160V620Z" transform="translate(9777.62,0)"/><path d="M155 780H75V0H155ZM370 280V0H450V290Q450 350 430.5 390.0Q411 430 375.5 450.0Q340 470 292 470Q244 470 207.5 445.0Q171 420 150.0 377.5Q129 335 129 280H155Q155 313 169.5 339.0Q184 365 210.5 380.0Q237 395 272 395Q321 395 345.5 366.0Q370 337 370 280Z" transform="translate(10094.54,0)"/><path d="M35 230Q35 161 66.5 106.5Q98 52 152.0 21.0Q206 -10 273 -10Q341 -10 394.5 21.0Q448 52 479.5 106.5Q511 161 511 230Q511 300 479.5 354.0Q448 408 394.5 439.0Q341 470 273 470Q206 470 152.0 439.0Q98 408 66.5 354.0Q35 300 35 230ZM116 230Q116 278 136.5 315.5Q157 353 192.5 374.0Q228 395 273 395Q318 395 353.5 374.0Q389 353 409.5 315.5Q430 278 430 230Q430 182 409.5 145.0Q389 108 353.5 86.5Q318 65 273 65Q228 65 192.5 86.5Q157 108 136.5 145.0Q116 182 116 230Z" transform="translate(10696.46,0)"/><path d="M370 280V0H450V290Q450 373 407.5 421.5Q365 470 292 470Q247 470 212.5 450.0Q178 430 155 388V460H75V0H155V280Q155 314 169.5 340.0Q184 366 210.5 380.5Q237 395 272 395Q320 395 345.0 366.0Q370 337 370 280Z" transform="translate(11319.38,0)"/><path d="M95 40Q95 18 111.5 1.5Q128 -15 150 -15Q173 -15 189.0 1.5Q205 18 205 40Q205 63 189.0 79.0Q173 95 150 95Q128 95 111.5 79.0Q95 63 95 40Z" transform="translate(11921.31,0)"/><path d="M35 230Q35 161 66.5 106.5Q98 52 152.0 21.0Q206 -10 273 -10Q341 -10 394.5 21.0Q448 52 479.5 106.5Q511 161 511 230Q511 300 479.5 354.0Q448 408 394.5 439.0Q341 470 273 470Q206 470 152.0 439.0Q98 408 66.5 354.0Q35 300 35 230ZM116 230Q116 278 136.5 315.5Q157 353 192.5 374.0Q228 395 273 395Q318 395 353.5 374.0Q389 353 409.5 315.5Q430 278 430 230Q430 182 409.5 145.0Q389 108 353.5 86.5Q318 65 273 65Q228 65 192.5 86.5Q157 108 136.5 145.0Q116 182 116 230Z" transform="translate(12298.23,0)"/><path d="M155 460H75V0H155ZM294 372 338 438Q320 457 298.5 463.5Q277 470 252 470Q220 470 189.0 445.0Q158 420 138.5 377.5Q119 335 119 280H155Q155 313 161.5 339.0Q168 365 185.0 380.0Q202 395 232 395Q252 395 265.0 389.5Q278 384 294 372Z" transform="translate(12921.15,0)"/><path d="M44 -30Q44 -89 73.0 -134.5Q102 -180 153.5 -205.0Q205 -230 272 -230Q330 -230 382.0 -203.0Q434 -176 467.0 -122.5Q500 -69 500 10V460H420V10Q420 -48 397.5 -84.5Q375 -121 341.0 -138.0Q307 -155 272 -155Q227 -155 194.0 -137.5Q161 -120 143.0 -91.5Q125 -63 125 -30ZM35 230Q35 156 66.0 102.0Q97 48 149.0 19.0Q201 -10 263 -10Q321 -10 364.0 19.0Q407 48 431.5 102.0Q456 156 456 230Q456 305 431.5 358.5Q407 412 364.0 441.0Q321 470 263 470Q201 470 149.0 441.0Q97 412 66.0 358.5Q35 305 35 230ZM116 230Q116 283 137.5 320.0Q159 357 195.0 376.0Q231 395 273 395Q299 395 325.0 384.0Q351 373 372.5 352.0Q394 331 407.0 300.5Q420 270 420 230Q420 177 398.0 140.0Q376 103 342.0 84.0Q308 65 273 65Q231 65 195.0 84.0Q159 103 137.5 140.0Q116 177 116 230Z" transform="translate(13341.08,0)"/></g></svg>
