<svg xmlns="http://www.w3.org/2000/svg" viewBox="0 0 100 100" role="img" aria-label="compose2pod"><path d="M9 62 L9 9 L62 9" fill="none" stroke="#356852" stroke-width="11" stroke-linejoin="miter"/><rect x="55.0" y="2.0" width="14" height="14" rx="2" fill="#356852"/><polygon points="3.5,60.0 14.5,60.0 14.5,62.0 3.5,73.0" fill="#356852"/><path d="M91 38 L91 91 L38 91" fill="none" stroke="#c98a00" stroke-width="11" stroke-linejoin="miter"/><rect x="31.0" y="84.0" width="14" height="14" rx="2" fill="#c98a00"/><polygon points="96.5,40.0 85.5,40.0 85.5,38.0 96.5,27.0" fill="#c98a00"/><polygon points="50.0,72.5 32.4,64.1 28.0,45.0 40.2,29.7 59.8,29.7 72.0,45.0 67.6,64.1" fill="none" stroke="#c98a00" stroke-width="3.4" stroke-linejoin="round"/><rect x="38.0" y="41.3" width="8.3" height="8.3" rx="1.5" fill="#c98a00"/><rect x="52.8" y="41.3" width="8.3" height="8.3" rx="1.5" fill="#c98a00"/><rect x="45.4" y="52.8" width="8.3" height="8.3" rx="1.5" fill="#c98a00"/></svg>
