<svg xmlns="http://www.w3.org/2000/svg" viewBox="0 0 100 100" role="img" aria-label="modern-di-celery"><path d="M9 62 L9 9 L62 9" fill="none" stroke="#356852" stroke-width="11" stroke-linejoin="miter"/><rect x="55.0" y="2.0" width="14" height="14" rx="2" fill="#356852"/><polygon points="3.5,60.0 14.5,60.0 14.5,62.0 3.5,73.0" fill="#356852"/><path d="M91 38 L91 91 L38 91" fill="none" stroke="#c98a00" stroke-width="11" stroke-linejoin="miter"/><rect x="31.0" y="84.0" width="14" height="14" rx="2" fill="#c98a00"/><polygon points="96.5,40.0 85.5,40.0 85.5,38.0 96.5,27.0" fill="#c98a00"/><g transform="translate(22.97,22.97) scale(0.1056)"><path d="M103,154 L440,154 A102,102 0 0 1 440,358 L103,358 A102,102 0 0 1 103,154 Z" fill="#c98a00"/><line x1="8" y1="205" x2="470" y2="205" stroke="#f4f1e8" stroke-width="9"/><line x1="8" y1="256" x2="470" y2="256" stroke="#f4f1e8" stroke-width="9"/><line x1="8" y1="307" x2="470" y2="307" stroke="#f4f1e8" stroke-width="9"/><path d="M493,179 A77,77 0 1 0 493,333" fill="none" stroke="#c98a00" stroke-width="50" stroke-linecap="round"/></g></svg>
