<svg xmlns="http://www.w3.org/2000/svg" viewBox="0 0 100 100" role="img" aria-label="modern-di-pytest"><path d="M9 62 L9 9 L62 9" fill="none" stroke="#356852" stroke-width="11" stroke-linejoin="miter"/><rect x="55.0" y="2.0" width="14" height="14" rx="2" fill="#356852"/><polygon points="3.5,60.0 14.5,60.0 14.5,62.0 3.5,73.0" fill="#356852"/><path d="M91 38 L91 91 L38 91" fill="none" stroke="#c98a00" stroke-width="11" stroke-linejoin="miter"/><rect x="31.0" y="84.0" width="14" height="14" rx="2" fill="#c98a00"/><polygon points="96.5,40.0 85.5,40.0 85.5,38.0 96.5,27.0" fill="#c98a00"/><rect x="27.0" y="39.6" width="46.0" height="4.6" rx="2.3" fill="#c98a00"/><rect x="27.0" y="32.8" width="7.8" height="4.1" fill="#e6b14d"/><rect x="27.0" y="44.2" width="7.8" height="23.0" rx="1" fill="#e6b14d"/><rect x="39.9" y="32.8" width="7.8" height="4.1" fill="#d99a1f"/><rect x="39.9" y="44.2" width="7.8" height="17.9" rx="1" fill="#d99a1f"/><rect x="52.8" y="32.8" width="7.8" height="4.1" fill="#c98a00"/><rect x="52.8" y="44.2" width="7.8" height="12.7" rx="1" fill="#c98a00"/><rect x="65.6" y="32.8" width="7.8" height="4.1" fill="#9c6c00"/><rect x="65.6" y="44.2" width="7.8" height="8.7" rx="1" fill="#9c6c00"/></svg>
