<svg xmlns="http://www.w3.org/2000/svg" viewBox="0 0 100 100" role="img" aria-label="modern-di-aiohttp"><path d="M9 62 L9 9 L62 9" fill="none" stroke="#356852" stroke-width="11" stroke-linejoin="miter"/><rect x="55.0" y="2.0" width="14" height="14" rx="2" fill="#356852"/><polygon points="3.5,60.0 14.5,60.0 14.5,62.0 3.5,73.0" fill="#356852"/><path d="M91 38 L91 91 L38 91" fill="none" stroke="#c98a00" stroke-width="11" stroke-linejoin="miter"/><rect x="31.0" y="84.0" width="14" height="14" rx="2" fill="#c98a00"/><polygon points="96.5,40.0 85.5,40.0 85.5,38.0 96.5,27.0" fill="#c98a00"/><circle cx="50" cy="50" r="23.0" fill="#c98a00"/><path d="M60.8 55.1 A 12.0 12.0 0 0 1 38.9 54.5" fill="none" stroke="#f4f1e8" stroke-width="3.4" stroke-linecap="butt"/><polygon points="37.0,47.7 45.2,56.0 34.1,59.0" fill="#f4f1e8"/><path d="M39.2 44.9 A 12.0 12.0 0 0 1 61.1 45.5" fill="none" stroke="#f4f1e8" stroke-width="3.4" stroke-linecap="butt"/><polygon points="63.0,52.3 54.8,44.0 65.9,41.0" fill="#f4f1e8"/></svg>
