<svg xmlns="http://www.w3.org/2000/svg" viewBox="0 0 1920 240" role="img" aria-label="Modern Python"><rect width="1920" height="240" fill="#2f5e4a"/><g transform="translate(324.6,7.5) scale(0.9)"><g fill="none" stroke-width="8" stroke-linecap="butt" stroke-linejoin="miter"><path d="M138 122 L138 50 L210 50" stroke="#f4f1e8"/><path d="M402 128 L402 200 L330 200" stroke="#f0b528"/></g><rect x="202.5" y="42.5" width="15" height="15" rx="3" fill="#f4f1e8"/><rect x="322.5" y="192.5" width="15" height="15" rx="3" fill="#f0b528"/><polygon points="134,120 142,120 142,122 134,130" fill="#f4f1e8"/><polygon points="406,130 398,130 398,128 406,120" fill="#f0b528"/><g fill="#f4f1e8" transform="translate(165.000,126.000) scale(0.050420,-0.050000)"><path d="M177 473 405 65 633 473 685 0H770L685 735L405 228L125 735L40 0H125Z" transform="translate(0.00,0)"/><path d="M130 350Q130 429 164.5 491.0Q199 553 259.0 589.0Q319 625 395 625Q472 625 531.5 589.0Q591 553 625.5 491.0Q660 429 660 350Q660 271 625.5 209.0Q591 147 531.5 111.0Q472 75 395 75Q319 75 259.0 111.0Q199 147 164.5 209.0Q130 271 130 350ZM40 350Q40 274 66.5 208.0Q93 142 141.0 93.5Q189 45 254.0 17.5Q319 -10 395 -10Q472 -10 536.5 17.5Q601 45 649.0 93.5Q697 142 723.5 208.0Q750 274 750 350Q750 427 723.5 492.5Q697 558 649.0 606.5Q601 655 536.5 682.5Q472 710 395 710Q319 710 254.0 682.5Q189 655 141.0 606.5Q93 558 66.5 492.5Q40 427 40 350Z" transform="translate(810.00,0)"/><path d="M80 700V0H165V700ZM290 0Q392 0 471.0 44.0Q550 88 595.0 166.5Q640 245 640 350Q640 455 595.0 533.5Q550 612 471.0 656.0Q392 700 290 700H127V615H290Q349 615 398.0 596.5Q447 578 482.0 543.5Q517 509 536.0 460.0Q555 411 555 350Q555 289 536.0 240.0Q517 191 482.0 156.5Q447 122 398.0 103.5Q349 85 290 85H127V0Z" transform="translate(1600.00,0)"/><path d="M127 0H480V80H127ZM127 620H480V700H127ZM127 340H460V420H127ZM80 700V0H165V700Z" transform="translate(2280.00,0)"/><path d="M205 345 445 0H550L300 345ZM80 700V0H165V700ZM127 625H270Q315 625 349.5 609.0Q384 593 403.5 563.0Q423 533 423 490Q423 447 403.5 417.0Q384 387 349.5 371.0Q315 355 270 355H127V280H270Q338 280 391.5 305.5Q445 331 476.5 378.5Q508 426 508 490Q508 555 476.5 602.0Q445 649 391.5 674.5Q338 700 270 700H127Z" transform="translate(2830.00,0)"/><path d="M610 700V179L80 735V0H165V521L695 -35V700Z" transform="translate(3390.00,0)"/></g><g fill="#f0b528" transform="translate(165.000,166.000) scale(0.054489,-0.050000)"><path d="M80 700V0H165V700ZM127 620H270Q338 620 380.5 587.5Q423 555 423 490Q423 426 380.5 393.0Q338 360 270 360H127V280H270Q338 280 391.5 305.5Q445 331 476.5 378.5Q508 426 508 490Q508 555 476.5 602.0Q445 649 391.5 674.5Q338 700 270 700H127Z" transform="translate(0.00,0)"/><path d="M461 700 280 376 100 700H5L238 301V0H323V302L556 700Z" transform="translate(548.00,0)"/><path d="M10 620H190V0H275V620H455V700H10Z" transform="translate(1109.00,0)"/><path d="M127 340H607V420H127ZM550 700V0H635V700ZM80 700V0H165V700Z" transform="translate(1574.00,0)"/><path d="M130 350Q130 429 164.5 491.0Q199 553 259.0 589.0Q319 625 395 625Q472 625 531.5 589.0Q591 553 625.5 491.0Q660 429 660 350Q660 271 625.5 209.0Q591 147 531.5 111.0Q472 75 395 75Q319 75 259.0 111.0Q199 147 164.5 209.0Q130 271 130 350ZM40 350Q40 274 66.5 208.0Q93 142 141.0 93.5Q189 45 254.0 17.5Q319 -10 395 -10Q472 -10 536.5 17.5Q601 45 649.0 93.5Q697 142 723.5 208.0Q750 274 750 350Q750 427 723.5 492.5Q697 558 649.0 606.5Q601 655 536.5 682.5Q472 710 395 710Q319 710 254.0 682.5Q189 655 141.0 606.5Q93 558 66.5 492.5Q40 427 40 350Z" transform="translate(2289.00,0)"/><path d="M610 700V179L80 735V0H165V521L695 -35V700Z" transform="translate(3079.00,0)"/></g></g><g fill="#f0b528" transform="translate(750.000,132.800) scale(0.040000,-0.040000)"><path d="M130 350Q130 429 164.5 491.0Q199 553 259.0 589.0Q319 625 395 625Q472 625 531.5 589.0Q591 553 625.5 491.0Q660 429 660 350Q660 271 625.5 209.0Q591 147 531.5 111.0Q472 75 395 75Q319 75 259.0 111.0Q199 147 164.5 209.0Q130 271 130 350ZM40 350Q40 274 66.5 208.0Q93 142 141.0 93.5Q189 45 254.0 17.5Q319 -10 395 -10Q472 -10 536.5 17.5Q601 45 649.0 93.5Q697 142 723.5 208.0Q750 274 750 350Q750 427 723.5 492.5Q697 558 649.0 606.5Q601 655 536.5 682.5Q472 710 395 710Q319 710 254.0 682.5Q189 655 141.0 606.5Q93 558 66.5 492.5Q40 427 40 350Z" transform="translate(0.00,0)"/><path d="M150 -220V460H70V-220ZM535 230Q535 305 504.0 358.5Q473 412 421.5 441.0Q370 470 307 470Q250 470 206.5 441.0Q163 412 138.5 358.5Q114 305 114 230Q114 156 138.5 102.0Q163 48 206.5 19.0Q250 -10 307 -10Q370 -10 421.5 19.0Q473 48 504.0 102.0Q535 156 535 230ZM454 230Q454 177 432.5 140.0Q411 103 375.5 84.0Q340 65 297 65Q262 65 228.0 84.0Q194 103 172.0 140.0Q150 177 150 230Q150 283 172.0 320.0Q194 357 228.0 376.0Q262 395 297 395Q340 395 375.5 376.0Q411 357 432.5 320.0Q454 283 454 230Z" transform="translate(890.00,0)"/><path d="M253 -10Q327 -10 381.5 19.5Q436 49 472 107L407 148Q382 106 346.0 85.5Q310 65 263 65Q216 65 183.0 85.0Q150 105 133.0 143.0Q116 181 116 235Q117 288 134.5 324.5Q152 361 184.5 380.5Q217 400 263 400Q302 400 331.0 383.0Q360 366 376.5 336.0Q393 306 393 265Q393 258 390.0 247.5Q387 237 384 232L416 278H86V210H479Q479 212 479.5 219.5Q480 227 480 234Q480 307 454.0 360.0Q428 413 379.5 441.5Q331 470 263 470Q195 470 143.5 440.0Q92 410 63.5 356.0Q35 302 35 230Q35 159 62.5 105.0Q90 51 139.5 20.5Q189 -10 253 -10Z" transform="translate(1560.00,0)"/><path d="M370 280V0H450V290Q450 373 407.5 421.5Q365 470 292 470Q247 470 212.5 450.0Q178 430 155 388V460H75V0H155V280Q155 314 169.5 340.0Q184 366 210.5 380.5Q237 395 272 395Q320 395 345.0 366.0Q370 337 370 280Z" transform="translate(2175.00,0)"/><path d="M5 200H205V275H5Z" transform="translate(2800.00,0)"/><path d="M94 141 31 102Q44 75 69.5 49.0Q95 23 132.0 6.5Q169 -10 215 -10Q286 -10 329.5 30.0Q373 70 373 130Q373 171 353.5 197.0Q334 223 301.0 241.5Q268 260 228 276Q204 286 182.0 297.0Q160 308 146.0 322.0Q132 336 132 354Q132 377 150.0 388.0Q168 399 193 399Q229 399 257.5 382.0Q286 365 305 339L369 380Q355 406 330.0 426.0Q305 446 272.5 458.0Q240 470 203 470Q166 470 131.5 457.0Q97 444 75.5 417.0Q54 390 54 349Q54 309 74.5 282.5Q95 256 125.5 239.5Q156 223 186 211Q213 201 237.0 189.5Q261 178 276.5 161.5Q292 145 292 121Q292 94 272.5 78.5Q253 63 219 63Q191 63 167.5 73.5Q144 84 126.0 102.0Q108 120 94 141Z" transform="translate(3110.00,0)"/><path d="M35 230Q35 161 66.5 106.5Q98 52 152.0 21.0Q206 -10 273 -10Q341 -10 394.5 21.0Q448 52 479.5 106.5Q511 161 511 230Q511 300 479.5 354.0Q448 408 394.5 439.0Q341 470 273 470Q206 470 152.0 439.0Q98 408 66.5 354.0Q35 300 35 230ZM116 230Q116 278 136.5 315.5Q157 353 192.5 374.0Q228 395 273 395Q318 395 353.5 374.0Q389 353 409.5 315.5Q430 278 430 230Q430 182 409.5 145.0Q389 108 353.5 86.5Q318 65 273 65Q228 65 192.5 86.5Q157 108 136.5 145.0Q116 182 116 230Z" transform="translate(3613.00,0)"/><path d="M155 180V460H75V170Q75 88 118.0 39.0Q161 -10 233 -10Q279 -10 313.0 10.5Q347 31 370 72V0H450V460H370V180Q370 146 355.5 120.0Q341 94 314.5 79.5Q288 65 253 65Q205 65 180.0 95.0Q155 125 155 180Z" transform="translate(4259.00,0)"/><path d="M155 460H75V0H155ZM294 372 338 438Q320 457 298.5 463.5Q277 470 252 470Q220 470 189.0 445.0Q158 420 138.5 377.5Q119 335 119 280H155Q155 313 161.5 339.0Q168 365 185.0 380.0Q202 395 232 395Q252 395 265.0 389.5Q278 384 294 372Z" transform="translate(4884.00,0)"/><path d="M111 230Q111 278 131.5 315.5Q152 353 187.5 374.0Q223 395 268 395Q305 395 337.5 383.5Q370 372 394.0 353.0Q418 334 428 311V411Q404 439 359.5 454.5Q315 470 268 470Q201 470 147.0 439.0Q93 408 61.5 354.0Q30 300 30 230Q30 161 61.5 106.5Q93 52 147.0 21.0Q201 -10 268 -10Q315 -10 359.5 5.5Q404 21 428 49V149Q418 127 394.0 107.5Q370 88 337.5 76.5Q305 65 268 65Q223 65 187.5 86.5Q152 108 131.5 145.0Q111 182 111 230Z" transform="translate(5327.00,0)"/><path d="M253 -10Q327 -10 381.5 19.5Q436 49 472 107L407 148Q382 106 346.0 85.5Q310 65 263 65Q216 65 183.0 85.0Q150 105 133.0 143.0Q116 181 116 235Q117 288 134.5 324.5Q152 361 184.5 380.5Q217 400 263 400Q302 400 331.0 383.0Q360 366 376.5 336.0Q393 306 393 265Q393 258 390.0 247.5Q387 237 384 232L416 278H86V210H479Q479 212 479.5 219.5Q480 227 480 234Q480 307 454.0 360.0Q428 413 379.5 441.5Q331 470 263 470Q195 470 143.5 440.0Q92 410 63.5 356.0Q35 302 35 230Q35 159 62.5 105.0Q90 51 139.5 20.5Q189 -10 253 -10Z" transform="translate(5905.00,0)"/><path d="M80 700V0H165V700ZM127 620H270Q338 620 380.5 587.5Q423 555 423 490Q423 426 380.5 393.0Q338 360 270 360H127V280H270Q338 280 391.5 305.5Q445 331 476.5 378.5Q508 426 508 490Q508 555 476.5 602.0Q445 649 391.5 674.5Q338 700 270 700H127Z" transform="translate(6920.00,0)"/><path d="M440 460H350L208 104L241 100L95 460H0L176 65L50 -220H140Z" transform="translate(7568.00,0)"/><path d="M5 460V385H235V460ZM80 620V0H160V620Z" transform="translate(8108.00,0)"/><path d="M155 780H75V0H155ZM370 280V0H450V290Q450 350 430.5 390.0Q411 430 375.5 450.0Q340 470 292 470Q244 470 207.5 445.0Q171 420 150.0 377.5Q129 335 129 280H155Q155 313 169.5 339.0Q184 365 210.5 380.0Q237 395 272 395Q321 395 345.5 366.0Q370 337 370 280Z" transform="translate(8448.00,0)"/><path d="M35 230Q35 161 66.5 106.5Q98 52 152.0 21.0Q206 -10 273 -10Q341 -10 394.5 21.0Q448 52 479.5 106.5Q511 161 511 230Q511 300 479.5 354.0Q448 408 394.5 439.0Q341 470 273 470Q206 470 152.0 439.0Q98 408 66.5 354.0Q35 300 35 230ZM116 230Q116 278 136.5 315.5Q157 353 192.5 374.0Q228 395 273 395Q318 395 353.5 374.0Q389 353 409.5 315.5Q430 278 430 230Q430 182 409.5 145.0Q389 108 353.5 86.5Q318 65 273 65Q228 65 192.5 86.5Q157 108 136.5 145.0Q116 182 116 230Z" transform="translate(9073.00,0)"/><path d="M370 280V0H450V290Q450 373 407.5 421.5Q365 470 292 470Q247 470 212.5 450.0Q178 430 155 388V460H75V0H155V280Q155 314 169.5 340.0Q184 366 210.5 380.5Q237 395 272 395Q320 395 345.0 366.0Q370 337 370 280Z" transform="translate(9719.00,0)"/><path d="M40 460V385H270V460ZM262 684 306 750Q299 760 286.5 769.0Q274 778 257.0 784.0Q240 790 218 790Q176 790 146.5 772.5Q117 755 101.0 720.0Q85 685 85 630V0H165V620Q165 653 171.0 673.0Q177 693 187.5 701.5Q198 710 213 710Q225 710 238.5 705.5Q252 701 262 684Z" transform="translate(10744.00,0)"/><path d="M35 230Q35 161 66.5 106.5Q98 52 152.0 21.0Q206 -10 273 -10Q341 -10 394.5 21.0Q448 52 479.5 106.5Q511 161 511 230Q511 300 479.5 354.0Q448 408 394.5 439.0Q341 470 273 470Q206 470 152.0 439.0Q98 408 66.5 354.0Q35 300 35 230ZM116 230Q116 278 136.5 315.5Q157 353 192.5 374.0Q228 395 273 395Q318 395 353.5 374.0Q389 353 409.5 315.5Q430 278 430 230Q430 182 409.5 145.0Q389 108 353.5 86.5Q318 65 273 65Q228 65 192.5 86.5Q157 108 136.5 145.0Q116 182 116 230Z" transform="translate(11130.00,0)"/><path d="M155 460H75V0H155ZM294 372 338 438Q320 457 298.5 463.5Q277 470 252 470Q220 470 189.0 445.0Q158 420 138.5 377.5Q119 335 119 280H155Q155 313 161.5 339.0Q168 365 185.0 380.0Q202 395 232 395Q252 395 265.0 389.5Q278 384 294 372Z" transform="translate(11776.00,0)"/><path d="M150 -220V460H70V-220ZM535 230Q535 305 504.0 358.5Q473 412 421.5 441.0Q370 470 307 470Q250 470 206.5 441.0Q163 412 138.5 358.5Q114 305 114 230Q114 156 138.5 102.0Q163 48 206.5 19.0Q250 -10 307 -10Q370 -10 421.5 19.0Q473 48 504.0 102.0Q535 156 535 230ZM454 230Q454 177 432.5 140.0Q411 103 375.5 84.0Q340 65 297 65Q262 65 228.0 84.0Q194 103 172.0 140.0Q150 177 150 230Q150 283 172.0 320.0Q194 357 228.0 376.0Q262 395 297 395Q340 395 375.5 376.0Q411 357 432.5 320.0Q454 283 454 230Z" transform="translate(12619.00,0)"/><path d="M155 460H75V0H155ZM294 372 338 438Q320 457 298.5 463.5Q277 470 252 470Q220 470 189.0 445.0Q158 420 138.5 377.5Q119 335 119 280H155Q155 313 161.5 339.0Q168 365 185.0 380.0Q202 395 232 395Q252 395 265.0 389.5Q278 384 294 372Z" transform="translate(13289.00,0)"/><path d="M35 230Q35 161 66.5 106.5Q98 52 152.0 21.0Q206 -10 273 -10Q341 -10 394.5 21.0Q448 52 479.5 106.5Q511 161 511 230Q511 300 479.5 354.0Q448 408 394.5 439.0Q341 470 273 470Q206 470 152.0 439.0Q98 408 66.5 354.0Q35 300 35 230ZM116 230Q116 278 136.5 315.5Q157 353 192.5 374.0Q228 395 273 395Q318 395 353.5 374.0Q389 353 409.5 315.5Q430 278 430 230Q430 182 409.5 145.0Q389 108 353.5 86.5Q318 65 273 65Q228 65 192.5 86.5Q157 108 136.5 145.0Q116 182 116 230Z" transform="translate(13732.00,0)"/><path d="M420 780V0H500V780ZM35 230Q35 156 66.0 102.0Q97 48 149.0 19.0Q201 -10 263 -10Q321 -10 364.0 19.0Q407 48 431.5 102.0Q456 156 456 230Q456 305 431.5 358.5Q407 412 364.0 441.0Q321 470 263 470Q201 470 149.0 441.0Q97 412 66.0 358.5Q35 305 35 230ZM116 230Q116 283 137.5 320.0Q159 357 195.0 376.0Q231 395 273 395Q308 395 342.0 376.0Q376 357 398.0 320.0Q420 283 420 230Q420 177 398.0 140.0Q376 103 342.0 84.0Q308 65 273 65Q231 65 195.0 84.0Q159 103 137.5 140.0Q116 177 116 230Z" transform="translate(14378.00,0)"/><path d="M155 180V460H75V170Q75 88 118.0 39.0Q161 -10 233 -10Q279 -10 313.0 10.5Q347 31 370 72V0H450V460H370V180Q370 146 355.5 120.0Q341 94 314.5 79.5Q288 65 253 65Q205 65 180.0 95.0Q155 125 155 180Z" transform="translate(15048.00,0)"/><path d="M111 230Q111 278 131.5 315.5Q152 353 187.5 374.0Q223 395 268 395Q305 395 337.5 383.5Q370 372 394.0 353.0Q418 334 428 311V411Q404 439 359.5 454.5Q315 470 268 470Q201 470 147.0 439.0Q93 408 61.5 354.0Q30 300 30 230Q30 161 61.5 106.5Q93 52 147.0 21.0Q201 -10 268 -10Q315 -10 359.5 5.5Q404 21 428 49V149Q418 127 394.0 107.5Q370 88 337.5 76.5Q305 65 268 65Q223 65 187.5 86.5Q152 108 131.5 145.0Q111 182 111 230Z" transform="translate(15673.00,0)"/><path d="M5 460V385H235V460ZM80 620V0H160V620Z" transform="translate(16251.00,0)"/><path d="M75 650Q75 628 91.5 611.5Q108 595 130 595Q153 595 169.0 611.5Q185 628 185 650Q185 673 169.0 689.0Q153 705 130 705Q108 705 91.5 689.0Q75 673 75 650ZM90 460V0H170V460Z" transform="translate(16591.00,0)"/><path d="M35 230Q35 161 66.5 106.5Q98 52 152.0 21.0Q206 -10 273 -10Q341 -10 394.5 21.0Q448 52 479.5 106.5Q511 161 511 230Q511 300 479.5 354.0Q448 408 394.5 439.0Q341 470 273 470Q206 470 152.0 439.0Q98 408 66.5 354.0Q35 300 35 230ZM116 230Q116 278 136.5 315.5Q157 353 192.5 374.0Q228 395 273 395Q318 395 353.5 374.0Q389 353 409.5 315.5Q430 278 430 230Q430 182 409.5 145.0Q389 108 353.5 86.5Q318 65 273 65Q228 65 192.5 86.5Q157 108 136.5 145.0Q116 182 116 230Z" transform="translate(16951.00,0)"/><path d="M370 280V0H450V290Q450 373 407.5 421.5Q365 470 292 470Q247 470 212.5 450.0Q178 430 155 388V460H75V0H155V280Q155 314 169.5 340.0Q184 366 210.5 380.5Q237 395 272 395Q320 395 345.0 366.0Q370 337 370 280Z" transform="translate(17597.00,0)"/></g></svg>
