<svg xmlns="http://www.w3.org/2000/svg" viewBox="0 0 1280 640" role="img" aria-label="Modern Python"><rect width="1280" height="640" fill="#2f5e4a"/><g transform="translate(235,108) scale(1.5)"><g fill="none" stroke-width="8" stroke-linecap="butt" stroke-linejoin="miter"><path d="M138 122 L138 50 L210 50" stroke="#f4f1e8"/><path d="M402 128 L402 200 L330 200" stroke="#f0b528"/></g><rect x="202.5" y="42.5" width="15" height="15" rx="3" fill="#f4f1e8"/><rect x="322.5" y="192.5" width="15" height="15" rx="3" fill="#f0b528"/><polygon points="134,120 142,120 142,122 134,130" fill="#f4f1e8"/><polygon points="406,130 398,130 398,128 406,120" fill="#f0b528"/><g fill="#f4f1e8" transform="translate(165.000,126.000) scale(0.050420,-0.050000)"><path d="M177 473 405 65 633 473 685 0H770L685 735L405 228L125 735L40 0H125Z" transform="translate(0.00,0)"/><path d="M130 350Q130 429 164.5 491.0Q199 553 259.0 589.0Q319 625 395 625Q472 625 531.5 589.0Q591 553 625.5 491.0Q660 429 660 350Q660 271 625.5 209.0Q591 147 531.5 111.0Q472 75 395 75Q319 75 259.0 111.0Q199 147 164.5 209.0Q130 271 130 350ZM40 350Q40 274 66.5 208.0Q93 142 141.0 93.5Q189 45 254.0 17.5Q319 -10 395 -10Q472 -10 536.5 17.5Q601 45 649.0 93.5Q697 142 723.5 208.0Q750 274 750 350Q750 427 723.5 492.5Q697 558 649.0 606.5Q601 655 536.5 682.5Q472 710 395 710Q319 710 254.0 682.5Q189 655 141.0 606.5Q93 558 66.5 492.5Q40 427 40 350Z" transform="translate(810.00,0)"/><path d="M80 700V0H165V700ZM290 0Q392 0 471.0 44.0Q550 88 595.0 166.5Q640 245 640 350Q640 455 595.0 533.5Q550 612 471.0 656.0Q392 700 290 700H127V615H290Q349 615 398.0 596.5Q447 578 482.0 543.5Q517 509 536.0 460.0Q555 411 555 350Q555 289 536.0 240.0Q517 191 482.0 156.5Q447 122 398.0 103.5Q349 85 290 85H127V0Z" transform="translate(1600.00,0)"/><path d="M127 0H480V80H127ZM127 620H480V700H127ZM127 340H460V420H127ZM80 700V0H165V700Z" transform="translate(2280.00,0)"/><path d="M205 345 445 0H550L300 345ZM80 700V0H165V700ZM127 625H270Q315 625 349.5 609.0Q384 593 403.5 563.0Q423 533 423 490Q423 447 403.5 417.0Q384 387 349.5 371.0Q315 355 270 355H127V280H270Q338 280 391.5 305.5Q445 331 476.5 378.5Q508 426 508 490Q508 555 476.5 602.0Q445 649 391.5 674.5Q338 700 270 700H127Z" transform="translate(2830.00,0)"/><path d="M610 700V179L80 735V0H165V521L695 -35V700Z" transform="translate(3390.00,0)"/></g><g fill="#f0b528" transform="translate(165.000,166.000) scale(0.054489,-0.050000)"><path d="M80 700V0H165V700ZM127 620H270Q338 620 380.5 587.5Q423 555 423 490Q423 426 380.5 393.0Q338 360 270 360H127V280H270Q338 280 391.5 305.5Q445 331 476.5 378.5Q508 426 508 490Q508 555 476.5 602.0Q445 649 391.5 674.5Q338 700 270 700H127Z" transform="translate(0.00,0)"/><path d="M461 700 280 376 100 700H5L238 301V0H323V302L556 700Z" transform="translate(548.00,0)"/><path d="M10 620H190V0H275V620H455V700H10Z" transform="translate(1109.00,0)"/><path d="M127 340H607V420H127ZM550 700V0H635V700ZM80 700V0H165V700Z" transform="translate(1574.00,0)"/><path d="M130 350Q130 429 164.5 491.0Q199 553 259.0 589.0Q319 625 395 625Q472 625 531.5 589.0Q591 553 625.5 491.0Q660 429 660 350Q660 271 625.5 209.0Q591 147 531.5 111.0Q472 75 395 75Q319 75 259.0 111.0Q199 147 164.5 209.0Q130 271 130 350ZM40 350Q40 274 66.5 208.0Q93 142 141.0 93.5Q189 45 254.0 17.5Q319 -10 395 -10Q472 -10 536.5 17.5Q601 45 649.0 93.5Q697 142 723.5 208.0Q750 274 750 350Q750 427 723.5 492.5Q697 558 649.0 606.5Q601 655 536.5 682.5Q472 710 395 710Q319 710 254.0 682.5Q189 655 141.0 606.5Q93 558 66.5 492.5Q40 427 40 350Z" transform="translate(2289.00,0)"/><path d="M610 700V179L80 735V0H165V521L695 -35V700Z" transform="translate(3079.00,0)"/></g></g><g fill="#f0b528" transform="translate(470.402,575.000) scale(0.034000,-0.034000)"><path d="M705 290Q705 347 687.5 387.5Q670 428 637.0 449.0Q604 470 557 470Q511 470 475.0 448.5Q439 427 415 384Q399 425 364.5 447.5Q330 470 282 470Q239 470 207.5 451.0Q176 432 155 393V460H75V0H155V280Q155 316 168.0 342.0Q181 368 205.0 381.5Q229 395 262 395Q307 395 328.5 367.0Q350 339 350 280V0H430V280Q430 316 443.0 342.0Q456 368 480.0 381.5Q504 395 537 395Q582 395 603.5 367.0Q625 339 625 280V0H705Z" transform="translate(0.00,0)"/><path d="M35 230Q35 161 66.5 106.5Q98 52 152.0 21.0Q206 -10 273 -10Q341 -10 394.5 21.0Q448 52 479.5 106.5Q511 161 511 230Q511 300 479.5 354.0Q448 408 394.5 439.0Q341 470 273 470Q206 470 152.0 439.0Q98 408 66.5 354.0Q35 300 35 230ZM116 230Q116 278 136.5 315.5Q157 353 192.5 374.0Q228 395 273 395Q318 395 353.5 374.0Q389 353 409.5 315.5Q430 278 430 230Q430 182 409.5 145.0Q389 108 353.5 86.5Q318 65 273 65Q228 65 192.5 86.5Q157 108 136.5 145.0Q116 182 116 230Z" transform="translate(897.65,0)"/><path d="M420 780V0H500V780ZM35 230Q35 156 66.0 102.0Q97 48 149.0 19.0Q201 -10 263 -10Q321 -10 364.0 19.0Q407 48 431.5 102.0Q456 156 456 230Q456 305 431.5 358.5Q407 412 364.0 441.0Q321 470 263 470Q201 470 149.0 441.0Q97 412 66.0 358.5Q35 305 35 230ZM116 230Q116 283 137.5 320.0Q159 357 195.0 376.0Q231 395 273 395Q308 395 342.0 376.0Q376 357 398.0 320.0Q420 283 420 230Q420 177 398.0 140.0Q376 103 342.0 84.0Q308 65 273 65Q231 65 195.0 84.0Q159 103 137.5 140.0Q116 177 116 230Z" transform="translate(1561.29,0)"/><path d="M253 -10Q327 -10 381.5 19.5Q436 49 472 107L407 148Q382 106 346.0 85.5Q310 65 263 65Q216 65 183.0 85.0Q150 105 133.0 143.0Q116 181 116 235Q117 288 134.5 324.5Q152 361 184.5 380.5Q217 400 263 400Q302 400 331.0 383.0Q360 366 376.5 336.0Q393 306 393 265Q393 258 390.0 247.5Q387 237 384 232L416 278H86V210H479Q479 212 479.5 219.5Q480 227 480 234Q480 307 454.0 360.0Q428 413 379.5 441.5Q331 470 263 470Q195 470 143.5 440.0Q92 410 63.5 356.0Q35 302 35 230Q35 159 62.5 105.0Q90 51 139.5 20.5Q189 -10 253 -10Z" transform="translate(2248.94,0)"/><path d="M155 460H75V0H155ZM294 372 338 438Q320 457 298.5 463.5Q277 470 252 470Q220 470 189.0 445.0Q158 420 138.5 377.5Q119 335 119 280H155Q155 313 161.5 339.0Q168 365 185.0 380.0Q202 395 232 395Q252 395 265.0 389.5Q278 384 294 372Z" transform="translate(2881.59,0)"/><path d="M370 280V0H450V290Q450 373 407.5 421.5Q365 470 292 470Q247 470 212.5 450.0Q178 430 155 388V460H75V0H155V280Q155 314 169.5 340.0Q184 366 210.5 380.5Q237 395 272 395Q320 395 345.0 366.0Q370 337 370 280Z" transform="translate(3342.24,0)"/><path d="M5 200H205V275H5Z" transform="translate(3984.88,0)"/><path d="M150 -220V460H70V-220ZM535 230Q535 305 504.0 358.5Q473 412 421.5 441.0Q370 470 307 470Q250 470 206.5 441.0Q163 412 138.5 358.5Q114 305 114 230Q114 156 138.5 102.0Q163 48 206.5 19.0Q250 -10 307 -10Q370 -10 421.5 19.0Q473 48 504.0 102.0Q535 156 535 230ZM454 230Q454 177 432.5 140.0Q411 103 375.5 84.0Q340 65 297 65Q262 65 228.0 84.0Q194 103 172.0 140.0Q150 177 150 230Q150 283 172.0 320.0Q194 357 228.0 376.0Q262 395 297 395Q340 395 375.5 376.0Q411 357 432.5 320.0Q454 283 454 230Z" transform="translate(4312.53,0)"/><path d="M440 460H350L208 104L241 100L95 460H0L176 65L50 -220H140Z" transform="translate(5000.18,0)"/><path d="M5 460V385H235V460ZM80 620V0H160V620Z" transform="translate(5557.82,0)"/><path d="M155 780H75V0H155ZM370 280V0H450V290Q450 350 430.5 390.0Q411 430 375.5 450.0Q340 470 292 470Q244 470 207.5 445.0Q171 420 150.0 377.5Q129 335 129 280H155Q155 313 169.5 339.0Q184 365 210.5 380.0Q237 395 272 395Q321 395 345.5 366.0Q370 337 370 280Z" transform="translate(5915.47,0)"/><path d="M35 230Q35 161 66.5 106.5Q98 52 152.0 21.0Q206 -10 273 -10Q341 -10 394.5 21.0Q448 52 479.5 106.5Q511 161 511 230Q511 300 479.5 354.0Q448 408 394.5 439.0Q341 470 273 470Q206 470 152.0 439.0Q98 408 66.5 354.0Q35 300 35 230ZM116 230Q116 278 136.5 315.5Q157 353 192.5 374.0Q228 395 273 395Q318 395 353.5 374.0Q389 353 409.5 315.5Q430 278 430 230Q430 182 409.5 145.0Q389 108 353.5 86.5Q318 65 273 65Q228 65 192.5 86.5Q157 108 136.5 145.0Q116 182 116 230Z" transform="translate(6558.12,0)"/><path d="M370 280V0H450V290Q450 373 407.5 421.5Q365 470 292 470Q247 470 212.5 450.0Q178 430 155 388V460H75V0H155V280Q155 314 169.5 340.0Q184 366 210.5 380.5Q237 395 272 395Q320 395 345.0 366.0Q370 337 370 280Z" transform="translate(7221.76,0)"/><path d="M95 40Q95 18 111.5 1.5Q128 -15 150 -15Q173 -15 189.0 1.5Q205 18 205 40Q205 63 189.0 79.0Q173 95 150 95Q128 95 111.5 79.0Q95 63 95 40Z" transform="translate(7864.41,0)"/><path d="M35 230Q35 161 66.5 106.5Q98 52 152.0 21.0Q206 -10 273 -10Q341 -10 394.5 21.0Q448 52 479.5 106.5Q511 161 511 230Q511 300 479.5 354.0Q448 408 394.5 439.0Q341 470 273 470Q206 470 152.0 439.0Q98 408 66.5 354.0Q35 300 35 230ZM116 230Q116 278 136.5 315.5Q157 353 192.5 374.0Q228 395 273 395Q318 395 353.5 374.0Q389 353 409.5 315.5Q430 278 430 230Q430 182 409.5 145.0Q389 108 353.5 86.5Q318 65 273 65Q228 65 192.5 86.5Q157 108 136.5 145.0Q116 182 116 230Z" transform="translate(8282.06,0)"/><path d="M155 460H75V0H155ZM294 372 338 438Q320 457 298.5 463.5Q277 470 252 470Q220 470 189.0 445.0Q158 420 138.5 377.5Q119 335 119 280H155Q155 313 161.5 339.0Q168 365 185.0 380.0Q202 395 232 395Q252 395 265.0 389.5Q278 384 294 372Z" transform="translate(8945.71,0)"/><path d="M44 -30Q44 -89 73.0 -134.5Q102 -180 153.5 -205.0Q205 -230 272 -230Q330 -230 382.0 -203.0Q434 -176 467.0 -122.5Q500 -69 500 10V460H420V10Q420 -48 397.5 -84.5Q375 -121 341.0 -138.0Q307 -155 272 -155Q227 -155 194.0 -137.5Q161 -120 143.0 -91.5Q125 -63 125 -30ZM35 230Q35 156 66.0 102.0Q97 48 149.0 19.0Q201 -10 263 -10Q321 -10 364.0 19.0Q407 48 431.5 102.0Q456 156 456 230Q456 305 431.5 358.5Q407 412 364.0 441.0Q321 470 263 470Q201 470 149.0 441.0Q97 412 66.0 358.5Q35 305 35 230ZM116 230Q116 283 137.5 320.0Q159 357 195.0 376.0Q231 395 273 395Q299 395 325.0 384.0Q351 373 372.5 352.0Q394 331 407.0 300.5Q420 270 420 230Q420 177 398.0 140.0Q376 103 342.0 84.0Q308 65 273 65Q231 65 195.0 84.0Q159 103 137.5 140.0Q116 177 116 230Z" transform="translate(9406.35,0)"/></g></svg>
