<svg xmlns="http://www.w3.org/2000/svg" viewBox="118 32 304 184" role="img" aria-label="Modern Python"><g fill="none" stroke-width="8" stroke-linecap="butt" stroke-linejoin="miter"><path d="M138 122 L138 50 L210 50" stroke="#f4f1e8"/><path d="M402 128 L402 200 L330 200" stroke="#f0b528"/></g><rect x="202.5" y="42.5" width="15" height="15" rx="3" fill="#f4f1e8"/><rect x="322.5" y="192.5" width="15" height="15" rx="3" fill="#f0b528"/><polygon points="134,120 142,120 142,122 134,130" fill="#f4f1e8"/><polygon points="406,130 398,130 398,128 406,120" fill="#f0b528"/><g fill="#f4f1e8" transform="translate(165.000,126.000) scale(0.050420,-0.050000)"><path d="M177 473 405 65 633 473 685 0H770L685 735L405 228L125 735L40 0H125Z" transform="translate(0.00,0)"/><path d="M130 350Q130 429 164.5 491.0Q199 553 259.0 589.0Q319 625 395 625Q472 625 531.5 589.0Q591 553 625.5 491.0Q660 429 660 350Q660 271 625.5 209.0Q591 147 531.5 111.0Q472 75 395 75Q319 75 259.0 111.0Q199 147 164.5 209.0Q130 271 130 350ZM40 350Q40 274 66.5 208.0Q93 142 141.0 93.5Q189 45 254.0 17.5Q319 -10 395 -10Q472 -10 536.5 17.5Q601 45 649.0 93.5Q697 142 723.5 208.0Q750 274 750 350Q750 427 723.5 492.5Q697 558 649.0 606.5Q601 655 536.5 682.5Q472 710 395 710Q319 710 254.0 682.5Q189 655 141.0 606.5Q93 558 66.5 492.5Q40 427 40 350Z" transform="translate(810.00,0)"/><path d="M80 700V0H165V700ZM290 0Q392 0 471.0 44.0Q550 88 595.0 166.5Q640 245 640 350Q640 455 595.0 533.5Q550 612 471.0 656.0Q392 700 290 700H127V615H290Q349 615 398.0 596.5Q447 578 482.0 543.5Q517 509 536.0 460.0Q555 411 555 350Q555 289 536.0 240.0Q517 191 482.0 156.5Q447 122 398.0 103.5Q349 85 290 85H127V0Z" transform="translate(1600.00,0)"/><path d="M127 0H480V80H127ZM127 620H480V700H127ZM127 340H460V420H127ZM80 700V0H165V700Z" transform="translate(2280.00,0)"/><path d="M205 345 445 0H550L300 345ZM80 700V0H165V700ZM127 625H270Q315 625 349.5 609.0Q384 593 403.5 563.0Q423 533 423 490Q423 447 403.5 417.0Q384 387 349.5 371.0Q315 355 270 355H127V280H270Q338 280 391.5 305.5Q445 331 476.5 378.5Q508 426 508 490Q508 555 476.5 602.0Q445 649 391.5 674.5Q338 700 270 700H127Z" transform="translate(2830.00,0)"/><path d="M610 700V179L80 735V0H165V521L695 -35V700Z" transform="translate(3390.00,0)"/></g><g fill="#f0b528" transform="translate(165.000,166.000) scale(0.054489,-0.050000)"><path d="M80 700V0H165V700ZM127 620H270Q338 620 380.5 587.5Q423 555 423 490Q423 426 380.5 393.0Q338 360 270 360H127V280H270Q338 280 391.5 305.5Q445 331 476.5 378.5Q508 426 508 490Q508 555 476.5 602.0Q445 649 391.5 674.5Q338 700 270 700H127Z" transform="translate(0.00,0)"/><path d="M461 700 280 376 100 700H5L238 301V0H323V302L556 700Z" transform="translate(548.00,0)"/><path d="M10 620H190V0H275V620H455V700H10Z" transform="translate(1109.00,0)"/><path d="M127 340H607V420H127ZM550 700V0H635V700ZM80 700V0H165V700Z" transform="translate(1574.00,0)"/><path d="M130 350Q130 429 164.5 491.0Q199 553 259.0 589.0Q319 625 395 625Q472 625 531.5 589.0Q591 553 625.5 491.0Q660 429 660 350Q660 271 625.5 209.0Q591 147 531.5 111.0Q472 75 395 75Q319 75 259.0 111.0Q199 147 164.5 209.0Q130 271 130 350ZM40 350Q40 274 66.5 208.0Q93 142 141.0 93.5Q189 45 254.0 17.5Q319 -10 395 -10Q472 -10 536.5 17.5Q601 45 649.0 93.5Q697 142 723.5 208.0Q750 274 750 350Q750 427 723.5 492.5Q697 558 649.0 606.5Q601 655 536.5 682.5Q472 710 395 710Q319 710 254.0 682.5Q189 655 141.0 606.5Q93 558 66.5 492.5Q40 427 40 350Z" transform="translate(2289.00,0)"/><path d="M610 700V179L80 735V0H165V521L695 -35V700Z" transform="translate(3079.00,0)"/></g></svg>
