<svg xmlns="http://www.w3.org/2000/svg" viewBox="0 0 522 100" role="img" aria-label="fastapi-sqlalchemy-template"><g><path d="M9 62 L9 9 L62 9" fill="none" stroke="#356852" stroke-width="11" stroke-linejoin="miter"/><rect x="55.0" y="2.0" width="14" height="14" rx="2" fill="#356852"/><polygon points="3.5,60.0 14.5,60.0 14.5,62.0 3.5,73.0" fill="#356852"/><path d="M91 38 L91 91 L38 91" fill="none" stroke="#c98a00" stroke-width="11" stroke-linejoin="miter"/><rect x="31.0" y="84.0" width="14" height="14" rx="2" fill="#c98a00"/><polygon points="96.5,40.0 85.5,40.0 85.5,38.0 96.5,27.0" fill="#c98a00"/><polyline points="40.1,28.0 65.4,50.0 40.1,72.0" fill="none" stroke="#c98a00" stroke-width="11.0" stroke-linecap="round" stroke-linejoin="round"/></g><g fill="#356852" transform="translate(118.000,61.560) scale(0.034000,-0.034000)"><path d="M40 460V385H270V460ZM262 684 306 750Q299 760 286.5 769.0Q274 778 257.0 784.0Q240 790 218 790Q176 790 146.5 772.5Q117 755 101.0 720.0Q85 685 85 630V0H165V620Q165 653 171.0 673.0Q177 693 187.5 701.5Q198 710 213 710Q225 710 238.5 705.5Q252 701 262 684Z" transform="translate(0.00,0)"/><path d="M111 142Q111 167 123.0 185.0Q135 203 159.5 213.0Q184 223 223 223Q265 223 302.0 212.5Q339 202 374 178V225Q367 234 347.0 248.5Q327 263 293.5 274.5Q260 286 210 286Q125 286 77.5 245.5Q30 205 30 138Q30 91 52.0 58.0Q74 25 110.5 7.5Q147 -10 189 -10Q227 -10 265.5 4.0Q304 18 330.5 47.0Q357 76 357 120L341 180Q341 144 323.5 116.5Q306 89 276.5 74.0Q247 59 210 59Q181 59 158.5 68.5Q136 78 123.5 97.0Q111 116 111 142ZM99 354Q110 362 129.0 373.0Q148 384 175.5 392.0Q203 400 237 400Q258 400 277.0 396.0Q296 392 310.5 383.0Q325 374 333.0 358.5Q341 343 341 319V0H421V330Q421 375 398.5 406.0Q376 437 335.5 453.5Q295 470 241 470Q177 470 131.5 451.0Q86 432 60 413Z" transform="translate(286.00,0)"/><path d="M94 141 31 102Q44 75 69.5 49.0Q95 23 132.0 6.5Q169 -10 215 -10Q286 -10 329.5 30.0Q373 70 373 130Q373 171 353.5 197.0Q334 223 301.0 241.5Q268 260 228 276Q204 286 182.0 297.0Q160 308 146.0 322.0Q132 336 132 354Q132 377 150.0 388.0Q168 399 193 399Q229 399 257.5 382.0Q286 365 305 339L369 380Q355 406 330.0 426.0Q305 446 272.5 458.0Q240 470 203 470Q166 470 131.5 457.0Q97 444 75.5 417.0Q54 390 54 349Q54 309 74.5 282.5Q95 256 125.5 239.5Q156 223 186 211Q213 201 237.0 189.5Q261 178 276.5 161.5Q292 145 292 121Q292 94 272.5 78.5Q253 63 219 63Q191 63 167.5 73.5Q144 84 126.0 102.0Q108 120 94 141Z" transform="translate(767.00,0)"/><path d="M5 460V385H235V460ZM80 620V0H160V620Z" transform="translate(1170.00,0)"/><path d="M111 142Q111 167 123.0 185.0Q135 203 159.5 213.0Q184 223 223 223Q265 223 302.0 212.5Q339 202 374 178V225Q367 234 347.0 248.5Q327 263 293.5 274.5Q260 286 210 286Q125 286 77.5 245.5Q30 205 30 138Q30 91 52.0 58.0Q74 25 110.5 7.5Q147 -10 189 -10Q227 -10 265.5 4.0Q304 18 330.5 47.0Q357 76 357 120L341 180Q341 144 323.5 116.5Q306 89 276.5 74.0Q247 59 210 59Q181 59 158.5 68.5Q136 78 123.5 97.0Q111 116 111 142ZM99 354Q110 362 129.0 373.0Q148 384 175.5 392.0Q203 400 237 400Q258 400 277.0 396.0Q296 392 310.5 383.0Q325 374 333.0 358.5Q341 343 341 319V0H421V330Q421 375 398.5 406.0Q376 437 335.5 453.5Q295 470 241 470Q177 470 131.5 451.0Q86 432 60 413Z" transform="translate(1410.00,0)"/><path d="M150 -220V460H70V-220ZM535 230Q535 305 504.0 358.5Q473 412 421.5 441.0Q370 470 307 470Q250 470 206.5 441.0Q163 412 138.5 358.5Q114 305 114 230Q114 156 138.5 102.0Q163 48 206.5 19.0Q250 -10 307 -10Q370 -10 421.5 19.0Q473 48 504.0 102.0Q535 156 535 230ZM454 230Q454 177 432.5 140.0Q411 103 375.5 84.0Q340 65 297 65Q262 65 228.0 84.0Q194 103 172.0 140.0Q150 177 150 230Q150 283 172.0 320.0Q194 357 228.0 376.0Q262 395 297 395Q340 395 375.5 376.0Q411 357 432.5 320.0Q454 283 454 230Z" transform="translate(1891.00,0)"/><path d="M75 650Q75 628 91.5 611.5Q108 595 130 595Q153 595 169.0 611.5Q185 628 185 650Q185 673 169.0 689.0Q153 705 130 705Q108 705 91.5 689.0Q75 673 75 650ZM90 460V0H170V460Z" transform="translate(2461.00,0)"/><path d="M5 200H205V275H5Z" transform="translate(2721.00,0)"/><path d="M94 141 31 102Q44 75 69.5 49.0Q95 23 132.0 6.5Q169 -10 215 -10Q286 -10 329.5 30.0Q373 70 373 130Q373 171 353.5 197.0Q334 223 301.0 241.5Q268 260 228 276Q204 286 182.0 297.0Q160 308 146.0 322.0Q132 336 132 354Q132 377 150.0 388.0Q168 399 193 399Q229 399 257.5 382.0Q286 365 305 339L369 380Q355 406 330.0 426.0Q305 446 272.5 458.0Q240 470 203 470Q166 470 131.5 457.0Q97 444 75.5 417.0Q54 390 54 349Q54 309 74.5 282.5Q95 256 125.5 239.5Q156 223 186 211Q213 201 237.0 189.5Q261 178 276.5 161.5Q292 145 292 121Q292 94 272.5 78.5Q253 63 219 63Q191 63 167.5 73.5Q144 84 126.0 102.0Q108 120 94 141Z" transform="translate(2931.00,0)"/><path d="M420 -220H500V460H420ZM35 230Q35 156 66.0 102.0Q97 48 149.0 19.0Q201 -10 263 -10Q321 -10 364.0 19.0Q407 48 431.5 102.0Q456 156 456 230Q456 305 431.5 358.5Q407 412 364.0 441.0Q321 470 263 470Q201 470 149.0 441.0Q97 412 66.0 358.5Q35 305 35 230ZM116 230Q116 283 137.5 320.0Q159 357 195.0 376.0Q231 395 273 395Q308 395 342.0 376.0Q376 357 398.0 320.0Q420 283 420 230Q420 177 398.0 140.0Q376 103 342.0 84.0Q308 65 273 65Q231 65 195.0 84.0Q159 103 137.5 140.0Q116 177 116 230Z" transform="translate(3334.00,0)"/><path d="M75 780V0H155V780Z" transform="translate(3904.00,0)"/><path d="M111 142Q111 167 123.0 185.0Q135 203 159.5 213.0Q184 223 223 223Q265 223 302.0 212.5Q339 202 374 178V225Q367 234 347.0 248.5Q327 263 293.5 274.5Q260 286 210 286Q125 286 77.5 245.5Q30 205 30 138Q30 91 52.0 58.0Q74 25 110.5 7.5Q147 -10 189 -10Q227 -10 265.5 4.0Q304 18 330.5 47.0Q357 76 357 120L341 180Q341 144 323.5 116.5Q306 89 276.5 74.0Q247 59 210 59Q181 59 158.5 68.5Q136 78 123.5 97.0Q111 116 111 142ZM99 354Q110 362 129.0 373.0Q148 384 175.5 392.0Q203 400 237 400Q258 400 277.0 396.0Q296 392 310.5 383.0Q325 374 333.0 358.5Q341 343 341 319V0H421V330Q421 375 398.5 406.0Q376 437 335.5 453.5Q295 470 241 470Q177 470 131.5 451.0Q86 432 60 413Z" transform="translate(4134.00,0)"/><path d="M75 780V0H155V780Z" transform="translate(4615.00,0)"/><path d="M111 230Q111 278 131.5 315.5Q152 353 187.5 374.0Q223 395 268 395Q305 395 337.5 383.5Q370 372 394.0 353.0Q418 334 428 311V411Q404 439 359.5 454.5Q315 470 268 470Q201 470 147.0 439.0Q93 408 61.5 354.0Q30 300 30 230Q30 161 61.5 106.5Q93 52 147.0 21.0Q201 -10 268 -10Q315 -10 359.5 5.5Q404 21 428 49V149Q418 127 394.0 107.5Q370 88 337.5 76.5Q305 65 268 65Q223 65 187.5 86.5Q152 108 131.5 145.0Q111 182 111 230Z" transform="translate(4845.00,0)"/><path d="M155 780H75V0H155ZM370 280V0H450V290Q450 350 430.5 390.0Q411 430 375.5 450.0Q340 470 292 470Q244 470 207.5 445.0Q171 420 150.0 377.5Q129 335 129 280H155Q155 313 169.5 339.0Q184 365 210.5 380.0Q237 395 272 395Q321 395 345.5 366.0Q370 337 370 280Z" transform="translate(5323.00,0)"/><path d="M253 -10Q327 -10 381.5 19.5Q436 49 472 107L407 148Q382 106 346.0 85.5Q310 65 263 65Q216 65 183.0 85.0Q150 105 133.0 143.0Q116 181 116 235Q117 288 134.5 324.5Q152 361 184.5 380.5Q217 400 263 400Q302 400 331.0 383.0Q360 366 376.5 336.0Q393 306 393 265Q393 258 390.0 247.5Q387 237 384 232L416 278H86V210H479Q479 212 479.5 219.5Q480 227 480 234Q480 307 454.0 360.0Q428 413 379.5 441.5Q331 470 263 470Q195 470 143.5 440.0Q92 410 63.5 356.0Q35 302 35 230Q35 159 62.5 105.0Q90 51 139.5 20.5Q189 -10 253 -10Z" transform="translate(5848.00,0)"/><path d="M705 290Q705 347 687.5 387.5Q670 428 637.0 449.0Q604 470 557 470Q511 470 475.0 448.5Q439 427 415 384Q399 425 364.5 447.5Q330 470 282 470Q239 470 207.5 451.0Q176 432 155 393V460H75V0H155V280Q155 316 168.0 342.0Q181 368 205.0 381.5Q229 395 262 395Q307 395 328.5 367.0Q350 339 350 280V0H430V280Q430 316 443.0 342.0Q456 368 480.0 381.5Q504 395 537 395Q582 395 603.5 367.0Q625 339 625 280V0H705Z" transform="translate(6363.00,0)"/><path d="M440 460H350L208 104L241 100L95 460H0L176 65L50 -220H140Z" transform="translate(7143.00,0)"/><path d="M5 200H205V275H5Z" transform="translate(7583.00,0)"/><path d="M5 460V385H235V460ZM80 620V0H160V620Z" transform="translate(7793.00,0)"/><path d="M253 -10Q327 -10 381.5 19.5Q436 49 472 107L407 148Q382 106 346.0 85.5Q310 65 263 65Q216 65 183.0 85.0Q150 105 133.0 143.0Q116 181 116 235Q117 288 134.5 324.5Q152 361 184.5 380.5Q217 400 263 400Q302 400 331.0 383.0Q360 366 376.5 336.0Q393 306 393 265Q393 258 390.0 247.5Q387 237 384 232L416 278H86V210H479Q479 212 479.5 219.5Q480 227 480 234Q480 307 454.0 360.0Q428 413 379.5 441.5Q331 470 263 470Q195 470 143.5 440.0Q92 410 63.5 356.0Q35 302 35 230Q35 159 62.5 105.0Q90 51 139.5 20.5Q189 -10 253 -10Z" transform="translate(8033.00,0)"/><path d="M705 290Q705 347 687.5 387.5Q670 428 637.0 449.0Q604 470 557 470Q511 470 475.0 448.5Q439 427 415 384Q399 425 364.5 447.5Q330 470 282 470Q239 470 207.5 451.0Q176 432 155 393V460H75V0H155V280Q155 316 168.0 342.0Q181 368 205.0 381.5Q229 395 262 395Q307 395 328.5 367.0Q350 339 350 280V0H430V280Q430 316 443.0 342.0Q456 368 480.0 381.5Q504 395 537 395Q582 395 603.5 367.0Q625 339 625 280V0H705Z" transform="translate(8548.00,0)"/><path d="M150 -220V460H70V-220ZM535 230Q535 305 504.0 358.5Q473 412 421.5 441.0Q370 470 307 470Q250 470 206.5 441.0Q163 412 138.5 358.5Q114 305 114 230Q114 156 138.5 102.0Q163 48 206.5 19.0Q250 -10 307 -10Q370 -10 421.5 19.0Q473 48 504.0 102.0Q535 156 535 230ZM454 230Q454 177 432.5 140.0Q411 103 375.5 84.0Q340 65 297 65Q262 65 228.0 84.0Q194 103 172.0 140.0Q150 177 150 230Q150 283 172.0 320.0Q194 357 228.0 376.0Q262 395 297 395Q340 395 375.5 376.0Q411 357 432.5 320.0Q454 283 454 230Z" transform="translate(9328.00,0)"/><path d="M75 780V0H155V780Z" transform="translate(9898.00,0)"/><path d="M111 142Q111 167 123.0 185.0Q135 203 159.5 213.0Q184 223 223 223Q265 223 302.0 212.5Q339 202 374 178V225Q367 234 347.0 248.5Q327 263 293.5 274.5Q260 286 210 286Q125 286 77.5 245.5Q30 205 30 138Q30 91 52.0 58.0Q74 25 110.5 7.5Q147 -10 189 -10Q227 -10 265.5 4.0Q304 18 330.5 47.0Q357 76 357 120L341 180Q341 144 323.5 116.5Q306 89 276.5 74.0Q247 59 210 59Q181 59 158.5 68.5Q136 78 123.5 97.0Q111 116 111 142ZM99 354Q110 362 129.0 373.0Q148 384 175.5 392.0Q203 400 237 400Q258 400 277.0 396.0Q296 392 310.5 383.0Q325 374 333.0 358.5Q341 343 341 319V0H421V330Q421 375 398.5 406.0Q376 437 335.5 453.5Q295 470 241 470Q177 470 131.5 451.0Q86 432 60 413Z" transform="translate(10128.00,0)"/><path d="M5 460V385H235V460ZM80 620V0H160V620Z" transform="translate(10609.00,0)"/><path d="M253 -10Q327 -10 381.5 19.5Q436 49 472 107L407 148Q382 106 346.0 85.5Q310 65 263 65Q216 65 183.0 85.0Q150 105 133.0 143.0Q116 181 116 235Q117 288 134.5 324.5Q152 361 184.5 380.5Q217 400 263 400Q302 400 331.0 383.0Q360 366 376.5 336.0Q393 306 393 265Q393 258 390.0 247.5Q387 237 384 232L416 278H86V210H479Q479 212 479.5 219.5Q480 227 480 234Q480 307 454.0 360.0Q428 413 379.5 441.5Q331 470 263 470Q195 470 143.5 440.0Q92 410 63.5 356.0Q35 302 35 230Q35 159 62.5 105.0Q90 51 139.5 20.5Q189 -10 253 -10Z" transform="translate(10849.00,0)"/></g></svg>
