<svg xmlns="http://www.w3.org/2000/svg" viewBox="0 0 128 140" role="img" aria-label="fastapi-sqlalchemy-template"><svg x="16" y="0" width="96" height="96" viewBox="0 0 100 100"><g fill="none" stroke-linecap="round" stroke-linejoin="round"><g stroke="#3f8064" stroke-width="8"><path d="M20 35 L20 65 Q20 80 35 80 L65 80 Q80 80 80 65 L80 35 Q80 20 65 20 L35 20"/><circle cx="35" cy="20" r="5.5" fill="#3f8064" stroke="none"/></g></g><g fill="#2dd4bf"><rect x="37" y="39" width="26" height="6" rx="3"/><rect x="37" y="48" width="26" height="6" rx="3"/><rect x="37" y="57" width="26" height="6" rx="3"/></g></svg><g fill="#3f8064" transform="translate(-114.200,128.000) scale(0.02200,-0.02200)"><path d="M208 0V377H52V475H208V581Q208 650 252.0 690.0Q296 730 372 730H533V634H374Q316 634 316 580V475H533V377H316V0Z" transform="translate(0,0)"/><path d="M245 -10Q161 -10 111.5 37.5Q62 85 62 162Q62 240 115.0 287.5Q168 335 256 335H408V375Q408 470 301 470Q253 470 224.0 452.0Q195 434 193 402H87Q92 471 149.0 515.5Q206 560 302 560Q404 560 460.0 511.5Q516 463 516 376V0H410V103H409Q402 50 359.0 20.0Q316 -10 245 -10ZM276 79Q337 79 372.5 108.5Q408 138 408 188V259H264Q221 259 195.5 234.0Q170 209 170 170Q170 128 198.0 103.5Q226 79 276 79Z" transform="translate(600,0)"/><path d="M278 -9Q183 -9 129.0 34.0Q75 77 75 154H182Q182 119 207.0 99.5Q232 80 278 80H322Q369 80 395.0 99.5Q421 119 421 155Q421 218 354 227L209 247Q148 255 114.5 295.5Q81 336 81 401Q81 476 132.0 517.5Q183 559 276 559H321Q407 559 460.5 518.0Q514 477 517 410H409Q407 437 383.5 454.5Q360 472 321 472H276Q233 472 209.5 453.0Q186 434 186 402Q186 351 243 343L379 325Q526 305 526 156Q526 77 473.0 34.0Q420 -9 322 -9Z" transform="translate(1200,0)"/><path d="M355 0Q282 0 239.0 42.0Q196 84 196 156V452H41V550H196V705H304V550H526V452H304V157Q304 131 319.0 114.5Q334 98 360 98H521V0Z" transform="translate(1800,0)"/><path d="M245 -10Q161 -10 111.5 37.5Q62 85 62 162Q62 240 115.0 287.5Q168 335 256 335H408V375Q408 470 301 470Q253 470 224.0 452.0Q195 434 193 402H87Q92 471 149.0 515.5Q206 560 302 560Q404 560 460.0 511.5Q516 463 516 376V0H410V103H409Q402 50 359.0 20.0Q316 -10 245 -10ZM276 79Q337 79 372.5 108.5Q408 138 408 188V259H264Q221 259 195.5 234.0Q170 209 170 170Q170 128 198.0 103.5Q226 79 276 79Z" transform="translate(2400,0)"/><path d="M84 -180V550H191V446Q202 500 241.5 530.0Q281 560 341 560Q423 560 472.0 503.5Q521 447 521 353V198Q521 103 472.0 46.5Q423 -10 341 -10Q281 -10 241.0 21.5Q201 53 190 108H189L192 -23V-180ZM303 84Q355 84 384.0 111.5Q413 139 413 200V351Q413 411 384.0 438.5Q355 466 303 466Q251 466 221.5 434.5Q192 403 192 346V205Q192 147 221.5 115.5Q251 84 303 84Z" transform="translate(3000,0)"/><path d="M81 0V98H272V452H101V550H380V98H557V0ZM317 645Q282 645 261.0 663.5Q240 682 240 713Q240 745 261.0 763.5Q282 782 317 782Q352 782 373.0 763.5Q394 745 394 713Q394 682 373.0 663.5Q352 645 317 645Z" transform="translate(3600,0)"/><path d="M140 281V379H460V281Z" transform="translate(4200,0)"/><path d="M278 -9Q183 -9 129.0 34.0Q75 77 75 154H182Q182 119 207.0 99.5Q232 80 278 80H322Q369 80 395.0 99.5Q421 119 421 155Q421 218 354 227L209 247Q148 255 114.5 295.5Q81 336 81 401Q81 476 132.0 517.5Q183 559 276 559H321Q407 559 460.5 518.0Q514 477 517 410H409Q407 437 383.5 454.5Q360 472 321 472H276Q233 472 209.5 453.0Q186 434 186 402Q186 351 243 343L379 325Q526 305 526 156Q526 77 473.0 34.0Q420 -9 322 -9Z" transform="translate(4800,0)"/><path d="M408 -180V-23L411 102H409Q397 50 357.5 20.0Q318 -10 259 -10Q177 -10 128.0 46.0Q79 102 79 198V353Q79 448 128.0 504.0Q177 560 259 560Q319 560 358.5 530.0Q398 500 409 446V550H516V-180ZM297 84Q349 84 378.5 115.5Q408 147 408 205V346Q408 403 378.5 434.5Q349 466 297 466Q245 466 216.0 439.0Q187 412 187 354V196Q187 138 216.0 111.0Q245 84 297 84Z" transform="translate(5400,0)"/><path d="M385 0Q307 0 260.5 45.5Q214 91 214 167V632H29V730H322V169Q322 136 340.0 117.0Q358 98 389 98H555V0Z" transform="translate(6000,0)"/><path d="M245 -10Q161 -10 111.5 37.5Q62 85 62 162Q62 240 115.0 287.5Q168 335 256 335H408V375Q408 470 301 470Q253 470 224.0 452.0Q195 434 193 402H87Q92 471 149.0 515.5Q206 560 302 560Q404 560 460.0 511.5Q516 463 516 376V0H410V103H409Q402 50 359.0 20.0Q316 -10 245 -10ZM276 79Q337 79 372.5 108.5Q408 138 408 188V259H264Q221 259 195.5 234.0Q170 209 170 170Q170 128 198.0 103.5Q226 79 276 79Z" transform="translate(6600,0)"/><path d="M385 0Q307 0 260.5 45.5Q214 91 214 167V632H29V730H322V169Q322 136 340.0 117.0Q358 98 389 98H555V0Z" transform="translate(7200,0)"/><path d="M308 -10Q205 -10 143.0 47.0Q81 104 81 203V347Q81 446 143.0 503.0Q205 560 308 560Q408 560 468.0 508.0Q528 456 532 366H425Q422 413 390.5 439.0Q359 465 308 465Q253 465 221.0 434.5Q189 404 189 348V203Q189 146 221.0 115.5Q253 85 308 85Q360 85 391.0 111.0Q422 137 425 185H532Q528 95 468.0 42.5Q408 -10 308 -10Z" transform="translate(7800,0)"/><path d="M84 0V730H192V550L191 445Q199 499 237.5 529.5Q276 560 338 560Q420 560 469.0 507.5Q518 455 518 366V0H410V351Q410 407 381.0 437.5Q352 468 302 468Q251 468 221.5 436.0Q192 404 192 347V0Z" transform="translate(8400,0)"/><path d="M300 -10Q199 -10 138.0 49.0Q77 108 77 210V340Q77 442 138.0 501.0Q199 560 300 560Q368 560 418.0 533.5Q468 507 495.5 459.0Q523 411 523 347V248H181V203Q181 145 213.0 113.0Q245 81 300 81Q345 81 375.0 97.5Q405 114 411 143H518Q507 73 447.5 31.5Q388 -10 300 -10ZM181 347V324H419V348Q419 409 388.0 442.0Q357 475 300 475Q243 475 212.0 441.5Q181 408 181 347Z" transform="translate(9000,0)"/><path d="M53 0V550H145V473H147Q151 512 176.0 536.0Q201 560 239 560Q275 560 300.5 537.5Q326 515 336 477Q342 515 367.0 537.5Q392 560 431 560Q482 560 514.5 520.5Q547 481 547 419V0H449V414Q449 444 435.0 461.5Q421 479 396 479Q371 479 357.5 462.0Q344 445 344 415V0H256V414Q256 444 242.5 461.5Q229 479 204 479Q179 479 165.0 462.0Q151 445 151 415V0Z" transform="translate(9600,0)"/><path d="M171 -180 251 32 45 550H160L277 240Q286 218 294.0 192.0Q302 166 305 146Q309 166 316.5 192.0Q324 218 332 240L441 550H555L284 -180Z" transform="translate(10200,0)"/><path d="M140 281V379H460V281Z" transform="translate(10800,0)"/><path d="M355 0Q282 0 239.0 42.0Q196 84 196 156V452H41V550H196V705H304V550H526V452H304V157Q304 131 319.0 114.5Q334 98 360 98H521V0Z" transform="translate(11400,0)"/><path d="M300 -10Q199 -10 138.0 49.0Q77 108 77 210V340Q77 442 138.0 501.0Q199 560 300 560Q368 560 418.0 533.5Q468 507 495.5 459.0Q523 411 523 347V248H181V203Q181 145 213.0 113.0Q245 81 300 81Q345 81 375.0 97.5Q405 114 411 143H518Q507 73 447.5 31.5Q388 -10 300 -10ZM181 347V324H419V348Q419 409 388.0 442.0Q357 475 300 475Q243 475 212.0 441.5Q181 408 181 347Z" transform="translate(12000,0)"/><path d="M53 0V550H145V473H147Q151 512 176.0 536.0Q201 560 239 560Q275 560 300.5 537.5Q326 515 336 477Q342 515 367.0 537.5Q392 560 431 560Q482 560 514.5 520.5Q547 481 547 419V0H449V414Q449 444 435.0 461.5Q421 479 396 479Q371 479 357.5 462.0Q344 445 344 415V0H256V414Q256 444 242.5 461.5Q229 479 204 479Q179 479 165.0 462.0Q151 445 151 415V0Z" transform="translate(12600,0)"/><path d="M84 -180V550H191V446Q202 500 241.5 530.0Q281 560 341 560Q423 560 472.0 503.5Q521 447 521 353V198Q521 103 472.0 46.5Q423 -10 341 -10Q281 -10 241.0 21.5Q201 53 190 108H189L192 -23V-180ZM303 84Q355 84 384.0 111.5Q413 139 413 200V351Q413 411 384.0 438.5Q355 466 303 466Q251 466 221.5 434.5Q192 403 192 346V205Q192 147 221.5 115.5Q251 84 303 84Z" transform="translate(13200,0)"/><path d="M385 0Q307 0 260.5 45.5Q214 91 214 167V632H29V730H322V169Q322 136 340.0 117.0Q358 98 389 98H555V0Z" transform="translate(13800,0)"/><path d="M245 -10Q161 -10 111.5 37.5Q62 85 62 162Q62 240 115.0 287.5Q168 335 256 335H408V375Q408 470 301 470Q253 470 224.0 452.0Q195 434 193 402H87Q92 471 149.0 515.5Q206 560 302 560Q404 560 460.0 511.5Q516 463 516 376V0H410V103H409Q402 50 359.0 20.0Q316 -10 245 -10ZM276 79Q337 79 372.5 108.5Q408 138 408 188V259H264Q221 259 195.5 234.0Q170 209 170 170Q170 128 198.0 103.5Q226 79 276 79Z" transform="translate(14400,0)"/><path d="M355 0Q282 0 239.0 42.0Q196 84 196 156V452H41V550H196V705H304V550H526V452H304V157Q304 131 319.0 114.5Q334 98 360 98H521V0Z" transform="translate(15000,0)"/><path d="M300 -10Q199 -10 138.0 49.0Q77 108 77 210V340Q77 442 138.0 501.0Q199 560 300 560Q368 560 418.0 533.5Q468 507 495.5 459.0Q523 411 523 347V248H181V203Q181 145 213.0 113.0Q245 81 300 81Q345 81 375.0 97.5Q405 114 411 143H518Q507 73 447.5 31.5Q388 -10 300 -10ZM181 347V324H419V348Q419 409 388.0 442.0Q357 475 300 475Q243 475 212.0 441.5Q181 408 181 347Z" transform="translate(15600,0)"/></g></svg>
